{"glyphs":{"0":{"ha":833,"x_min":0,"x_max":0,"o":"m 97 756 b 417 1092 97 957 203 1092 b 736 756 631 1092 736 957 l 736 328 b 417 -8 736 126 631 -8 b 97 328 203 -8 97 126 l 97 756 m 125 347 b 413 19 125 117 239 19 l 421 19 b 708 347 594 19 708 117 l 708 736 b 421 1064 708 967 594 1064 l 413 1064 b 125 736 239 1064 125 967 l 125 347 "},"1":{"ha":833,"x_min":0,"x_max":0,"o":"m 111 0 l 111 28 l 417 28 l 417 1051 l 113 847 l 97 871 l 424 1090 l 444 1090 l 444 28 l 750 28 l 750 0 "},"2":{"ha":833,"x_min":0,"x_max":0,"o":"m 743 28 l 743 0 l 90 0 l 90 21 l 575 529 b 715 806 675 635 715 692 l 715 819 b 422 1064 715 972 579 1064 l 411 1064 b 118 722 186 1064 118 943 l 90 722 l 90 757 b 417 1092 90 972 186 1092 b 743 819 597 1092 743 989 l 743 806 b 593 510 743 688 707 629 l 132 26 l 285 28 "},"3":{"ha":833,"x_min":0,"x_max":0,"o":"m 713 829 b 419 1064 713 972 576 1064 l 411 1064 b 118 722 215 1064 118 964 l 90 722 l 90 757 b 417 1092 90 964 190 1092 b 743 822 597 1092 743 992 l 743 808 b 540 553 743 671 665 581 b 750 285 671 525 750 438 l 750 271 b 417 -8 750 83 604 -8 b 83 333 193 -8 83 131 l 83 347 l 111 347 b 413 19 111 131 221 19 l 421 19 b 722 267 593 19 722 106 l 722 288 b 449 539 722 449 621 539 l 278 539 l 278 567 l 449 567 b 713 801 606 567 713 658 l 713 829 "},"4":{"ha":833,"x_min":0,"x_max":0,"o":"m 542 0 l 542 319 l 56 319 l 56 340 l 535 1083 l 569 1083 l 569 347 l 778 347 l 778 319 l 569 319 l 569 0 m 92 346 l 250 347 l 542 347 l 542 833 l 543 1046 "},"5":{"ha":833,"x_min":0,"x_max":0,"o":"m 413 647 b 119 463 269 647 164 585 l 92 471 l 118 1083 l 736 1083 l 736 1056 l 144 1056 l 122 528 b 417 675 178 619 276 675 b 750 340 604 675 750 549 l 750 326 b 417 -8 750 118 604 -8 b 83 333 193 -8 83 131 l 83 347 l 111 347 b 413 19 111 131 221 19 l 421 19 b 722 322 593 19 722 139 l 722 344 b 421 647 722 528 593 647 l 413 647 "},"6":{"ha":833,"x_min":0,"x_max":0,"o":"m 708 1065 b 265 832 553 1065 379 990 b 128 497 188 724 144 608 b 431 675 183 597 288 675 b 757 340 618 675 757 549 l 757 326 b 424 -8 757 118 611 -8 b 90 354 236 -8 90 125 l 90 368 b 246 850 90 531 131 696 b 708 1092 365 1010 538 1092 m 426 647 b 121 435 285 647 165 553 b 118 372 119 413 118 393 l 118 350 b 419 19 118 146 247 19 l 428 19 b 729 322 600 19 729 139 l 729 344 b 435 647 729 528 607 647 l 426 647 "},"7":{"ha":833,"x_min":0,"x_max":0,"o":"m 97 1083 l 750 1083 l 750 1063 l 310 0 l 279 0 l 718 1057 l 556 1056 l 125 1056 l 125 694 l 97 694 "},"8":{"ha":833,"x_min":0,"x_max":0,"o":"m 743 808 b 540 553 743 671 665 581 b 750 285 671 525 750 438 l 750 271 b 417 -8 750 83 604 -8 b 83 271 229 -8 83 83 l 83 285 b 292 553 83 438 161 525 b 90 808 167 581 90 671 l 90 822 b 417 1092 90 992 236 1092 b 743 822 597 1092 743 992 l 743 808 m 385 539 b 111 288 213 539 111 449 l 111 267 b 413 19 111 106 240 19 l 421 19 b 722 267 593 19 722 106 l 722 288 b 449 539 722 449 621 539 l 385 539 m 413 1064 b 121 829 256 1064 121 972 l 121 801 b 385 567 121 658 228 567 l 449 567 b 713 801 606 567 713 658 l 713 829 b 421 1064 713 972 578 1064 "},"9":{"ha":833,"x_min":0,"x_max":0,"o":"m 125 18 b 568 251 281 18 454 93 b 706 585 644 358 688 474 b 403 408 649 486 546 408 b 76 743 215 408 76 535 l 76 757 b 410 1092 76 965 222 1092 b 743 729 597 1092 743 958 l 743 715 b 588 233 743 553 703 388 b 125 -8 468 74 296 -8 m 407 436 b 713 649 549 436 667 531 b 715 711 714 669 715 690 l 715 733 b 414 1064 715 938 586 1064 l 406 1064 b 104 761 233 1064 104 944 l 104 739 b 399 436 104 556 226 436 "}," ":{"ha":250,"x_min":0,"x_max":0,"o":""},"A":{"ha":819,"x_min":0,"x_max":0,"o":"m 424 1097 l 771 0 l 742 0 l 642 319 l 178 319 l 78 0 l 49 0 l 396 1097 m 188 347 l 632 347 l 410 1056 "},"B":{"ha":767,"x_min":0,"x_max":0,"o":"m 360 1083 b 658 822 507 1083 658 1040 l 658 800 b 471 554 658 636 572 575 b 686 297 583 538 686 475 l 686 269 b 388 0 686 51 535 0 l 111 0 l 111 1083 m 139 539 l 139 28 l 385 28 b 657 271 499 28 657 56 l 657 296 b 385 539 657 511 499 539 m 139 1056 l 139 567 l 357 567 b 629 801 471 567 629 586 l 629 821 b 357 1056 629 1036 471 1056 "},"C":{"ha":824,"x_min":0,"x_max":0,"o":"m 90 569 b 438 1092 90 944 208 1092 b 743 722 647 1092 743 983 l 743 694 l 715 694 b 442 1064 715 969 632 1064 l 433 1064 b 118 569 228 1064 118 928 l 118 514 b 433 19 118 156 228 19 l 442 19 b 715 347 615 19 715 117 l 743 347 l 743 328 b 438 -8 743 126 651 -8 b 90 514 208 -8 90 139 l 90 569 "},"D":{"ha":854,"x_min":0,"x_max":0,"o":"m 771 514 b 375 0 771 132 604 0 l 111 0 l 111 1083 l 375 1083 b 771 569 604 1083 771 951 l 771 514 m 368 28 b 743 514 590 28 743 153 l 743 569 b 368 1056 743 931 590 1056 l 139 1056 l 139 28 "},"E":{"ha":750,"x_min":0,"x_max":0,"o":"m 681 1083 l 681 1056 l 139 1056 l 139 567 l 611 567 l 611 539 l 139 539 l 139 28 l 681 28 l 681 0 l 111 0 l 111 1083 "},"F":{"ha":672,"x_min":0,"x_max":0,"o":"m 653 1083 l 653 1056 l 139 1056 l 139 567 l 583 567 l 583 539 l 139 539 l 139 0 l 111 0 l 111 1083 "},"G":{"ha":868,"x_min":0,"x_max":0,"o":"m 467 -8 b 90 514 221 -8 90 136 l 90 569 b 451 1092 90 947 222 1092 b 764 726 681 1092 764 949 l 764 694 l 736 694 b 456 1064 736 953 654 1064 l 447 1064 b 118 569 244 1064 118 931 l 118 514 b 463 19 118 153 243 19 l 471 19 b 736 122 606 19 694 69 l 736 475 l 515 475 l 515 503 l 764 503 l 764 110 b 467 -8 719 53 628 -8 "},"H":{"ha":861,"x_min":0,"x_max":0,"o":"m 750 1083 l 750 0 l 722 0 l 722 539 l 139 539 l 139 0 l 111 0 l 111 1083 l 139 1083 l 139 567 l 722 567 l 722 1083 "},"I":{"ha":264,"x_min":0,"x_max":0,"o":"m 146 0 l 118 0 l 118 1083 l 146 1083 "},"J":{"ha":653,"x_min":0,"x_max":0,"o":"m 546 1083 l 546 333 b 296 -8 546 125 481 -8 b 46 333 113 -8 46 125 l 46 343 l 74 343 b 296 19 74 139 128 19 b 518 343 465 19 518 139 l 518 1083 "},"K":{"ha":719,"x_min":0,"x_max":0,"o":"m 139 388 l 633 1083 l 667 1083 l 332 613 l 667 0 l 633 0 l 315 589 l 139 342 l 139 0 l 111 0 l 111 1083 l 139 1083 "},"L":{"ha":644,"x_min":0,"x_max":0,"o":"m 111 0 l 111 1083 l 139 1083 l 139 28 l 625 28 l 625 0 "},"M":{"ha":1056,"x_min":0,"x_max":0,"o":"m 915 1083 l 944 1083 l 944 0 l 917 0 l 917 779 l 921 1019 l 542 0 l 514 0 l 135 1019 l 139 779 l 139 0 l 111 0 l 111 1083 l 140 1083 l 528 39 "},"N":{"ha":889,"x_min":0,"x_max":0,"o":"m 750 250 l 750 1083 l 778 1083 l 778 0 l 743 0 l 138 1043 l 139 833 l 139 0 l 111 0 l 111 1083 l 146 1083 l 751 40 "},"O":{"ha":875,"x_min":0,"x_max":0,"o":"m 90 569 b 438 1092 90 944 208 1092 b 785 569 667 1092 785 944 l 785 514 b 438 -8 785 139 667 -8 b 90 514 208 -8 90 139 l 90 569 m 118 514 b 433 19 118 156 228 19 l 442 19 b 757 514 647 19 757 156 l 757 569 b 442 1064 757 928 647 1064 l 433 1064 b 118 569 228 1064 118 928 l 118 514 "},"P":{"ha":756,"x_min":0,"x_max":0,"o":"m 139 0 l 111 0 l 111 1083 l 379 1083 b 686 792 526 1083 686 1024 l 686 764 b 379 472 686 532 526 472 l 139 472 m 378 500 b 657 765 492 500 657 536 l 657 790 b 378 1056 657 1019 492 1056 l 139 1056 l 139 500 "},"Q":{"ha":869,"x_min":0,"x_max":0,"o":"m 90 569 b 438 1092 90 944 208 1092 b 785 569 667 1092 785 944 l 785 514 b 561 10 785 214 708 60 l 618 -139 l 590 -139 l 536 3 b 438 -8 506 -4 474 -8 b 90 514 208 -8 90 139 l 90 569 m 118 514 b 433 19 118 156 228 19 l 442 19 b 526 29 472 19 500 22 l 431 285 l 458 285 l 551 36 b 757 514 686 82 757 226 l 757 569 b 442 1064 757 928 647 1064 l 433 1064 b 118 569 228 1064 118 928 l 118 514 "},"R":{"ha":768,"x_min":0,"x_max":0,"o":"m 139 0 l 111 0 l 111 1083 l 379 1083 b 686 792 526 1083 686 1024 l 686 764 b 488 485 686 589 594 511 l 686 0 l 656 0 l 460 479 b 379 472 433 474 406 472 l 139 472 m 378 500 b 657 765 492 500 657 536 l 657 790 b 378 1056 657 1019 492 1056 l 139 1056 l 139 500 "},"S":{"ha":806,"x_min":0,"x_max":0,"o":"m 397 549 b 76 806 161 578 76 668 l 76 819 b 401 1092 76 989 221 1092 b 729 757 628 1092 729 964 l 729 722 l 701 722 b 407 1064 701 964 603 1064 l 399 1064 b 107 826 242 1064 107 969 l 107 813 b 411 575 107 674 189 601 b 736 293 649 547 736 447 l 736 279 b 403 -8 736 92 590 -8 b 69 333 179 -8 69 131 l 69 347 l 97 347 b 399 19 97 131 207 19 l 407 19 b 708 274 579 19 708 113 l 708 288 b 397 549 708 446 618 521 "},"T":{"ha":681,"x_min":0,"x_max":0,"o":"m 354 0 l 326 0 l 326 1056 l 35 1056 l 35 1083 l 646 1083 l 646 1056 l 354 1056 "},"U":{"ha":861,"x_min":0,"x_max":0,"o":"m 431 -8 b 107 338 236 -8 107 69 l 107 1083 l 135 1083 l 135 342 b 431 19 135 90 243 19 b 726 342 618 19 726 90 l 726 1083 l 754 1083 l 754 338 b 431 -8 754 69 625 -8 "},"V":{"ha":819,"x_min":0,"x_max":0,"o":"m 396 -14 l 49 1083 l 78 1083 l 410 28 l 742 1083 l 771 1083 l 424 -14 "},"W":{"ha":1194,"x_min":0,"x_max":0,"o":"m 893 46 l 1113 1083 l 1142 1083 l 910 0 l 879 0 l 597 1038 l 315 0 l 285 0 l 53 1083 l 82 1083 l 301 46 l 583 1083 l 611 1083 "},"X":{"ha":806,"x_min":0,"x_max":0,"o":"m 72 0 l 39 0 l 385 549 l 39 1083 l 72 1083 l 403 571 l 733 1083 l 767 1083 l 421 549 l 767 0 l 733 0 l 403 525 "},"Y":{"ha":750,"x_min":0,"x_max":0,"o":"m 685 1083 l 715 1083 l 382 326 l 382 0 l 354 0 l 354 326 l 21 1083 l 51 1083 l 368 360 "},"Z":{"ha":764,"x_min":0,"x_max":0,"o":"m 660 1057 l 500 1056 l 69 1056 l 69 1083 l 694 1083 l 694 1063 l 90 26 l 250 28 l 708 28 l 708 0 l 56 0 l 56 21 "},"Æ":{"ha":1139,"x_min":0,"x_max":0,"o":"m 1069 1083 l 1069 1056 l 493 1056 l 572 567 l 1000 567 l 1000 539 l 578 539 l 661 28 l 1069 28 l 1069 0 l 636 0 l 583 319 l 192 319 l 71 0 l 42 0 l 451 1083 m 203 347 l 579 347 l 468 1051 "},"Œ":{"ha":1306,"x_min":0,"x_max":0,"o":"m 83 569 b 479 1083 83 951 250 1083 l 1236 1083 l 1236 1056 l 694 1056 l 694 567 l 1167 567 l 1167 539 l 694 539 l 694 28 l 1236 28 l 1236 0 l 479 0 b 83 514 250 0 83 132 m 486 1056 b 111 569 264 1056 111 931 l 111 514 b 486 28 111 153 264 28 l 667 28 l 667 1056 "},"a":{"ha":674,"x_min":0,"x_max":0,"o":"m 72 188 b 299 400 72 354 192 385 l 549 440 l 549 486 b 340 717 549 611 521 717 b 132 486 160 717 132 611 l 104 486 l 104 501 b 340 744 104 625 149 744 b 576 501 532 744 576 625 l 576 167 l 583 0 l 563 0 l 551 117 b 278 -8 514 64 436 -8 b 72 174 160 -8 72 56 m 279 19 b 549 164 454 19 522 115 l 549 414 l 289 372 b 100 189 186 354 100 324 l 100 174 b 279 19 100 93 158 19 "},"b":{"ha":708,"x_min":0,"x_max":0,"o":"m 125 632 b 350 744 161 679 233 744 b 632 382 536 744 632 607 l 632 354 b 350 -8 632 129 536 -8 b 121 110 229 -8 154 61 l 111 0 l 90 0 l 97 167 l 97 1111 l 125 1111 m 125 149 b 350 19 163 92 231 19 b 604 354 519 19 604 149 l 604 382 b 350 717 604 588 519 717 b 125 588 231 717 163 644 "},"c":{"ha":701,"x_min":0,"x_max":0,"o":"m 76 382 b 372 744 76 590 165 744 b 625 493 561 744 625 611 l 625 479 l 597 479 b 372 717 597 613 533 717 b 104 382 192 717 104 583 l 104 354 b 372 19 104 153 192 19 b 597 243 535 19 597 115 l 625 243 l 625 229 b 372 -8 625 117 563 -8 b 76 354 165 -8 76 146 l 76 382 "},"d":{"ha":708,"x_min":0,"x_max":0,"o":"m 358 744 b 583 632 475 744 547 679 l 583 1111 l 611 1111 l 611 167 l 618 0 l 597 0 l 588 110 b 358 -8 553 61 479 -8 b 76 354 172 -8 76 129 l 76 382 b 358 744 76 607 172 744 m 583 588 b 358 717 546 644 478 717 b 104 382 189 717 104 588 l 104 354 b 358 19 104 149 189 19 b 583 149 478 19 546 92 l 583 588 "},"e":{"ha":736,"x_min":0,"x_max":0,"o":"m 104 354 b 375 19 104 160 186 19 b 632 236 564 19 632 138 l 660 236 l 660 229 b 375 -8 660 125 579 -8 b 76 354 165 -8 76 151 l 76 382 b 368 744 76 585 163 744 b 660 382 574 744 660 585 l 660 354 m 368 717 b 104 382 189 717 104 578 l 632 382 b 368 717 632 578 547 717 "},"f":{"ha":472,"x_min":0,"x_max":0,"o":"m 188 736 l 417 736 l 417 708 l 188 708 l 188 0 l 160 0 l 160 708 l 42 708 l 42 736 l 160 736 l 160 932 b 342 1119 160 1082 244 1119 b 431 1106 393 1119 424 1108 l 431 1078 b 347 1092 419 1083 382 1092 b 188 924 253 1092 188 1061 "},"g":{"ha":708,"x_min":0,"x_max":0,"o":"m 347 -286 b 76 -15 153 -286 76 -174 l 76 0 l 104 0 b 347 -258 104 -160 167 -258 b 583 0 518 -258 583 -160 l 583 160 b 357 47 547 111 474 47 b 76 382 171 47 76 171 l 76 410 b 357 744 76 621 171 744 b 588 626 478 744 553 675 l 597 736 l 618 736 l 611 569 l 611 -15 b 347 -286 611 -174 532 -286 m 583 588 b 358 717 546 644 478 717 b 104 410 189 717 104 601 l 104 382 b 358 75 104 190 189 75 b 583 204 478 75 546 147 "},"h":{"ha":681,"x_min":0,"x_max":0,"o":"m 569 0 l 569 521 b 374 717 569 667 500 717 b 125 588 240 717 163 647 l 125 0 l 97 0 l 97 1111 l 125 1111 l 125 628 b 376 744 167 685 246 744 b 597 528 519 744 597 676 l 597 0 "},"i":{"ha":250,"x_min":0,"x_max":0,"o":"m 111 736 l 139 736 l 139 0 l 111 0 m 153 944 l 97 944 l 97 1000 l 153 1000 "},"j":{"ha":250,"x_min":0,"x_max":0,"o":"m 111 736 l 139 736 l 139 -99 b -43 -286 139 -249 54 -286 b -132 -272 -94 -286 -125 -275 l -132 -244 b -49 -258 -121 -250 -83 -258 b 111 -90 46 -258 111 -228 m 153 944 l 97 944 l 97 1000 l 153 1000 "},"k":{"ha":636,"x_min":0,"x_max":0,"o":"m 132 278 l 553 736 l 590 736 l 332 457 l 590 0 l 558 0 l 314 436 l 132 239 l 132 0 l 104 0 l 104 1111 l 132 1111 "},"l":{"ha":250,"x_min":0,"x_max":0,"o":"m 111 1111 l 139 1111 l 139 0 l 111 0 "},"m":{"ha":1042,"x_min":0,"x_max":0,"o":"m 931 0 l 931 535 b 763 717 931 667 875 717 b 542 588 650 717 579 647 l 542 0 l 514 0 l 514 535 b 346 717 514 667 458 717 b 125 588 233 717 163 647 l 125 0 l 97 0 l 97 569 l 90 736 l 111 736 l 121 624 b 349 744 160 682 232 744 b 533 617 451 744 513 701 b 765 744 571 676 643 744 b 958 542 894 744 958 676 l 958 0 "},"n":{"ha":681,"x_min":0,"x_max":0,"o":"m 569 0 l 569 521 b 374 717 569 667 500 717 b 125 588 240 717 163 647 l 125 0 l 97 0 l 97 569 l 90 736 l 111 736 l 121 622 b 376 744 163 681 242 744 b 597 528 519 744 597 676 l 597 0 "},"o":{"ha":731,"x_min":0,"x_max":0,"o":"m 365 -8 b 76 354 179 -8 76 129 l 76 382 b 365 744 76 607 179 744 b 654 382 551 744 654 607 l 654 354 b 365 -8 654 129 551 -8 m 365 19 b 626 354 535 19 626 149 l 626 382 b 365 717 626 588 535 717 b 104 382 196 717 104 588 l 104 354 b 365 19 104 149 196 19 "},"p":{"ha":708,"x_min":0,"x_max":0,"o":"m 350 -8 b 125 104 233 -8 161 56 l 125 -278 l 97 -278 l 97 569 l 90 736 l 111 736 l 121 626 b 350 744 154 675 229 744 b 632 382 536 744 632 607 l 632 354 b 350 -8 632 129 536 -8 m 125 149 b 350 19 163 92 231 19 b 604 354 519 19 604 149 l 604 382 b 350 717 604 588 519 717 b 125 588 231 717 163 644 "},"q":{"ha":708,"x_min":0,"x_max":0,"o":"m 583 104 b 358 -8 547 56 475 -8 b 76 354 172 -8 76 129 l 76 382 b 358 744 76 607 172 744 b 588 626 479 744 553 675 l 597 736 l 618 736 l 611 569 l 611 -278 l 583 -278 m 583 588 b 358 717 546 644 478 717 b 104 382 189 717 104 588 l 104 354 b 358 19 104 149 189 19 b 583 149 478 19 546 92 "},"r":{"ha":413,"x_min":0,"x_max":0,"o":"m 333 744 b 354 743 346 744 354 743 l 354 717 l 342 717 b 125 585 219 717 153 646 l 125 0 l 97 0 l 97 569 l 90 736 l 111 736 l 121 624 b 333 744 154 679 222 744 "},"s":{"ha":667,"x_min":0,"x_max":0,"o":"m 333 19 b 569 194 479 19 569 86 b 319 364 569 322 489 350 b 76 544 125 383 76 446 l 76 553 b 333 744 76 667 172 744 b 590 506 525 744 590 640 l 590 500 l 563 500 b 333 717 563 632 510 717 b 104 549 193 717 104 656 b 347 386 104 450 150 404 b 597 199 533 369 597 322 l 597 190 b 333 -8 597 72 499 -8 b 69 217 125 -8 69 108 l 69 222 l 97 222 b 333 19 97 118 144 19 "},"t":{"ha":500,"x_min":0,"x_max":0,"o":"m 444 736 l 444 708 l 188 708 l 188 188 b 347 19 188 50 253 19 b 431 33 382 19 419 28 l 431 6 b 342 -8 424 3 393 -8 b 160 179 244 -8 160 29 l 160 708 l 42 708 l 42 736 l 160 736 l 160 944 l 188 944 l 188 736 "},"u":{"ha":681,"x_min":0,"x_max":0,"o":"m 111 736 l 111 215 b 307 19 111 69 181 19 b 556 149 440 19 518 89 l 556 736 l 583 736 l 583 167 l 590 0 l 569 0 l 558 113 b 304 -8 518 54 439 -8 b 83 208 161 -8 83 60 l 83 736 "},"v":{"ha":667,"x_min":0,"x_max":0,"o":"m 594 736 l 625 736 l 347 0 l 319 0 l 42 736 l 72 736 l 333 35 "},"w":{"ha":931,"x_min":0,"x_max":0,"o":"m 254 0 l 221 0 l 46 736 l 75 736 l 239 36 l 451 736 l 479 736 l 692 36 l 856 736 l 885 736 l 710 0 l 676 0 l 465 692 "},"x":{"ha":611,"x_min":0,"x_max":0,"o":"m 63 736 l 306 394 l 549 736 l 582 736 l 322 372 l 582 0 l 549 0 l 306 351 l 63 0 l 29 0 l 289 372 l 29 736 "},"y":{"ha":639,"x_min":0,"x_max":0,"o":"m 571 736 l 601 736 l 332 25 l 219 -278 l 193 -278 l 307 25 l 38 736 l 68 736 l 319 61 "},"z":{"ha":597,"x_min":0,"x_max":0,"o":"m 499 710 l 340 708 l 63 708 l 63 736 l 535 736 l 535 715 l 85 26 l 243 28 l 549 28 l 549 0 l 49 0 l 49 21 "},"æ":{"ha":1201,"x_min":0,"x_max":0,"o":"m 65 188 b 292 400 65 354 185 385 l 542 440 l 542 486 b 333 717 542 611 514 717 b 125 486 153 717 125 611 l 97 486 l 97 501 b 333 744 97 625 142 744 b 565 538 506 744 557 647 b 833 744 600 661 685 744 b 1125 382 1039 744 1125 585 l 1125 354 l 569 354 b 840 19 569 160 651 19 b 1097 236 1029 19 1097 138 l 1125 236 l 1125 229 b 840 -8 1125 125 1044 -8 b 575 164 703 -8 618 60 b 271 -8 539 93 454 -8 b 65 174 153 -8 65 56 m 833 717 b 569 382 654 717 569 578 l 1097 382 b 833 717 1097 578 1013 717 m 272 19 b 563 199 443 19 522 111 b 542 354 549 246 542 297 l 542 414 l 282 372 b 93 189 179 356 93 322 l 93 174 b 272 19 93 93 151 19 "},"&":{"ha":889,"x_min":0,"x_max":0,"o":"m 382 -8 b 83 278 194 -8 83 90 l 83 292 b 281 588 83 432 178 517 b 118 875 182 692 118 767 l 118 889 b 347 1092 118 1000 194 1092 b 576 889 500 1092 576 1000 l 576 875 b 319 586 576 742 443 669 l 688 197 b 757 542 729 276 756 386 l 757 549 l 785 549 b 708 176 785 383 756 263 l 875 0 l 839 0 l 694 153 b 382 -8 619 35 504 -8 m 386 19 b 675 172 489 19 601 54 l 297 571 b 111 292 199 501 111 421 l 111 278 b 378 19 111 117 206 19 m 146 875 b 303 603 146 771 214 696 b 549 875 424 683 549 753 l 549 889 b 353 1064 549 986 482 1064 l 342 1064 b 146 889 213 1064 146 986 "},"`":{"ha":694,"x_min":0,"x_max":0,"o":"m 238 1083 l 363 861 l 332 861 l 207 1083 "},"´":{"ha":694,"x_min":0,"x_max":0,"o":"m 488 1083 l 363 861 l 332 861 l 457 1083 "},"ˆ":{"ha":694,"x_min":0,"x_max":0,"o":"m 160 861 l 333 1083 l 361 1083 l 535 861 l 500 861 l 347 1058 l 194 861 "},"˜":{"ha":694,"x_min":0,"x_max":0,"o":"m 535 1017 b 451 919 535 942 493 919 b 247 1000 376 919 313 1000 b 185 928 215 1000 185 990 l 160 928 b 243 1025 160 1003 201 1025 b 447 944 318 1025 382 944 b 510 1017 479 944 510 954 "},"¯":{"ha":694,"x_min":0,"x_max":0,"o":"m 208 986 l 486 986 l 486 958 l 208 958 "},"˘":{"ha":694,"x_min":0,"x_max":0,"o":"m 347 853 b 139 1083 208 853 139 958 l 164 1083 b 347 878 164 972 221 878 b 531 1083 474 878 531 972 l 556 1083 b 347 853 556 958 486 853 "},"":{"ha":694,"x_min":0,"x_max":0,"o":"m 347 1092 b 556 861 486 1092 556 986 l 531 861 b 347 1067 531 972 474 1067 b 164 861 221 1067 164 972 l 139 861 b 347 1092 139 986 208 1092 "},"˙":{"ha":694,"x_min":0,"x_max":0,"o":"m 375 944 l 319 944 l 319 1000 l 375 1000 "},"¨":{"ha":694,"x_min":0,"x_max":0,"o":"m 278 944 l 222 944 l 222 1000 l 278 1000 m 472 944 l 417 944 l 417 1000 l 472 1000 "},"˚":{"ha":694,"x_min":0,"x_max":0,"o":"m 228 972 b 347 1092 228 1038 282 1092 b 467 972 413 1092 467 1038 b 347 853 467 907 413 853 b 228 972 282 853 228 907 m 253 972 b 347 878 253 919 294 878 b 442 972 400 878 442 919 b 347 1067 442 1025 400 1067 b 253 972 294 1067 253 1025 "},"˝":{"ha":694,"x_min":0,"x_max":0,"o":"m 557 1083 l 432 861 l 401 861 l 526 1083 m 418 1083 l 293 861 l 263 861 l 388 1083 "},"":{"ha":694,"x_min":0,"x_max":0,"o":"m 168 1083 l 293 861 l 263 861 l 138 1083 m 307 1083 l 432 861 l 401 861 l 276 1083 "},"ˇ":{"ha":694,"x_min":0,"x_max":0,"o":"m 194 1083 l 347 886 l 500 1083 l 535 1083 l 361 861 l 333 861 l 160 1083 "},"":{"ha":694,"x_min":0,"x_max":0,"o":"m 501 1111 l 486 861 l 472 861 l 472 1111 "},"":{"ha":836,"x_min":0,"x_max":0,"o":"m 375 -142 b 271 -286 375 -247 342 -286 l 271 -261 b 347 -153 321 -261 346 -244 l 319 -153 l 319 -97 l 375 -97 "},"":{"ha":836,"x_min":0,"x_max":0,"o":"m 319 -153 l 375 -153 l 375 -208 l 319 -208 "},"¸":{"ha":836,"x_min":0,"x_max":0,"o":"m 246 -239 b 347 -261 268 -251 314 -261 b 449 -187 400 -261 449 -254 b 347 -114 449 -121 400 -114 b 313 -117 328 -114 313 -117 l 297 -101 l 333 0 l 361 0 l 329 -90 b 354 -89 336 -89 344 -89 b 474 -187 410 -89 474 -108 b 347 -286 474 -267 413 -286 b 238 -261 310 -286 268 -276 "},"":{"ha":836,"x_min":0,"x_max":0,"o":"m 246 -239 b 347 -261 268 -251 314 -261 b 449 -187 400 -261 449 -254 b 347 -114 449 -121 400 -114 b 267 -128 321 -114 286 -121 l 267 -104 b 347 -89 292 -96 318 -89 b 474 -187 413 -89 474 -108 b 347 -286 474 -267 413 -286 b 238 -261 310 -286 268 -276 "},"˛":{"ha":836,"x_min":0,"x_max":0,"o":"m 457 -261 b 347 -286 432 -274 401 -286 b 221 -160 282 -286 221 -250 b 385 22 221 -49 304 -7 l 394 0 b 246 -160 329 -21 246 -62 b 347 -261 246 -236 294 -261 b 449 -239 394 -261 428 -249 "},".":{"ha":250,"x_min":0,"x_max":0,"o":"m 153 0 l 97 0 l 97 56 l 153 56 "},",":{"ha":250,"x_min":0,"x_max":0,"o":"m 153 11 b 35 -146 153 -94 106 -146 l 35 -118 b 125 0 85 -118 124 -92 l 97 0 l 97 56 l 153 56 "},":":{"ha":250,"x_min":0,"x_max":0,"o":"m 153 0 l 97 0 l 97 56 l 153 56 m 153 514 l 97 514 l 97 569 l 153 569 "},";":{"ha":250,"x_min":0,"x_max":0,"o":"m 153 514 l 97 514 l 97 569 l 153 569 m 153 11 b 35 -146 153 -94 106 -146 l 35 -118 b 125 0 85 -118 124 -92 l 97 0 l 97 56 l 153 56 "},"…":{"ha":1389,"x_min":0,"x_max":0,"o":"m 278 0 l 222 0 l 222 56 l 278 56 m 1167 0 l 1111 0 l 1111 56 l 1167 56 m 722 0 l 667 0 l 667 56 l 722 56 "},"!":{"ha":250,"x_min":0,"x_max":0,"o":"m 139 1083 l 135 243 l 115 243 l 111 1083 m 153 0 l 97 0 l 97 56 l 153 56 "},"?":{"ha":611,"x_min":0,"x_max":0,"o":"m 296 243 b 532 799 294 521 532 592 b 310 1064 532 928 479 1064 b 74 694 142 1064 74 931 l 46 694 l 46 704 b 310 1092 46 944 126 1092 b 560 808 494 1092 560 942 b 315 243 560 575 322 517 m 333 0 l 278 0 l 278 56 l 333 56 "},"¿":{"ha":611,"x_min":0,"x_max":0,"o":"m 278 736 l 333 736 l 333 681 l 278 681 m 315 493 b 79 -42 317 194 79 179 b 301 -258 79 -146 132 -258 b 538 83 469 -258 538 -132 l 565 83 l 565 74 b 301 -286 565 -146 485 -286 b 51 -49 117 -286 51 -160 b 296 493 51 196 289 206 "},"":{"ha":611,"x_min":0,"x_max":0,"o":"m 278 1083 l 333 1083 l 333 1028 l 278 1028 m 315 840 b 79 285 317 563 79 492 b 301 19 79 156 132 19 b 538 389 469 19 538 153 l 565 389 l 565 379 b 301 -8 565 139 485 -8 b 51 275 117 -8 51 142 b 296 840 51 508 289 567 "},"‘":{"ha":250,"x_min":0,"x_max":0,"o":"m 97 935 b 215 1092 97 1040 144 1092 l 215 1064 b 125 946 165 1064 126 1038 l 153 946 l 153 890 l 97 890 "},"’":{"ha":250,"x_min":0,"x_max":0,"o":"m 153 1039 b 35 882 153 933 106 882 l 35 910 b 125 1028 85 910 124 936 l 97 1028 l 97 1083 l 153 1083 "},"“":{"ha":361,"x_min":0,"x_max":0,"o":"m 97 935 b 215 1092 97 1040 144 1092 l 215 1064 b 125 946 165 1064 126 1038 l 153 946 l 153 890 l 97 890 m 208 935 b 326 1092 208 1040 256 1092 l 326 1064 b 236 946 276 1064 238 1038 l 264 946 l 264 890 l 208 890 "},"”":{"ha":361,"x_min":0,"x_max":0,"o":"m 153 1039 b 35 882 153 933 106 882 l 35 910 b 125 1028 85 910 124 936 l 97 1028 l 97 1083 l 153 1083 m 264 1039 b 146 882 264 933 217 882 l 146 910 b 236 1028 196 910 235 936 l 208 1028 l 208 1083 l 264 1083 "},"‚":{"ha":250,"x_min":0,"x_max":0,"o":"m 153 11 b 35 -146 153 -94 106 -146 l 35 -118 b 125 0 85 -118 124 -92 l 97 0 l 97 56 l 153 56 "},"„":{"ha":361,"x_min":0,"x_max":0,"o":"m 153 11 b 35 -146 153 -94 106 -146 l 35 -118 b 125 0 85 -118 124 -92 l 97 0 l 97 56 l 153 56 m 264 11 b 146 -146 264 -94 217 -146 l 146 -118 b 236 0 196 -118 235 -92 l 208 0 l 208 56 l 264 56 "},"‛":{"ha":250,"x_min":0,"x_max":0,"o":"m 97 1083 l 153 1083 l 153 1028 l 125 1028 b 215 910 126 936 165 910 l 215 882 b 97 1039 144 882 97 933 "},"‟":{"ha":361,"x_min":0,"x_max":0,"o":"m 97 1083 l 153 1083 l 153 1028 l 125 1028 b 215 910 126 936 165 910 l 215 882 b 97 1039 144 882 97 933 m 208 1083 l 264 1083 l 264 1028 l 236 1028 b 326 910 238 936 276 910 l 326 882 b 208 1039 256 882 208 933 "},"‹":{"ha":417,"x_min":0,"x_max":0,"o":"m 347 668 l 94 472 l 347 276 l 347 242 l 69 458 l 69 486 l 347 703 "},"«":{"ha":694,"x_min":0,"x_max":0,"o":"m 347 668 l 94 472 l 347 276 l 347 242 l 69 458 l 69 486 l 347 703 m 625 668 l 372 472 l 625 276 l 625 242 l 347 458 l 347 486 l 625 703 "},"/":{"ha":417,"x_min":0,"x_max":0,"o":"m 63 -167 l 35 -167 l 354 1167 l 382 1167 "},"\\":{"ha":417,"x_min":0,"x_max":0,"o":"m 35 1167 l 63 1167 l 382 -167 l 354 -167 "},"|":{"ha":250,"x_min":0,"x_max":0,"o":"m 111 1167 l 139 1167 l 139 -167 l 111 -167 "},"‖":{"ha":389,"x_min":0,"x_max":0,"o":"m 111 1167 l 139 1167 l 139 -167 l 111 -167 m 250 1167 l 278 1167 l 278 -167 l 250 -167 "},"¦":{"ha":250,"x_min":0,"x_max":0,"o":"m 111 1167 l 139 1167 l 139 556 l 111 556 m 111 444 l 139 444 l 139 -167 l 111 -167 "},"•":{"ha":528,"x_min":0,"x_max":0,"o":"m 431 306 l 97 306 l 97 639 l 431 639 "},"":{"ha":417,"x_min":0,"x_max":0,"o":"m 61 0 l 328 1083 l 356 1083 l 89 0 "},"":{"ha":417,"x_min":0,"x_max":0,"o":"m 89 1083 l 356 0 l 328 0 l 61 1083 "},"":{"ha":250,"x_min":0,"x_max":0,"o":"m 111 1083 l 139 1083 l 139 0 l 111 0 "},"":{"ha":389,"x_min":0,"x_max":0,"o":"m 111 1083 l 139 1083 l 139 0 l 111 0 m 250 1083 l 278 1083 l 278 0 l 250 0 "},"":{"ha":250,"x_min":0,"x_max":0,"o":"m 111 1083 l 139 1083 l 139 597 l 111 597 m 111 486 l 139 486 l 139 0 l 111 0 "},"":{"ha":528,"x_min":0,"x_max":0,"o":"m 431 375 l 97 375 l 97 708 l 431 708 "}," ":{"ha":250,"x_min":0,"x_max":0,"o":""}," ":{"ha":694,"x_min":0,"x_max":0,"o":""}," ":{"ha":1389,"x_min":0,"x_max":0,"o":""}," ":{"ha":463,"x_min":0,"x_max":0,"o":""}," ":{"ha":347,"x_min":0,"x_max":0,"o":""}," ":{"ha":232,"x_min":0,"x_max":0,"o":""}," ":{"ha":833,"x_min":0,"x_max":0,"o":""}," ":{"ha":250,"x_min":0,"x_max":0,"o":""}," ":{"ha":208,"x_min":0,"x_max":0,"o":""}," ":{"ha":69,"x_min":0,"x_max":0,"o":""},"​":{"ha":0,"x_min":0,"x_max":0,"o":""},"·":{"ha":250,"x_min":0,"x_max":0,"o":"m 153 444 l 97 444 l 97 500 l 153 500 "},"-":{"ha":444,"x_min":0,"x_max":0,"o":"m 69 486 l 375 486 l 375 458 l 69 458 "},"­":{"ha":444,"x_min":0,"x_max":0,"o":"m 69 486 l 375 486 l 375 458 l 69 458 "},"":{"ha":463,"x_min":0,"x_max":0,"o":"m 69 486 l 393 486 l 393 458 l 69 458 "},"–":{"ha":694,"x_min":0,"x_max":0,"o":"m 69 486 l 625 486 l 625 458 l 69 458 "},"":{"ha":1042,"x_min":0,"x_max":0,"o":"m 69 486 l 972 486 l 972 458 l 69 458 "},"—":{"ha":1389,"x_min":0,"x_max":0,"o":"m 69 486 l 1319 486 l 1319 458 l 69 458 "},"‒":{"ha":833,"x_min":0,"x_max":0,"o":"m 69 486 l 764 486 l 764 458 l 69 458 "},"―":{"ha":1667,"x_min":0,"x_max":0,"o":"m 69 486 l 1597 486 l 1597 458 l 69 458 "},"(":{"ha":417,"x_min":0,"x_max":0,"o":"m 90 514 b 315 1167 90 836 197 1014 l 347 1167 b 118 514 217 1001 118 818 l 118 486 b 347 -167 118 182 217 -1 l 315 -167 b 90 486 197 -14 90 164 "},")":{"ha":417,"x_min":0,"x_max":0,"o":"m 326 486 b 101 -167 326 164 219 -14 l 69 -167 b 299 486 200 -1 299 182 l 299 514 b 69 1167 299 818 200 1001 l 101 1167 b 326 514 219 1014 326 836 "},"[":{"ha":417,"x_min":0,"x_max":0,"o":"m 347 1167 l 347 1139 l 139 1139 l 139 -139 l 347 -139 l 347 -167 l 111 -167 l 111 1167 "},"]":{"ha":417,"x_min":0,"x_max":0,"o":"m 69 -167 l 69 -139 l 278 -139 l 278 1139 l 69 1139 l 69 1167 l 306 1167 l 306 -167 "},"{":{"ha":417,"x_min":0,"x_max":0,"o":"m 347 1139 b 201 986 261 1139 201 1111 l 201 643 b 121 500 201 557 168 517 b 201 357 168 483 201 442 l 201 14 b 347 -139 201 -111 261 -139 l 347 -167 l 342 -167 b 174 7 251 -167 174 -132 l 174 356 b 49 486 174 463 122 486 l 49 514 b 174 644 122 514 174 538 l 174 993 b 342 1167 174 1132 251 1167 l 347 1167 "},"}":{"ha":417,"x_min":0,"x_max":0,"o":"m 69 -139 b 215 14 156 -139 215 -111 l 215 357 b 296 500 215 442 249 483 b 215 643 249 517 215 557 l 215 986 b 69 1139 215 1111 156 1139 l 69 1167 l 75 1167 b 243 993 165 1167 243 1132 l 243 644 b 368 514 243 538 294 514 l 368 486 b 243 356 294 486 243 463 l 243 7 b 75 -167 243 -132 165 -167 l 69 -167 "},"〈":{"ha":417,"x_min":0,"x_max":0,"o":"m 119 500 l 344 -167 l 315 -167 l 90 500 l 315 1167 l 344 1167 "},"〉":{"ha":417,"x_min":0,"x_max":0,"o":"m 297 500 l 72 1167 l 101 1167 l 326 500 l 101 -167 l 72 -167 "},"":{"ha":417,"x_min":0,"x_max":0,"o":"m 104 556 b 278 1083 104 760 181 940 l 308 1083 b 132 556 210 935 132 753 l 132 528 b 308 0 132 331 210 149 l 278 0 b 104 528 181 143 104 324 "},"":{"ha":417,"x_min":0,"x_max":0,"o":"m 313 528 b 139 0 313 324 236 143 l 108 0 b 285 528 207 149 285 331 l 285 556 b 108 1083 285 753 207 935 l 139 1083 b 313 556 236 940 313 760 "},"":{"ha":417,"x_min":0,"x_max":0,"o":"m 347 1083 l 347 1056 l 139 1056 l 139 28 l 347 28 l 347 0 l 111 0 l 111 1083 "},"":{"ha":417,"x_min":0,"x_max":0,"o":"m 69 0 l 69 28 l 278 28 l 278 1056 l 69 1056 l 69 1083 l 306 1083 l 306 0 "},"":{"ha":417,"x_min":0,"x_max":0,"o":"m 347 1056 b 201 903 261 1056 201 1028 l 201 685 b 121 542 201 599 168 558 b 201 399 168 525 201 483 l 201 181 b 347 28 201 56 261 28 l 347 0 l 342 0 b 174 174 251 0 174 35 l 174 397 b 49 528 174 504 122 528 l 49 556 b 174 686 122 556 174 579 l 174 910 b 342 1083 174 1049 251 1083 l 347 1083 "},"":{"ha":417,"x_min":0,"x_max":0,"o":"m 69 1083 l 75 1083 b 243 910 165 1083 243 1049 l 243 686 b 368 556 243 579 294 556 l 368 528 b 243 397 294 528 243 504 l 243 174 b 75 0 243 35 165 0 l 69 0 l 69 28 b 215 181 156 28 215 56 l 215 399 b 296 542 215 483 249 525 b 215 685 249 558 215 599 l 215 903 b 69 1056 215 1028 156 1056 "},"":{"ha":417,"x_min":0,"x_max":0,"o":"m 119 542 l 306 0 l 276 0 l 90 542 l 276 1083 l 306 1083 "},"":{"ha":417,"x_min":0,"x_max":0,"o":"m 297 542 l 111 1083 l 140 1083 l 326 542 l 140 0 l 111 0 "},"*":{"ha":528,"x_min":0,"x_max":0,"o":"m 278 1111 l 278 903 l 250 903 l 250 1111 m 106 667 l 228 835 l 250 819 l 128 650 m 29 951 l 228 888 l 219 861 l 21 925 m 400 650 l 278 819 l 300 835 l 422 667 m 507 925 l 308 861 l 300 888 l 499 951 "},"†":{"ha":528,"x_min":0,"x_max":0,"o":"m 278 1111 l 278 903 l 250 903 l 250 1111 m 28 875 l 222 875 l 222 847 l 28 847 m 250 472 l 250 819 l 278 819 l 278 472 m 500 847 l 306 847 l 306 875 l 500 875 "},"‡":{"ha":528,"x_min":0,"x_max":0,"o":"m 278 1111 l 278 903 l 250 903 l 250 1111 m 28 875 l 222 875 l 222 847 l 28 847 m 250 611 l 250 819 l 278 819 l 278 611 m 500 847 l 306 847 l 306 875 l 500 875 m 28 583 l 222 583 l 222 556 l 28 556 m 250 181 l 250 528 l 278 528 l 278 181 m 500 556 l 306 556 l 306 583 l 500 583 "},"~":{"ha":833,"x_min":0,"x_max":0,"o":"m 596 492 b 750 575 679 492 731 553 l 771 554 b 597 464 754 535 694 464 b 238 578 438 464 383 578 b 83 494 154 578 103 517 l 63 515 b 236 606 79 535 139 606 b 596 492 396 606 450 492 "},"_":{"ha":444,"x_min":0,"x_max":0,"o":"m 69 -125 l 375 -125 l 375 -153 l 69 -153 "},"":{"ha":444,"x_min":0,"x_max":0,"o":"m 69 28 l 375 28 l 375 0 l 69 0 "},"":{"ha":833,"x_min":0,"x_max":0,"o":"m 69 -125 l 764 -125 l 764 -153 l 69 -153 "},"'":{"ha":250,"x_min":0,"x_max":0,"o":"m 139 1083 l 132 736 l 118 736 l 111 1083 "},"\"":{"ha":389,"x_min":0,"x_max":0,"o":"m 139 1083 l 132 736 l 118 736 l 111 1083 m 278 1083 l 271 736 l 257 736 l 250 1083 "},"‴":{"ha":528,"x_min":0,"x_max":0,"o":"m 139 1083 l 132 736 l 118 736 l 111 1083 m 417 1083 l 410 736 l 396 736 l 389 1083 m 278 1083 l 271 736 l 257 736 l 250 1083 "},"@":{"ha":1292,"x_min":0,"x_max":0,"o":"m 685 -258 b 1142 -121 853 -258 993 -228 l 1158 -143 b 681 -286 1004 -258 843 -286 b 49 375 313 -286 49 -28 l 49 431 b 674 1092 49 833 306 1092 b 1243 535 979 1092 1243 896 l 1243 493 b 875 83 1243 160 1090 83 l 868 83 l 858 193 b 628 75 824 144 743 75 b 347 396 444 75 347 208 l 347 424 b 628 744 347 611 444 744 b 858 626 743 744 824 675 l 868 736 l 889 736 l 882 569 l 882 250 l 888 111 b 1215 493 1074 113 1215 171 l 1215 535 b 678 1064 1215 889 958 1064 l 669 1064 b 76 431 326 1064 76 826 l 76 375 b 676 -258 76 -21 333 -258 m 854 588 b 629 717 817 644 743 717 b 375 424 465 717 375 597 l 375 396 b 629 103 375 222 465 103 b 854 232 743 103 817 175 l 854 588 "},"€":{"ha":833,"x_min":0,"x_max":0,"o":"m 56 458 l 160 458 l 160 625 l 56 625 l 56 653 l 161 653 b 479 1092 176 967 281 1092 b 757 722 675 1092 757 983 l 757 694 l 729 694 b 483 1064 729 969 660 1064 l 475 1064 b 190 653 299 1064 204 949 l 611 653 l 597 625 l 189 625 l 189 458 l 542 458 l 528 431 l 190 431 b 475 19 204 133 299 19 l 483 19 b 729 347 643 19 729 117 l 757 347 l 757 328 b 479 -8 757 126 679 -8 b 161 431 281 -8 176 117 l 56 431 "},"£":{"ha":833,"x_min":0,"x_max":0,"o":"m 83 556 l 219 556 b 181 808 197 643 181 728 b 458 1092 181 942 274 1092 b 750 704 642 1092 750 944 l 750 694 l 722 694 b 458 1064 722 931 626 1064 b 208 799 289 1064 208 928 b 250 556 208 726 226 643 l 556 556 l 556 528 l 257 528 b 357 28 300 371 356 196 l 750 28 l 750 0 l 83 0 l 83 28 l 329 28 b 226 528 324 203 268 371 l 83 528 "},"#":{"ha":833,"x_min":0,"x_max":0,"o":"m 139 736 l 301 736 l 385 1083 l 413 1083 l 329 736 l 597 736 l 681 1083 l 708 1083 l 625 736 l 782 736 l 782 708 l 618 708 l 538 375 l 694 375 l 694 347 l 531 347 l 449 0 l 421 0 l 504 347 l 235 347 l 153 0 l 125 0 l 208 347 l 51 347 l 51 375 l 215 375 l 294 708 l 139 708 m 242 375 l 511 375 l 590 708 l 322 708 "},"+":{"ha":833,"x_min":0,"x_max":0,"o":"m 431 889 l 431 556 l 764 556 l 764 528 l 431 528 l 431 194 l 403 194 l 403 528 l 69 528 l 69 556 l 403 556 l 403 889 "},"−":{"ha":833,"x_min":0,"x_max":0,"o":"m 69 556 l 764 556 l 764 528 l 69 528 "},"×":{"ha":833,"x_min":0,"x_max":0,"o":"m 83 896 l 417 563 l 750 896 l 771 875 l 438 542 l 771 208 l 750 188 l 417 521 l 83 188 l 63 208 l 396 542 l 63 875 "},"÷":{"ha":833,"x_min":0,"x_max":0,"o":"m 69 556 l 764 556 l 764 528 l 69 528 m 444 833 l 389 833 l 389 889 l 444 889 m 444 194 l 389 194 l 389 250 l 444 250 "},"=":{"ha":833,"x_min":0,"x_max":0,"o":"m 69 694 l 764 694 l 764 667 l 69 667 m 69 417 l 764 417 l 764 389 l 69 389 "},"≠":{"ha":833,"x_min":0,"x_max":0,"o":"m 633 889 l 521 694 l 764 694 l 764 667 l 504 667 l 360 417 l 764 417 l 764 389 l 344 389 l 232 194 l 200 194 l 313 389 l 69 389 l 69 417 l 328 417 l 472 667 l 69 667 l 69 694 l 489 694 l 601 889 "},"≈":{"ha":833,"x_min":0,"x_max":0,"o":"m 596 631 b 750 714 679 631 731 692 l 771 693 b 597 603 754 674 694 603 b 238 717 438 603 383 717 b 83 633 154 717 103 656 l 63 654 b 236 744 79 674 139 744 b 596 631 396 744 450 631 m 238 439 b 83 356 154 439 103 378 l 63 376 b 236 467 79 396 139 467 b 596 353 396 467 450 353 b 750 436 679 353 731 414 l 771 415 b 597 325 754 396 694 325 b 238 439 438 325 383 439 "},"<":{"ha":833,"x_min":0,"x_max":0,"o":"m 764 897 l 764 867 l 97 542 l 764 217 l 764 186 l 69 528 l 69 556 "},">":{"ha":833,"x_min":0,"x_max":0,"o":"m 69 186 l 69 217 l 736 542 l 69 867 l 69 897 l 764 556 l 764 528 "},"≤":{"ha":833,"x_min":0,"x_max":0,"o":"m 764 375 l 764 344 l 69 607 l 69 635 l 764 897 l 764 867 l 104 621 m 764 186 l 69 449 l 69 479 l 764 217 "},"≥":{"ha":833,"x_min":0,"x_max":0,"o":"m 729 621 l 69 867 l 69 897 l 764 635 l 764 607 l 69 344 l 69 375 m 69 217 l 764 479 l 764 449 l 69 186 "},"¬":{"ha":833,"x_min":0,"x_max":0,"o":"m 69 778 l 764 778 l 764 306 l 736 306 l 736 750 l 69 750 "},"≡":{"ha":833,"x_min":0,"x_max":0,"o":"m 69 278 l 764 278 l 764 250 l 69 250 m 69 556 l 764 556 l 764 528 l 69 528 m 69 833 l 764 833 l 764 806 l 69 806 "},"œ":{"ha":1286,"x_min":0,"x_max":0,"o":"m 654 354 b 925 19 654 160 736 19 b 1182 236 1114 19 1182 138 l 1210 236 l 1210 229 b 925 -8 1210 125 1129 -8 b 640 235 758 -8 669 92 b 365 -8 610 81 515 -8 b 76 354 179 -8 76 129 l 76 382 b 365 744 76 607 179 744 b 640 501 515 744 610 654 b 918 744 668 644 756 744 b 1210 382 1124 744 1210 585 l 1210 354 m 365 19 b 626 354 535 19 626 149 l 626 382 b 365 717 626 588 535 717 b 104 382 196 717 104 588 l 104 354 b 365 19 104 149 196 19 m 918 717 b 654 382 739 717 654 578 l 1182 382 b 918 717 1182 578 1097 717 "},"$":{"ha":833,"x_min":0,"x_max":0,"o":"m 531 985 b 722 711 661 949 722 846 l 722 692 l 694 692 b 524 958 694 838 638 926 l 431 568 b 729 338 639 546 729 475 l 729 326 b 417 83 729 174 593 83 b 317 93 379 83 347 86 l 275 -83 l 247 -83 l 290 100 b 104 369 161 140 104 246 l 104 376 l 132 376 b 297 126 132 253 186 163 l 397 544 b 111 757 189 569 111 640 l 111 768 b 415 1000 111 910 244 1000 b 504 992 447 1000 476 997 l 546 1167 l 574 1167 m 701 332 b 424 542 701 471 607 519 l 324 119 b 414 111 350 114 381 111 l 418 111 b 701 325 578 111 701 190 l 701 332 m 140 763 b 403 571 140 647 211 594 l 497 965 b 418 972 474 969 447 972 l 414 972 b 140 769 265 972 140 894 l 140 763 "},"¢":{"ha":833,"x_min":0,"x_max":0,"o":"m 531 989 b 731 689 667 956 731 846 l 731 668 l 703 668 b 525 963 703 836 643 933 l 325 128 b 436 111 358 117 396 111 l 440 111 b 703 386 608 111 703 207 l 731 386 l 731 369 b 438 83 731 213 640 83 b 319 101 394 83 354 89 l 275 -83 l 247 -83 l 293 111 b 103 525 168 167 103 306 l 103 557 b 438 1000 103 849 219 1000 b 504 994 461 1000 483 999 l 546 1167 l 574 1167 m 131 525 b 300 139 131 319 192 192 l 499 968 b 440 972 481 971 461 972 l 436 972 b 131 557 243 972 131 838 l 131 525 "},"Ø":{"ha":869,"x_min":0,"x_max":0,"o":"m 707 956 b 785 569 758 872 785 746 l 785 514 b 438 -8 785 139 667 -8 b 185 103 326 -8 243 25 l 122 0 l 90 0 l 168 126 b 90 514 117 211 90 338 l 90 569 b 438 1092 90 944 208 1092 b 690 981 547 1092 632 1057 l 753 1083 l 785 1083 m 757 569 b 690 928 757 732 735 849 l 200 129 b 433 19 253 53 332 19 l 442 19 b 757 514 647 19 757 156 l 757 569 m 118 514 b 185 154 118 350 140 233 l 674 954 b 442 1064 621 1031 543 1064 l 433 1064 b 118 569 228 1064 118 928 l 118 514 "},"¡":{"ha":250,"x_min":0,"x_max":0,"o":"m 111 -278 l 115 493 l 135 493 l 139 -278 m 97 736 l 153 736 l 153 681 l 97 681 "},"":{"ha":250,"x_min":0,"x_max":0,"o":"m 111 0 l 115 840 l 135 840 l 139 0 m 97 1083 l 153 1083 l 153 1028 l 97 1028 "},"‽":{"ha":611,"x_min":0,"x_max":0,"o":"m 296 243 l 292 1064 b 74 694 136 1054 74 922 l 46 694 l 46 704 b 310 1092 46 944 126 1092 b 560 808 494 1092 560 942 b 315 243 560 575 322 517 m 532 799 b 319 1064 532 925 481 1058 l 315 365 b 532 799 368 549 532 625 m 333 0 l 278 0 l 278 56 l 333 56 "},"":{"ha":611,"x_min":0,"x_max":0,"o":"m 315 493 l 319 -258 b 538 83 476 -251 538 -125 l 565 83 l 565 74 b 306 -286 565 -147 489 -286 b 51 -49 121 -286 51 -160 b 296 493 51 196 289 206 m 79 -42 b 292 -258 79 -143 133 -251 l 294 365 b 79 -42 243 182 79 143 m 278 736 l 333 736 l 333 681 l 278 681 "},"":{"ha":611,"x_min":0,"x_max":0,"o":"m 315 840 l 319 19 b 538 389 474 29 538 161 l 565 389 l 565 379 b 301 -8 565 139 485 -8 b 51 275 117 -8 51 142 b 296 840 51 508 289 567 m 79 285 b 292 19 79 158 129 24 l 294 717 b 79 285 243 533 79 458 m 278 1083 l 333 1083 l 333 1028 l 278 1028 "},"ß":{"ha":764,"x_min":0,"x_max":0,"o":"m 361 1092 b 139 847 201 1092 139 993 l 139 0 l 111 0 l 111 853 b 361 1119 111 1003 181 1119 b 611 853 542 1119 611 1003 l 611 844 b 393 556 611 722 556 650 l 465 508 b 708 226 624 404 708 350 l 708 218 b 486 -8 708 108 653 -8 b 264 217 319 -8 264 108 l 264 222 l 292 222 b 486 19 292 118 339 19 b 681 222 633 19 681 118 b 438 494 681 347 579 401 l 360 546 l 360 567 b 583 847 515 653 583 719 b 361 1092 583 993 521 1092 "},"±":{"ha":833,"x_min":0,"x_max":0,"o":"m 431 889 l 431 667 l 764 667 l 764 639 l 431 639 l 431 417 l 403 417 l 403 639 l 69 639 l 69 667 l 403 667 l 403 889 m 69 278 l 764 278 l 764 250 l 69 250 "},"^":{"ha":833,"x_min":0,"x_max":0,"o":"m 772 389 l 742 389 l 417 1056 l 92 389 l 61 389 l 403 1083 l 431 1083 "},"":{"ha":250,"x_min":0,"x_max":0,"o":"m 153 514 l 97 514 l 97 569 l 153 569 "},"":{"ha":444,"x_min":0,"x_max":0,"o":"m 69 556 l 375 556 l 375 528 l 69 528 "},"":{"ha":463,"x_min":0,"x_max":0,"o":"m 69 556 l 393 556 l 393 528 l 69 528 "},"":{"ha":694,"x_min":0,"x_max":0,"o":"m 69 556 l 625 556 l 625 528 l 69 528 "},"":{"ha":1042,"x_min":0,"x_max":0,"o":"m 69 556 l 972 556 l 972 528 l 69 528 "},"":{"ha":1389,"x_min":0,"x_max":0,"o":"m 69 556 l 1319 556 l 1319 528 l 69 528 "},"":{"ha":833,"x_min":0,"x_max":0,"o":"m 69 556 l 764 556 l 764 528 l 69 528 "},"":{"ha":1667,"x_min":0,"x_max":0,"o":"m 69 556 l 1597 556 l 1597 528 l 69 528 "},"ö":{"ha":731,"x_min":0,"x_max":0,"o":"m 365 -8 b 76 354 179 -8 76 129 l 76 382 b 365 744 76 607 179 744 b 654 382 551 744 654 607 l 654 354 b 365 -8 654 129 551 -8 m 365 19 b 626 354 535 19 626 149 l 626 382 b 365 717 626 588 535 717 b 104 382 196 717 104 588 l 104 354 b 365 19 104 149 196 19 m 296 944 l 240 944 l 240 1000 l 296 1000 m 490 944 l 435 944 l 435 1000 l 490 1000 "},"ő":{"ha":731,"x_min":0,"x_max":0,"o":"m 365 -8 b 76 354 179 -8 76 129 l 76 382 b 365 744 76 607 179 744 b 654 382 551 744 654 607 l 654 354 b 365 -8 654 129 551 -8 m 365 19 b 626 354 535 19 626 149 l 626 382 b 365 717 626 588 535 717 b 104 382 196 717 104 588 l 104 354 b 365 19 104 149 196 19 m 575 1083 l 450 861 l 419 861 l 544 1083 m 436 1083 l 311 861 l 281 861 l 406 1083 "},"ô":{"ha":731,"x_min":0,"x_max":0,"o":"m 365 -8 b 76 354 179 -8 76 129 l 76 382 b 365 744 76 607 179 744 b 654 382 551 744 654 607 l 654 354 b 365 -8 654 129 551 -8 m 365 19 b 626 354 535 19 626 149 l 626 382 b 365 717 626 588 535 717 b 104 382 196 717 104 588 l 104 354 b 365 19 104 149 196 19 m 178 861 l 351 1083 l 379 1083 l 553 861 l 518 861 l 365 1058 l 213 861 "},"ó":{"ha":731,"x_min":0,"x_max":0,"o":"m 365 -8 b 76 354 179 -8 76 129 l 76 382 b 365 744 76 607 179 744 b 654 382 551 744 654 607 l 654 354 b 365 -8 654 129 551 -8 m 365 19 b 626 354 535 19 626 149 l 626 382 b 365 717 626 588 535 717 b 104 382 196 717 104 588 l 104 354 b 365 19 104 149 196 19 m 506 1083 l 381 861 l 350 861 l 475 1083 "},"ŏ":{"ha":731,"x_min":0,"x_max":0,"o":"m 365 -8 b 76 354 179 -8 76 129 l 76 382 b 365 744 76 607 179 744 b 654 382 551 744 654 607 l 654 354 b 365 -8 654 129 551 -8 m 365 19 b 626 354 535 19 626 149 l 626 382 b 365 717 626 588 535 717 b 104 382 196 717 104 588 l 104 354 b 365 19 104 149 196 19 m 365 853 b 157 1083 226 853 157 958 l 182 1083 b 365 878 182 972 239 878 b 549 1083 492 878 549 972 l 574 1083 b 365 853 574 958 504 853 "},"ō":{"ha":731,"x_min":0,"x_max":0,"o":"m 365 -8 b 76 354 179 -8 76 129 l 76 382 b 365 744 76 607 179 744 b 654 382 551 744 654 607 l 654 354 b 365 -8 654 129 551 -8 m 365 19 b 626 354 535 19 626 149 l 626 382 b 365 717 626 588 535 717 b 104 382 196 717 104 588 l 104 354 b 365 19 104 149 196 19 m 226 986 l 504 986 l 504 958 l 226 958 "},"å":{"ha":667,"x_min":0,"x_max":0,"o":"m 65 188 b 292 400 65 354 185 385 l 542 440 l 542 486 b 333 717 542 611 514 717 b 125 486 153 717 125 611 l 97 486 l 97 501 b 333 744 97 625 142 744 b 569 501 525 744 569 625 l 569 167 l 576 0 l 556 0 l 544 117 b 271 -8 507 64 429 -8 b 65 174 153 -8 65 56 m 272 19 b 542 164 447 19 515 115 l 542 414 l 282 372 b 93 189 179 354 93 324 l 93 174 b 272 19 93 93 151 19 m 214 972 b 333 1092 214 1038 268 1092 b 453 972 399 1092 453 1038 b 333 853 453 907 399 853 b 214 972 268 853 214 907 m 239 972 b 333 878 239 919 281 878 b 428 972 386 878 428 919 b 333 1067 428 1025 386 1067 b 239 972 281 1067 239 1025 "},"ò":{"ha":731,"x_min":0,"x_max":0,"o":"m 365 -8 b 76 354 179 -8 76 129 l 76 382 b 365 744 76 607 179 744 b 654 382 551 744 654 607 l 654 354 b 365 -8 654 129 551 -8 m 365 19 b 626 354 535 19 626 149 l 626 382 b 365 717 626 588 535 717 b 104 382 196 717 104 588 l 104 354 b 365 19 104 149 196 19 m 256 1083 l 381 861 l 350 861 l 225 1083 "},"õ":{"ha":731,"x_min":0,"x_max":0,"o":"m 365 -8 b 76 354 179 -8 76 129 l 76 382 b 365 744 76 607 179 744 b 654 382 551 744 654 607 l 654 354 b 365 -8 654 129 551 -8 m 365 19 b 626 354 535 19 626 149 l 626 382 b 365 717 626 588 535 717 b 104 382 196 717 104 588 l 104 354 b 365 19 104 149 196 19 m 553 1017 b 469 919 553 942 511 919 b 265 1000 394 919 331 1000 b 203 928 233 1000 203 990 l 178 928 b 261 1025 178 1003 219 1025 b 465 944 336 1025 400 944 b 528 1017 497 944 528 954 "},"ı":{"ha":250,"x_min":0,"x_max":0,"o":"m 111 736 l 139 736 l 139 0 l 111 0 "},"ȷ":{"ha":250,"x_min":0,"x_max":0,"o":"m 111 736 l 139 736 l 139 -99 b -43 -286 139 -249 54 -286 b -132 -272 -94 -286 -125 -275 l -132 -244 b -49 -258 -121 -250 -83 -258 b 111 -90 46 -258 111 -228 "},"":{"ha":694,"x_min":0,"x_max":0,"o":"m 449 1319 l 363 1167 l 332 1167 l 418 1319 "},"":{"ha":694,"x_min":0,"x_max":0,"o":"m 347 1183 b 503 1319 446 1183 503 1236 l 528 1319 b 347 1158 528 1222 460 1158 b 167 1319 235 1158 167 1222 l 192 1319 b 347 1183 192 1236 249 1183 "},"":{"ha":694,"x_min":0,"x_max":0,"o":"m 194 1167 l 333 1319 l 361 1319 l 500 1167 l 467 1167 l 347 1299 l 228 1167 "},"":{"ha":694,"x_min":0,"x_max":0,"o":"m 319 1211 b 417 1328 319 1289 346 1328 l 417 1303 b 347 1222 367 1303 347 1272 l 375 1222 l 375 1167 l 319 1167 "},"":{"ha":694,"x_min":0,"x_max":0,"o":"m 278 1215 l 222 1215 l 222 1271 l 278 1271 m 472 1215 l 417 1215 l 417 1271 l 472 1271 "},"":{"ha":694,"x_min":0,"x_max":0,"o":"m 375 1215 l 319 1215 l 319 1271 l 375 1271 "},"":{"ha":694,"x_min":0,"x_max":0,"o":"m 276 1319 l 363 1167 l 332 1167 l 246 1319 "},"":{"ha":694,"x_min":0,"x_max":0,"o":"m 518 1319 l 432 1167 l 401 1167 l 488 1319 m 379 1319 l 293 1167 l 263 1167 l 349 1319 "},"":{"ha":694,"x_min":0,"x_max":0,"o":"m 208 1257 l 486 1257 l 486 1229 l 208 1229 "},"":{"ha":694,"x_min":0,"x_max":0,"o":"m 535 1288 b 451 1190 535 1213 493 1190 b 247 1271 376 1190 313 1271 b 185 1199 215 1271 185 1261 l 160 1199 b 243 1296 160 1274 201 1296 b 447 1215 318 1296 382 1215 b 510 1288 479 1215 510 1225 "},"":{"ha":694,"x_min":0,"x_max":0,"o":"m 500 1319 l 361 1167 l 333 1167 l 194 1319 l 228 1319 l 347 1188 l 467 1319 "},"":{"ha":694,"x_min":0,"x_max":0,"o":"m 207 1319 l 293 1167 l 263 1167 l 176 1319 m 346 1319 l 432 1167 l 401 1167 l 315 1319 "},"":{"ha":694,"x_min":0,"x_max":0,"o":"m 228 1208 b 347 1328 228 1274 282 1328 b 467 1208 413 1328 467 1274 b 347 1089 467 1143 413 1089 b 228 1208 282 1089 228 1143 m 253 1208 b 347 1114 253 1156 294 1114 b 442 1208 400 1114 442 1156 b 347 1303 442 1261 400 1303 b 253 1208 294 1303 253 1261 "},"":{"ha":694,"x_min":0,"x_max":0,"o":"m 347 1303 b 192 1167 249 1303 192 1250 l 167 1167 b 347 1328 167 1264 235 1328 b 528 1167 460 1328 528 1264 l 503 1167 b 347 1303 503 1250 446 1303 "},"›":{"ha":417,"x_min":0,"x_max":0,"o":"m 69 703 l 347 486 l 347 458 l 69 242 l 69 276 l 322 472 l 69 668 "},"»":{"ha":694,"x_min":0,"x_max":0,"o":"m 347 703 l 625 486 l 625 458 l 347 242 l 347 276 l 600 472 l 347 668 m 69 703 l 347 486 l 347 458 l 69 242 l 69 276 l 322 472 l 69 668 "},"™":{"ha":639,"x_min":0,"x_max":0,"o":"m 343 1047 l 346 946 l 346 736 l 324 736 l 324 1111 l 343 1111 l 464 767 l 585 1111 l 604 1111 l 604 736 l 582 736 l 582 946 l 585 1047 l 475 736 l 453 736 m 160 736 l 138 736 l 138 1089 l 28 1089 l 28 1111 l 269 1111 l 269 1089 l 160 1089 "},"○":{"ha":1278,"x_min":0,"x_max":0,"o":"m 89 542 b 639 1092 89 846 335 1092 b 1189 542 943 1092 1189 846 b 639 -8 1189 238 943 -8 b 89 542 335 -8 89 238 m 117 542 b 639 19 117 253 350 19 b 1161 542 928 19 1161 253 b 639 1064 1161 831 928 1064 b 117 542 350 1064 117 831 "},"©":{"ha":1250,"x_min":0,"x_max":0,"o":"m 75 542 b 625 1092 75 846 321 1092 b 1175 542 929 1092 1175 846 b 625 -8 1175 238 929 -8 b 75 542 321 -8 75 238 m 103 542 b 625 19 103 253 336 19 b 1147 542 914 19 1147 253 b 625 1064 1147 831 914 1064 b 103 542 336 1064 103 831 m 625 207 b 343 528 440 207 343 340 l 343 556 b 625 876 343 743 440 876 b 875 667 806 876 875 778 l 875 653 l 847 653 b 625 849 847 778 778 849 b 371 556 461 849 371 729 l 371 528 b 625 235 371 354 461 235 b 847 417 778 235 847 319 l 875 417 l 875 403 b 625 207 875 319 806 207 "},"§":{"ha":694,"x_min":0,"x_max":0,"o":"m 69 540 b 247 728 69 636 133 704 b 104 892 135 757 104 813 l 104 900 b 361 1092 104 1014 200 1092 b 618 853 553 1092 618 988 l 618 847 l 590 847 b 361 1064 590 979 538 1064 b 132 896 221 1064 132 1003 b 375 733 132 797 178 751 b 625 546 561 717 625 669 l 625 538 b 447 350 625 442 560 372 b 590 186 558 321 590 265 l 590 178 b 333 -14 590 64 494 -14 b 76 225 142 -14 76 90 l 76 231 l 104 231 b 333 14 104 99 157 14 b 563 182 474 14 563 75 b 319 344 563 281 517 326 b 69 532 133 361 69 408 l 69 540 m 97 536 b 347 367 97 408 178 381 l 361 367 b 597 542 507 367 597 433 b 347 711 597 669 517 697 l 333 711 b 97 536 188 711 97 644 "},"¶":{"ha":694,"x_min":0,"x_max":0,"o":"m 556 1056 l 431 1056 l 431 0 l 403 0 l 403 472 l 376 472 b 69 764 229 472 69 532 l 69 792 b 376 1083 69 1024 229 1083 l 583 1083 l 583 0 l 556 0 m 99 765 b 378 500 99 536 264 500 l 403 500 l 403 1056 l 378 1056 b 99 790 264 1056 99 1019 l 99 765 "},"":{"ha":1250,"x_min":0,"x_max":0,"o":"m 75 542 b 625 1092 75 846 321 1092 b 1175 542 929 1092 1175 846 b 625 -8 1175 238 929 -8 b 75 542 321 -8 75 238 m 103 542 b 625 19 103 253 336 19 b 1147 542 914 19 1147 253 b 625 1064 1147 831 914 1064 b 103 542 336 1064 103 831 m 454 215 l 426 215 l 426 868 l 643 868 b 831 690 731 868 831 831 l 831 671 b 718 503 831 571 779 522 l 831 215 l 800 215 l 690 496 b 643 493 674 493 658 493 l 454 493 m 646 521 b 803 674 710 521 803 547 l 803 688 b 646 840 803 814 710 840 l 454 840 l 454 521 "},"¥":{"ha":833,"x_min":0,"x_max":0,"o":"m 69 653 l 253 653 l 42 1083 l 72 1083 l 417 381 l 761 1083 l 792 1083 l 581 653 l 764 653 l 764 625 l 567 625 l 444 375 l 764 375 l 764 347 l 431 347 l 431 0 l 403 0 l 403 347 l 69 347 l 69 375 l 389 375 l 267 625 l 69 625 "},"®":{"ha":458,"x_min":0,"x_max":0,"o":"m 33 924 b 229 1119 33 1032 121 1119 b 425 924 338 1119 425 1032 b 229 728 425 815 338 728 b 33 924 121 728 33 815 m 56 924 b 229 750 56 828 133 750 b 403 924 325 750 403 828 b 229 1097 403 1019 325 1097 b 56 924 133 1097 56 1019 m 304 967 b 260 906 304 933 288 914 l 304 804 l 281 804 l 236 901 l 176 901 l 176 804 l 154 804 l 154 1043 l 231 1043 b 304 978 275 1043 304 1021 l 304 967 m 283 976 b 226 1021 283 1008 267 1021 l 176 1021 l 176 924 l 226 924 b 283 968 267 924 283 936 l 283 976 "},"□":{"ha":1278,"x_min":0,"x_max":0,"o":"m 97 0 l 97 1083 l 1181 1083 l 1181 0 m 125 1056 l 125 28 l 1153 28 l 1153 1056 "},"←":{"ha":1278,"x_min":0,"x_max":0,"o":"m 671 1083 l 143 556 l 1181 556 l 1181 528 l 143 528 l 671 0 l 631 0 l 89 542 l 631 1083 "},"◄":{"ha":1292,"x_min":0,"x_max":0,"o":"m 1181 1092 l 1181 1061 l 121 542 l 1181 22 l 1181 -8 l 89 528 l 89 556 "},"►":{"ha":1292,"x_min":0,"x_max":0,"o":"m 1203 528 l 111 -8 l 111 22 l 1171 542 l 111 1061 l 111 1092 l 1203 556 "},"▲":{"ha":1292,"x_min":0,"x_max":0,"o":"m 1196 0 l 1165 0 l 646 1060 l 126 0 l 96 0 l 632 1092 l 660 1092 "},"▼":{"ha":1292,"x_min":0,"x_max":0,"o":"m 96 1083 l 126 1083 l 646 24 l 1165 1083 l 1196 1083 l 660 -8 l 632 -8 "},"◤":{"ha":1292,"x_min":0,"x_max":0,"o":"m 121 1093 l 1275 697 l 1254 676 l 132 1063 l 518 -60 l 497 -81 l 101 1074 "},"◥":{"ha":1292,"x_min":0,"x_max":0,"o":"m 794 -81 l 774 -60 l 1160 1063 l 38 676 l 17 697 l 1171 1093 l 1190 1074 "},"◢":{"ha":1292,"x_min":0,"x_max":0,"o":"m 1171 -10 l 17 386 l 38 407 l 1160 21 l 774 1143 l 794 1164 l 1190 10 "},"◣":{"ha":1292,"x_min":0,"x_max":0,"o":"m 101 10 l 497 1164 l 518 1143 l 132 21 l 1254 407 l 1275 386 l 121 -10 "},"→":{"ha":1278,"x_min":0,"x_max":0,"o":"m 607 0 l 1135 528 l 97 528 l 97 556 l 1135 556 l 607 1083 l 647 1083 l 1189 542 l 647 0 "},"↑":{"ha":1278,"x_min":0,"x_max":0,"o":"m 1181 510 l 653 1038 l 653 0 l 625 0 l 625 1038 l 97 510 l 97 550 l 639 1092 l 1181 550 "},"↓":{"ha":1278,"x_min":0,"x_max":0,"o":"m 97 574 l 625 46 l 625 1083 l 653 1083 l 653 46 l 1181 574 l 1181 533 l 639 -8 l 97 533 "},"↖":{"ha":1278,"x_min":0,"x_max":0,"o":"m 97 0 l 97 1083 l 1181 1083 l 1181 1056 l 144 1056 l 1189 11 l 1169 -8 l 125 1036 l 125 0 "},"↗":{"ha":1278,"x_min":0,"x_max":0,"o":"m 97 1083 l 1181 1083 l 1181 0 l 1153 0 l 1153 1036 l 108 -8 l 89 11 l 1133 1056 l 97 1056 "},"↘":{"ha":1278,"x_min":0,"x_max":0,"o":"m 97 28 l 1133 28 l 89 1072 l 108 1092 l 1153 47 l 1153 1083 l 1181 1083 l 1181 0 l 97 0 "},"↙":{"ha":1278,"x_min":0,"x_max":0,"o":"m 1181 0 l 97 0 l 97 1083 l 125 1083 l 125 47 l 1169 1092 l 1189 1072 l 144 28 l 1181 28 "},"●":{"ha":1278,"x_min":0,"x_max":0,"o":"m 89 542 b 639 1092 89 846 335 1092 b 1189 542 943 1092 1189 846 b 639 -8 1189 238 943 -8 b 89 542 335 -8 89 238 "},"■":{"ha":1278,"x_min":0,"x_max":0,"o":"m 97 0 l 97 1083 l 1181 1083 l 1181 0 "},"⊠":{"ha":1278,"x_min":0,"x_max":0,"o":"m 97 0 l 97 1083 l 1181 1083 l 1181 0 m 125 1056 l 125 28 l 1153 28 l 1153 1056 m 306 896 l 639 563 l 972 896 l 993 875 l 660 542 l 993 208 l 972 188 l 639 521 l 306 188 l 285 208 l 618 542 l 285 875 "},"▫":{"ha":944,"x_min":0,"x_max":0,"o":"m 97 0 l 97 736 l 833 736 l 833 0 m 125 708 l 125 28 l 806 28 l 806 708 "},"☒":{"ha":944,"x_min":0,"x_max":0,"o":"m 97 0 l 97 736 l 833 736 l 833 0 m 125 708 l 125 28 l 806 28 l 806 708 m 271 583 l 465 389 l 660 583 l 681 563 l 486 368 l 681 174 l 660 153 l 465 347 l 271 153 l 250 174 l 444 368 l 250 563 "},"▪":{"ha":944,"x_min":0,"x_max":0,"o":"m 97 0 l 97 736 l 833 736 l 833 0 "},"‰":{"ha":1750,"x_min":0,"x_max":0,"o":"m 821 1046 b 611 1014 821 1046 722 1014 b 431 1032 542 1014 482 1021 b 486 868 465 993 486 938 l 486 854 b 281 631 486 714 404 631 b 75 854 157 631 75 714 l 75 868 b 281 1092 75 1008 157 1092 b 358 1079 308 1092 335 1088 b 611 1042 443 1051 532 1042 b 857 1083 708 1042 814 1068 l 857 1063 l 415 0 l 385 0 m 1175 215 b 969 -8 1175 75 1093 -8 b 764 215 846 -8 764 75 l 764 229 b 969 453 764 369 846 453 b 1175 229 1093 453 1175 369 m 1675 215 b 1469 -8 1675 75 1593 -8 b 1264 215 1346 -8 1264 75 l 1264 229 b 1469 453 1264 369 1346 453 b 1675 229 1593 453 1675 369 m 792 211 b 965 19 792 103 858 19 l 974 19 b 1147 211 1081 19 1147 103 l 1147 233 b 974 425 1147 342 1081 425 l 965 425 b 792 233 858 425 792 342 m 1292 211 b 1465 19 1292 103 1358 19 l 1474 19 b 1647 211 1581 19 1647 103 l 1647 233 b 1474 425 1647 342 1581 425 l 1465 425 b 1292 233 1358 425 1292 342 m 458 872 b 285 1064 458 981 392 1064 l 276 1064 b 103 872 169 1064 103 981 l 103 850 b 276 658 103 742 169 658 l 285 658 b 458 850 392 658 458 742 "},"%":{"ha":1250,"x_min":0,"x_max":0,"o":"m 1175 215 b 969 -8 1175 75 1093 -8 b 764 215 846 -8 764 75 l 764 229 b 969 453 764 369 846 453 b 1175 229 1093 453 1175 369 m 792 211 b 965 19 792 103 858 19 l 974 19 b 1147 211 1081 19 1147 103 l 1147 233 b 974 425 1147 342 1081 425 l 965 425 b 792 233 858 425 792 342 m 458 872 b 285 1064 458 981 392 1064 l 276 1064 b 103 872 169 1064 103 981 l 103 850 b 276 658 103 742 169 658 l 285 658 b 458 850 392 658 458 742 m 821 1046 b 611 1014 821 1046 722 1014 b 431 1032 542 1014 482 1021 b 486 868 465 993 486 938 l 486 854 b 281 631 486 714 404 631 b 75 854 157 631 75 714 l 75 868 b 281 1092 75 1008 157 1092 b 358 1079 308 1092 335 1088 b 611 1042 443 1051 532 1042 b 857 1083 708 1042 814 1068 l 857 1063 l 415 0 l 385 0 "},"⚪":{"ha":931,"x_min":0,"x_max":0,"o":"m 89 368 b 465 744 89 576 257 744 b 842 368 674 744 842 576 b 465 -8 842 160 674 -8 b 89 368 257 -8 89 160 m 117 368 b 465 19 117 175 272 19 b 814 368 658 19 814 175 b 465 717 814 561 658 717 b 117 368 272 717 117 561 "},"⚫":{"ha":931,"x_min":0,"x_max":0,"o":"m 89 368 b 465 744 89 576 257 744 b 842 368 674 744 842 576 b 465 -8 842 160 674 -8 b 89 368 257 -8 89 160 "},"℠":{"ha":639,"x_min":0,"x_max":0,"o":"m 343 1047 l 346 946 l 346 736 l 324 736 l 324 1111 l 343 1111 l 464 767 l 585 1111 l 604 1111 l 604 736 l 582 736 l 582 946 l 585 1047 l 475 736 l 453 736 m 136 921 b 28 1014 54 932 28 969 l 28 1019 b 142 1117 28 1081 75 1117 b 258 993 222 1117 258 1079 l 258 986 l 236 986 b 144 1094 236 1069 213 1094 l 139 1094 b 50 1022 88 1094 50 1068 l 50 1017 b 149 939 50 974 72 950 b 261 839 231 926 261 893 l 261 833 b 139 731 261 769 210 731 b 25 851 63 731 25 778 l 25 856 l 47 856 b 136 753 47 779 83 753 l 142 753 b 239 832 203 753 239 782 l 239 836 b 136 921 239 888 206 911 "},"À":{"ha":819,"x_min":0,"x_max":0,"o":"m 424 1097 l 771 0 l 742 0 l 642 319 l 178 319 l 78 0 l 49 0 l 396 1097 m 188 347 l 632 347 l 410 1056 m 339 1319 l 425 1167 l 394 1167 l 308 1319 "},"Á":{"ha":819,"x_min":0,"x_max":0,"o":"m 424 1097 l 771 0 l 742 0 l 642 319 l 178 319 l 78 0 l 49 0 l 396 1097 m 188 347 l 632 347 l 410 1056 m 511 1319 l 425 1167 l 394 1167 l 481 1319 "},"Â":{"ha":819,"x_min":0,"x_max":0,"o":"m 424 1097 l 771 0 l 742 0 l 642 319 l 178 319 l 78 0 l 49 0 l 396 1097 m 188 347 l 632 347 l 410 1056 m 257 1167 l 396 1319 l 424 1319 l 563 1167 l 529 1167 l 410 1299 l 290 1167 "},"Ã":{"ha":819,"x_min":0,"x_max":0,"o":"m 424 1097 l 771 0 l 742 0 l 642 319 l 178 319 l 78 0 l 49 0 l 396 1097 m 188 347 l 632 347 l 410 1056 m 597 1288 b 514 1190 597 1213 556 1190 b 310 1271 439 1190 375 1271 b 247 1199 278 1271 247 1261 l 222 1199 b 306 1296 222 1274 264 1296 b 510 1215 381 1296 444 1215 b 572 1288 542 1215 572 1225 "},"Ā":{"ha":819,"x_min":0,"x_max":0,"o":"m 424 1097 l 771 0 l 742 0 l 642 319 l 178 319 l 78 0 l 49 0 l 396 1097 m 188 347 l 632 347 l 410 1056 m 271 1257 l 549 1257 l 549 1229 l 271 1229 "},"Ă":{"ha":819,"x_min":0,"x_max":0,"o":"m 424 1097 l 771 0 l 742 0 l 642 319 l 178 319 l 78 0 l 49 0 l 396 1097 m 188 347 l 632 347 l 410 1056 m 410 1183 b 565 1319 508 1183 565 1236 l 590 1319 b 410 1158 590 1222 522 1158 b 229 1319 297 1158 229 1222 l 254 1319 b 410 1183 254 1236 311 1183 "},"Ä":{"ha":819,"x_min":0,"x_max":0,"o":"m 424 1097 l 771 0 l 742 0 l 642 319 l 178 319 l 78 0 l 49 0 l 396 1097 m 188 347 l 632 347 l 410 1056 m 340 1215 l 285 1215 l 285 1271 l 340 1271 m 535 1215 l 479 1215 l 479 1271 l 535 1271 "},"Å":{"ha":819,"x_min":0,"x_max":0,"o":"m 290 1208 b 410 1328 290 1274 344 1328 b 529 1208 475 1328 529 1274 b 425 1089 529 1149 483 1097 l 771 0 l 742 0 l 642 319 l 178 319 l 78 0 l 49 0 l 393 1089 b 290 1208 335 1097 290 1149 m 188 347 l 632 347 l 410 1056 m 315 1208 b 410 1114 315 1156 357 1114 b 504 1208 463 1114 504 1156 b 410 1303 504 1261 463 1303 b 315 1208 357 1303 315 1261 "},"Ą":{"ha":819,"x_min":0,"x_max":0,"o":"m 833 -261 b 724 -286 808 -274 778 -286 b 597 -160 658 -286 597 -250 b 738 13 597 -60 665 -15 l 642 319 l 178 319 l 78 0 l 49 0 l 396 1097 l 424 1097 l 771 0 b 622 -160 706 -21 622 -62 b 724 -261 622 -236 671 -261 b 825 -239 771 -261 804 -249 m 188 347 l 632 347 l 410 1056 "},"Ḃ":{"ha":767,"x_min":0,"x_max":0,"o":"m 360 1083 b 658 822 507 1083 658 1040 l 658 800 b 471 554 658 636 572 575 b 686 297 583 538 686 475 l 686 269 b 388 0 686 51 535 0 l 111 0 l 111 1083 m 139 539 l 139 28 l 385 28 b 657 271 499 28 657 56 l 657 296 b 385 539 657 511 499 539 m 139 1056 l 139 567 l 357 567 b 629 801 471 567 629 586 l 629 821 b 357 1056 629 1036 471 1056 m 389 1215 l 333 1215 l 333 1271 l 389 1271 "},"Ć":{"ha":824,"x_min":0,"x_max":0,"o":"m 90 569 b 438 1092 90 944 208 1092 b 743 722 647 1092 743 983 l 743 694 l 715 694 b 442 1064 715 969 632 1064 l 433 1064 b 118 569 228 1064 118 928 l 118 514 b 433 19 118 156 228 19 l 442 19 b 715 347 615 19 715 117 l 743 347 l 743 328 b 438 -8 743 126 651 -8 b 90 514 208 -8 90 139 l 90 569 m 539 1319 l 453 1167 l 422 1167 l 508 1319 "},"Ĉ":{"ha":824,"x_min":0,"x_max":0,"o":"m 90 569 b 438 1092 90 944 208 1092 b 743 722 647 1092 743 983 l 743 694 l 715 694 b 442 1064 715 969 632 1064 l 433 1064 b 118 569 228 1064 118 928 l 118 514 b 433 19 118 156 228 19 l 442 19 b 715 347 615 19 715 117 l 743 347 l 743 328 b 438 -8 743 126 651 -8 b 90 514 208 -8 90 139 l 90 569 m 285 1167 l 424 1319 l 451 1319 l 590 1167 l 557 1167 l 438 1299 l 318 1167 "},"Č":{"ha":824,"x_min":0,"x_max":0,"o":"m 90 569 b 438 1092 90 944 208 1092 b 743 722 647 1092 743 983 l 743 694 l 715 694 b 442 1064 715 969 632 1064 l 433 1064 b 118 569 228 1064 118 928 l 118 514 b 433 19 118 156 228 19 l 442 19 b 715 347 615 19 715 117 l 743 347 l 743 328 b 438 -8 743 126 651 -8 b 90 514 208 -8 90 139 l 90 569 m 590 1319 l 451 1167 l 424 1167 l 285 1319 l 318 1319 l 438 1188 l 557 1319 "},"Ċ":{"ha":824,"x_min":0,"x_max":0,"o":"m 90 569 b 438 1092 90 944 208 1092 b 743 722 647 1092 743 983 l 743 694 l 715 694 b 442 1064 715 969 632 1064 l 433 1064 b 118 569 228 1064 118 928 l 118 514 b 433 19 118 156 228 19 l 442 19 b 715 347 615 19 715 117 l 743 347 l 743 328 b 438 -8 743 126 651 -8 b 90 514 208 -8 90 139 l 90 569 m 465 1215 l 410 1215 l 410 1271 l 465 1271 "},"Ç":{"ha":824,"x_min":0,"x_max":0,"o":"m 336 -239 b 438 -261 358 -251 404 -261 b 539 -187 490 -261 539 -254 b 438 -114 539 -121 490 -114 b 403 -117 418 -114 403 -117 l 388 -101 l 421 -8 b 90 514 203 -1 90 147 l 90 569 b 438 1092 90 944 208 1092 b 743 722 647 1092 743 983 l 743 694 l 715 694 b 442 1064 715 969 632 1064 l 433 1064 b 118 569 228 1064 118 928 l 118 514 b 433 19 118 156 228 19 l 442 19 b 715 347 615 19 715 117 l 743 347 l 743 328 b 449 -8 743 129 654 -3 l 419 -90 b 444 -89 426 -89 435 -89 b 564 -187 500 -89 564 -108 b 438 -286 564 -267 503 -286 b 328 -261 400 -286 358 -276 "},"Ď":{"ha":854,"x_min":0,"x_max":0,"o":"m 771 514 b 375 0 771 132 604 0 l 111 0 l 111 1083 l 375 1083 b 771 569 604 1083 771 951 l 771 514 m 368 28 b 743 514 590 28 743 153 l 743 569 b 368 1056 743 931 590 1056 l 139 1056 l 139 28 m 528 1319 l 389 1167 l 361 1167 l 222 1319 l 256 1319 l 375 1188 l 494 1319 "},"Ḋ":{"ha":854,"x_min":0,"x_max":0,"o":"m 771 514 b 375 0 771 132 604 0 l 111 0 l 111 1083 l 375 1083 b 771 569 604 1083 771 951 l 771 514 m 368 28 b 743 514 590 28 743 153 l 743 569 b 368 1056 743 931 590 1056 l 139 1056 l 139 28 m 403 1215 l 347 1215 l 347 1271 l 403 1271 "},"Ḟ":{"ha":672,"x_min":0,"x_max":0,"o":"m 653 1083 l 653 1056 l 139 1056 l 139 567 l 583 567 l 583 539 l 139 539 l 139 0 l 111 0 l 111 1083 m 410 1215 l 354 1215 l 354 1271 l 410 1271 "},"Ĝ":{"ha":868,"x_min":0,"x_max":0,"o":"m 467 -8 b 90 514 221 -8 90 136 l 90 569 b 451 1092 90 947 222 1092 b 764 726 681 1092 764 949 l 764 694 l 736 694 b 456 1064 736 953 654 1064 l 447 1064 b 118 569 244 1064 118 931 l 118 514 b 463 19 118 153 243 19 l 471 19 b 736 122 606 19 694 69 l 736 475 l 515 475 l 515 503 l 764 503 l 764 110 b 467 -8 719 53 628 -8 m 299 1167 l 438 1319 l 465 1319 l 604 1167 l 571 1167 l 451 1299 l 332 1167 "},"Ğ":{"ha":868,"x_min":0,"x_max":0,"o":"m 467 -8 b 90 514 221 -8 90 136 l 90 569 b 451 1092 90 947 222 1092 b 764 726 681 1092 764 949 l 764 694 l 736 694 b 456 1064 736 953 654 1064 l 447 1064 b 118 569 244 1064 118 931 l 118 514 b 463 19 118 153 243 19 l 471 19 b 736 122 606 19 694 69 l 736 475 l 515 475 l 515 503 l 764 503 l 764 110 b 467 -8 719 53 628 -8 m 451 1183 b 607 1319 550 1183 607 1236 l 632 1319 b 451 1158 632 1222 564 1158 b 271 1319 339 1158 271 1222 l 296 1319 b 451 1183 296 1236 353 1183 "},"Ġ":{"ha":868,"x_min":0,"x_max":0,"o":"m 467 -8 b 90 514 221 -8 90 136 l 90 569 b 451 1092 90 947 222 1092 b 764 726 681 1092 764 949 l 764 694 l 736 694 b 456 1064 736 953 654 1064 l 447 1064 b 118 569 244 1064 118 931 l 118 514 b 463 19 118 153 243 19 l 471 19 b 736 122 606 19 694 69 l 736 475 l 515 475 l 515 503 l 764 503 l 764 110 b 467 -8 719 53 628 -8 m 479 1215 l 424 1215 l 424 1271 l 479 1271 "},"Ģ":{"ha":868,"x_min":0,"x_max":0,"o":"m 467 -8 b 90 514 221 -8 90 136 l 90 569 b 451 1092 90 947 222 1092 b 764 726 681 1092 764 949 l 764 694 l 736 694 b 456 1064 736 953 654 1064 l 447 1064 b 118 569 244 1064 118 931 l 118 514 b 463 19 118 153 243 19 l 471 19 b 736 122 606 19 694 69 l 736 475 l 515 475 l 515 503 l 764 503 l 764 110 b 467 -8 719 53 628 -8 m 494 -142 b 390 -286 494 -247 461 -286 l 390 -261 b 467 -153 440 -261 465 -244 l 439 -153 l 439 -97 l 494 -97 "},"Ĥ":{"ha":861,"x_min":0,"x_max":0,"o":"m 750 1083 l 750 0 l 722 0 l 722 539 l 139 539 l 139 0 l 111 0 l 111 1083 l 139 1083 l 139 567 l 722 567 l 722 1083 m 278 1167 l 417 1319 l 444 1319 l 583 1167 l 550 1167 l 431 1299 l 311 1167 "},"Ħ":{"ha":861,"x_min":0,"x_max":0,"o":"m 750 1083 l 750 0 l 722 0 l 722 539 l 139 539 l 139 0 l 111 0 l 111 1083 l 139 1083 l 139 839 l 722 839 l 722 1083 m 722 567 l 722 811 l 139 811 l 139 567 "},"Ì":{"ha":264,"x_min":0,"x_max":0,"o":"m 146 0 l 118 0 l 118 1083 l 146 1083 m 61 1319 l 147 1167 l 117 1167 l 31 1319 "},"Í":{"ha":264,"x_min":0,"x_max":0,"o":"m 146 0 l 118 0 l 118 1083 l 146 1083 m 233 1319 l 147 1167 l 117 1167 l 203 1319 "},"Î":{"ha":264,"x_min":0,"x_max":0,"o":"m 146 0 l 118 0 l 118 1083 l 146 1083 m -21 1167 l 118 1319 l 146 1319 l 285 1167 l 251 1167 l 132 1299 l 13 1167 "},"Ï":{"ha":264,"x_min":0,"x_max":0,"o":"m 146 0 l 118 0 l 118 1083 l 146 1083 m 257 1215 l 201 1215 l 201 1271 l 257 1271 m 63 1215 l 7 1215 l 7 1271 l 63 1271 "},"Ĩ":{"ha":264,"x_min":0,"x_max":0,"o":"m 146 0 l 118 0 l 118 1083 l 146 1083 m 319 1288 b 236 1190 319 1213 278 1190 b 32 1271 161 1190 97 1271 b -31 1199 0 1271 -31 1261 l -56 1199 b 28 1296 -56 1274 -14 1296 b 232 1215 103 1296 167 1215 b 294 1288 264 1215 294 1225 "},"Ī":{"ha":264,"x_min":0,"x_max":0,"o":"m 146 0 l 118 0 l 118 1083 l 146 1083 m -7 1257 l 271 1257 l 271 1229 l -7 1229 "},"Ĭ":{"ha":264,"x_min":0,"x_max":0,"o":"m 146 0 l 118 0 l 118 1083 l 146 1083 m 132 1183 b 288 1319 231 1183 288 1236 l 313 1319 b 132 1158 313 1222 244 1158 b -49 1319 19 1158 -49 1222 l -24 1319 b 132 1183 -24 1236 33 1183 "},"İ":{"ha":264,"x_min":0,"x_max":0,"o":"m 146 0 l 118 0 l 118 1083 l 146 1083 m 160 1215 l 104 1215 l 104 1271 l 160 1271 "},"Į":{"ha":264,"x_min":0,"x_max":0,"o":"m 208 -261 b 99 -286 183 -274 153 -286 b -28 -160 33 -286 -28 -250 b 118 15 -28 -57 43 -12 l 118 1083 l 146 1083 l 146 0 b -3 -160 81 -21 -3 -62 b 99 -261 -3 -236 46 -261 b 200 -239 146 -261 179 -249 "},"Ĵ":{"ha":653,"x_min":0,"x_max":0,"o":"m 546 1083 l 546 333 b 296 -8 546 125 481 -8 b 46 333 113 -8 46 125 l 46 343 l 74 343 b 296 19 74 139 128 19 b 518 343 465 19 518 139 l 518 1083 m 379 1167 l 518 1319 l 546 1319 l 685 1167 l 651 1167 l 532 1299 l 413 1167 "},"Ķ":{"ha":719,"x_min":0,"x_max":0,"o":"m 139 388 l 633 1083 l 667 1083 l 332 613 l 667 0 l 633 0 l 315 589 l 139 342 l 139 0 l 111 0 l 111 1083 l 139 1083 m 389 -142 b 285 -286 389 -247 356 -286 l 285 -261 b 361 -153 335 -261 360 -244 l 333 -153 l 333 -97 l 389 -97 "},"Ĺ":{"ha":644,"x_min":0,"x_max":0,"o":"m 111 0 l 111 1083 l 139 1083 l 139 28 l 625 28 l 625 0 m 226 1319 l 140 1167 l 110 1167 l 196 1319 "},"Ļ":{"ha":644,"x_min":0,"x_max":0,"o":"m 111 0 l 111 1083 l 139 1083 l 139 28 l 625 28 l 625 0 m 396 -142 b 292 -286 396 -247 363 -286 l 292 -261 b 368 -153 342 -261 367 -244 l 340 -153 l 340 -97 l 396 -97 "},"Ŀ":{"ha":644,"x_min":0,"x_max":0,"o":"m 111 0 l 111 1083 l 139 1083 l 139 28 l 625 28 l 625 0 m 419 581 l 475 581 l 475 525 l 419 525 "},"Ṁ":{"ha":1051,"x_min":0,"x_max":0,"o":"m 915 1083 l 944 1083 l 944 0 l 917 0 l 917 779 l 921 1019 l 542 0 l 514 0 l 135 1019 l 139 779 l 139 0 l 111 0 l 111 1083 l 140 1083 l 528 39 m 556 1215 l 500 1215 l 500 1271 l 556 1271 "},"Ń":{"ha":889,"x_min":0,"x_max":0,"o":"m 750 250 l 750 1083 l 778 1083 l 778 0 l 743 0 l 138 1043 l 139 833 l 139 0 l 111 0 l 111 1083 l 146 1083 l 751 40 m 546 1319 l 460 1167 l 429 1167 l 515 1319 "},"Ñ":{"ha":889,"x_min":0,"x_max":0,"o":"m 750 250 l 750 1083 l 778 1083 l 778 0 l 743 0 l 138 1043 l 139 833 l 139 0 l 111 0 l 111 1083 l 146 1083 l 751 40 m 632 1288 b 549 1190 632 1213 590 1190 b 344 1271 474 1190 410 1271 b 282 1199 313 1271 282 1261 l 257 1199 b 340 1296 257 1274 299 1296 b 544 1215 415 1296 479 1215 b 607 1288 576 1215 607 1225 "},"Ň":{"ha":889,"x_min":0,"x_max":0,"o":"m 750 250 l 750 1083 l 778 1083 l 778 0 l 743 0 l 138 1043 l 139 833 l 139 0 l 111 0 l 111 1083 l 146 1083 l 751 40 m 597 1319 l 458 1167 l 431 1167 l 292 1319 l 325 1319 l 444 1188 l 564 1319 "},"Ņ":{"ha":889,"x_min":0,"x_max":0,"o":"m 750 250 l 750 1083 l 778 1083 l 778 0 l 743 0 l 138 1043 l 139 833 l 139 0 l 111 0 l 111 1083 l 146 1083 l 751 40 m 472 -142 b 368 -286 472 -247 439 -286 l 368 -261 b 444 -153 418 -261 443 -244 l 417 -153 l 417 -97 l 472 -97 "},"Ò":{"ha":875,"x_min":0,"x_max":0,"o":"m 90 569 b 438 1092 90 944 208 1092 b 785 569 667 1092 785 944 l 785 514 b 438 -8 785 139 667 -8 b 90 514 208 -8 90 139 l 90 569 m 118 514 b 433 19 118 156 228 19 l 442 19 b 757 514 647 19 757 156 l 757 569 b 442 1064 757 928 647 1064 l 433 1064 b 118 569 228 1064 118 928 l 118 514 m 367 1319 l 453 1167 l 422 1167 l 336 1319 "},"Ó":{"ha":875,"x_min":0,"x_max":0,"o":"m 90 569 b 438 1092 90 944 208 1092 b 785 569 667 1092 785 944 l 785 514 b 438 -8 785 139 667 -8 b 90 514 208 -8 90 139 l 90 569 m 118 514 b 433 19 118 156 228 19 l 442 19 b 757 514 647 19 757 156 l 757 569 b 442 1064 757 928 647 1064 l 433 1064 b 118 569 228 1064 118 928 l 118 514 m 539 1319 l 453 1167 l 422 1167 l 508 1319 "},"Ô":{"ha":875,"x_min":0,"x_max":0,"o":"m 90 569 b 438 1092 90 944 208 1092 b 785 569 667 1092 785 944 l 785 514 b 438 -8 785 139 667 -8 b 90 514 208 -8 90 139 l 90 569 m 118 514 b 433 19 118 156 228 19 l 442 19 b 757 514 647 19 757 156 l 757 569 b 442 1064 757 928 647 1064 l 433 1064 b 118 569 228 1064 118 928 l 118 514 m 285 1167 l 424 1319 l 451 1319 l 590 1167 l 557 1167 l 438 1299 l 318 1167 "},"Ö":{"ha":875,"x_min":0,"x_max":0,"o":"m 90 569 b 438 1092 90 944 208 1092 b 785 569 667 1092 785 944 l 785 514 b 438 -8 785 139 667 -8 b 90 514 208 -8 90 139 l 90 569 m 118 514 b 433 19 118 156 228 19 l 442 19 b 757 514 647 19 757 156 l 757 569 b 442 1064 757 928 647 1064 l 433 1064 b 118 569 228 1064 118 928 l 118 514 m 368 1215 l 313 1215 l 313 1271 l 368 1271 m 563 1215 l 507 1215 l 507 1271 l 563 1271 "},"Õ":{"ha":875,"x_min":0,"x_max":0,"o":"m 90 569 b 438 1092 90 944 208 1092 b 785 569 667 1092 785 944 l 785 514 b 438 -8 785 139 667 -8 b 90 514 208 -8 90 139 l 90 569 m 118 514 b 433 19 118 156 228 19 l 442 19 b 757 514 647 19 757 156 l 757 569 b 442 1064 757 928 647 1064 l 433 1064 b 118 569 228 1064 118 928 l 118 514 m 625 1288 b 542 1190 625 1213 583 1190 b 338 1271 467 1190 403 1271 b 275 1199 306 1271 275 1261 l 250 1199 b 333 1296 250 1274 292 1296 b 538 1215 408 1296 472 1215 b 600 1288 569 1215 600 1225 "},"Ō":{"ha":875,"x_min":0,"x_max":0,"o":"m 90 569 b 438 1092 90 944 208 1092 b 785 569 667 1092 785 944 l 785 514 b 438 -8 785 139 667 -8 b 90 514 208 -8 90 139 l 90 569 m 118 514 b 433 19 118 156 228 19 l 442 19 b 757 514 647 19 757 156 l 757 569 b 442 1064 757 928 647 1064 l 433 1064 b 118 569 228 1064 118 928 l 118 514 m 299 1257 l 576 1257 l 576 1229 l 299 1229 "},"Ŏ":{"ha":875,"x_min":0,"x_max":0,"o":"m 90 569 b 438 1092 90 944 208 1092 b 785 569 667 1092 785 944 l 785 514 b 438 -8 785 139 667 -8 b 90 514 208 -8 90 139 l 90 569 m 118 514 b 433 19 118 156 228 19 l 442 19 b 757 514 647 19 757 156 l 757 569 b 442 1064 757 928 647 1064 l 433 1064 b 118 569 228 1064 118 928 l 118 514 m 438 1183 b 593 1319 536 1183 593 1236 l 618 1319 b 438 1158 618 1222 550 1158 b 257 1319 325 1158 257 1222 l 282 1319 b 438 1183 282 1236 339 1183 "},"Ő":{"ha":875,"x_min":0,"x_max":0,"o":"m 90 569 b 438 1092 90 944 208 1092 b 785 569 667 1092 785 944 l 785 514 b 438 -8 785 139 667 -8 b 90 514 208 -8 90 139 l 90 569 m 118 514 b 433 19 118 156 228 19 l 442 19 b 757 514 647 19 757 156 l 757 569 b 442 1064 757 928 647 1064 l 433 1064 b 118 569 228 1064 118 928 l 118 514 m 608 1319 l 522 1167 l 492 1167 l 578 1319 m 469 1319 l 383 1167 l 353 1167 l 439 1319 "},"Ṗ":{"ha":756,"x_min":0,"x_max":0,"o":"m 139 0 l 111 0 l 111 1083 l 379 1083 b 686 792 526 1083 686 1024 l 686 764 b 379 472 686 532 526 472 l 139 472 m 378 500 b 657 765 492 500 657 536 l 657 790 b 378 1056 657 1019 492 1056 l 139 1056 l 139 500 m 410 1215 l 354 1215 l 354 1271 l 410 1271 "},"Ŕ":{"ha":768,"x_min":0,"x_max":0,"o":"m 139 0 l 111 0 l 111 1083 l 379 1083 b 686 792 526 1083 686 1024 l 686 764 b 488 485 686 589 594 511 l 686 0 l 656 0 l 460 479 b 379 472 433 474 406 472 l 139 472 m 378 500 b 657 765 492 500 657 536 l 657 790 b 378 1056 657 1019 492 1056 l 139 1056 l 139 500 m 476 1319 l 390 1167 l 360 1167 l 446 1319 "},"Ř":{"ha":768,"x_min":0,"x_max":0,"o":"m 139 0 l 111 0 l 111 1083 l 379 1083 b 686 792 526 1083 686 1024 l 686 764 b 488 485 686 589 594 511 l 686 0 l 656 0 l 460 479 b 379 472 433 474 406 472 l 139 472 m 378 500 b 657 765 492 500 657 536 l 657 790 b 378 1056 657 1019 492 1056 l 139 1056 l 139 500 m 528 1319 l 389 1167 l 361 1167 l 222 1319 l 256 1319 l 375 1188 l 494 1319 "},"Ŗ":{"ha":768,"x_min":0,"x_max":0,"o":"m 139 0 l 111 0 l 111 1083 l 379 1083 b 686 792 526 1083 686 1024 l 686 764 b 488 485 686 589 594 511 l 686 0 l 656 0 l 460 479 b 379 472 433 474 406 472 l 139 472 m 378 500 b 657 765 492 500 657 536 l 657 790 b 378 1056 657 1019 492 1056 l 139 1056 l 139 500 m 403 -142 b 299 -286 403 -247 369 -286 l 299 -261 b 375 -153 349 -261 374 -244 l 347 -153 l 347 -97 l 403 -97 "},"Ś":{"ha":806,"x_min":0,"x_max":0,"o":"m 397 549 b 76 806 161 578 76 668 l 76 819 b 401 1092 76 989 221 1092 b 729 757 628 1092 729 964 l 729 722 l 701 722 b 407 1064 701 964 603 1064 l 399 1064 b 107 826 242 1064 107 969 l 107 813 b 411 575 107 674 189 601 b 736 293 649 547 736 447 l 736 279 b 403 -8 736 92 590 -8 b 69 333 179 -8 69 131 l 69 347 l 97 347 b 399 19 97 131 207 19 l 407 19 b 708 274 579 19 708 113 l 708 288 b 397 549 708 446 618 521 m 504 1319 l 418 1167 l 388 1167 l 474 1319 "},"Ŝ":{"ha":806,"x_min":0,"x_max":0,"o":"m 397 549 b 76 806 161 578 76 668 l 76 819 b 401 1092 76 989 221 1092 b 729 757 628 1092 729 964 l 729 722 l 701 722 b 407 1064 701 964 603 1064 l 399 1064 b 107 826 242 1064 107 969 l 107 813 b 411 575 107 674 189 601 b 736 293 649 547 736 447 l 736 279 b 403 -8 736 92 590 -8 b 69 333 179 -8 69 131 l 69 347 l 97 347 b 399 19 97 131 207 19 l 407 19 b 708 274 579 19 708 113 l 708 288 b 397 549 708 446 618 521 m 250 1167 l 389 1319 l 417 1319 l 556 1167 l 522 1167 l 403 1299 l 283 1167 "},"Š":{"ha":806,"x_min":0,"x_max":0,"o":"m 397 549 b 76 806 161 578 76 668 l 76 819 b 401 1092 76 989 221 1092 b 729 757 628 1092 729 964 l 729 722 l 701 722 b 407 1064 701 964 603 1064 l 399 1064 b 107 826 242 1064 107 969 l 107 813 b 411 575 107 674 189 601 b 736 293 649 547 736 447 l 736 279 b 403 -8 736 92 590 -8 b 69 333 179 -8 69 131 l 69 347 l 97 347 b 399 19 97 131 207 19 l 407 19 b 708 274 579 19 708 113 l 708 288 b 397 549 708 446 618 521 m 556 1319 l 417 1167 l 389 1167 l 250 1319 l 283 1319 l 403 1188 l 522 1319 "},"Ș":{"ha":806,"x_min":0,"x_max":0,"o":"m 397 549 b 76 806 161 578 76 668 l 76 819 b 401 1092 76 989 221 1092 b 729 757 628 1092 729 964 l 729 722 l 701 722 b 407 1064 701 964 603 1064 l 399 1064 b 107 826 242 1064 107 969 l 107 813 b 411 575 107 674 189 601 b 736 293 649 547 736 447 l 736 279 b 403 -8 736 92 590 -8 b 69 333 179 -8 69 131 l 69 347 l 97 347 b 399 19 97 131 207 19 l 407 19 b 708 274 579 19 708 113 l 708 288 b 397 549 708 446 618 521 m 431 -142 b 326 -286 431 -247 397 -286 l 326 -261 b 403 -153 376 -261 401 -244 l 375 -153 l 375 -97 l 431 -97 "},"Ş":{"ha":806,"x_min":0,"x_max":0,"o":"m 301 -239 b 403 -261 324 -251 369 -261 b 504 -187 456 -261 504 -254 b 403 -114 504 -121 456 -114 b 368 -117 383 -114 368 -117 l 353 -101 l 386 -8 b 69 333 174 -1 69 135 l 69 347 l 97 347 b 399 19 97 131 207 19 l 407 19 b 708 274 579 19 708 113 l 708 288 b 397 549 708 446 618 521 b 76 806 161 578 76 668 l 76 819 b 401 1092 76 989 221 1092 b 729 757 628 1092 729 964 l 729 722 l 701 722 b 407 1064 701 964 603 1064 l 399 1064 b 107 826 242 1064 107 969 l 107 813 b 411 575 107 674 189 601 b 736 293 649 547 736 447 l 736 279 b 414 -8 736 94 596 -4 l 385 -90 b 410 -89 392 -89 400 -89 b 529 -187 465 -89 529 -108 b 403 -286 529 -267 468 -286 b 293 -261 365 -286 324 -276 "},"Ť":{"ha":681,"x_min":0,"x_max":0,"o":"m 354 0 l 326 0 l 326 1056 l 35 1056 l 35 1083 l 646 1083 l 646 1056 l 354 1056 m 493 1319 l 354 1167 l 326 1167 l 188 1319 l 221 1319 l 340 1188 l 460 1319 "},"Ţ":{"ha":681,"x_min":0,"x_max":0,"o":"m 354 0 l 326 0 l 326 1056 l 35 1056 l 35 1083 l 646 1083 l 646 1056 l 354 1056 m 368 -142 b 264 -286 368 -247 335 -286 l 264 -261 b 340 -153 314 -261 339 -244 l 313 -153 l 313 -97 l 368 -97 "},"Ŧ":{"ha":681,"x_min":0,"x_max":0,"o":"m 326 1056 l 35 1056 l 35 1083 l 646 1083 l 646 1056 l 354 1056 l 354 567 l 521 567 l 521 539 l 354 539 l 354 0 l 326 0 l 326 539 l 160 539 l 160 567 l 326 567 "},"Ṫ":{"ha":681,"x_min":0,"x_max":0,"o":"m 354 0 l 326 0 l 326 1056 l 35 1056 l 35 1083 l 646 1083 l 646 1056 l 354 1056 m 368 1215 l 313 1215 l 313 1271 l 368 1271 "},"Ù":{"ha":861,"x_min":0,"x_max":0,"o":"m 431 -8 b 107 338 236 -8 107 69 l 107 1083 l 135 1083 l 135 342 b 431 19 135 90 243 19 b 726 342 618 19 726 90 l 726 1083 l 754 1083 l 754 338 b 431 -8 754 69 625 -8 m 360 1319 l 446 1167 l 415 1167 l 329 1319 "},"Ú":{"ha":861,"x_min":0,"x_max":0,"o":"m 431 -8 b 107 338 236 -8 107 69 l 107 1083 l 135 1083 l 135 342 b 431 19 135 90 243 19 b 726 342 618 19 726 90 l 726 1083 l 754 1083 l 754 338 b 431 -8 754 69 625 -8 m 532 1319 l 446 1167 l 415 1167 l 501 1319 "},"Û":{"ha":861,"x_min":0,"x_max":0,"o":"m 431 -8 b 107 338 236 -8 107 69 l 107 1083 l 135 1083 l 135 342 b 431 19 135 90 243 19 b 726 342 618 19 726 90 l 726 1083 l 754 1083 l 754 338 b 431 -8 754 69 625 -8 m 278 1167 l 417 1319 l 444 1319 l 583 1167 l 550 1167 l 431 1299 l 311 1167 "},"Ü":{"ha":861,"x_min":0,"x_max":0,"o":"m 431 -8 b 107 338 236 -8 107 69 l 107 1083 l 135 1083 l 135 342 b 431 19 135 90 243 19 b 726 342 618 19 726 90 l 726 1083 l 754 1083 l 754 338 b 431 -8 754 69 625 -8 m 556 1215 l 500 1215 l 500 1271 l 556 1271 m 361 1215 l 306 1215 l 306 1271 l 361 1271 "},"Ũ":{"ha":861,"x_min":0,"x_max":0,"o":"m 431 -8 b 107 338 236 -8 107 69 l 107 1083 l 135 1083 l 135 342 b 431 19 135 90 243 19 b 726 342 618 19 726 90 l 726 1083 l 754 1083 l 754 338 b 431 -8 754 69 625 -8 m 618 1288 b 535 1190 618 1213 576 1190 b 331 1271 460 1190 396 1271 b 268 1199 299 1271 268 1261 l 243 1199 b 326 1296 243 1274 285 1296 b 531 1215 401 1296 465 1215 b 593 1288 563 1215 593 1225 "},"Ů":{"ha":861,"x_min":0,"x_max":0,"o":"m 431 -8 b 107 338 236 -8 107 69 l 107 1083 l 135 1083 l 135 342 b 431 19 135 90 243 19 b 726 342 618 19 726 90 l 726 1083 l 754 1083 l 754 338 b 431 -8 754 69 625 -8 m 311 1208 b 431 1328 311 1274 365 1328 b 550 1208 496 1328 550 1274 b 431 1089 550 1143 496 1089 b 311 1208 365 1089 311 1143 m 336 1208 b 431 1114 336 1156 378 1114 b 525 1208 483 1114 525 1156 b 431 1303 525 1261 483 1303 b 336 1208 378 1303 336 1261 "},"Ū":{"ha":861,"x_min":0,"x_max":0,"o":"m 431 -8 b 107 338 236 -8 107 69 l 107 1083 l 135 1083 l 135 342 b 431 19 135 90 243 19 b 726 342 618 19 726 90 l 726 1083 l 754 1083 l 754 338 b 431 -8 754 69 625 -8 m 292 1257 l 569 1257 l 569 1229 l 292 1229 "},"Ŭ":{"ha":861,"x_min":0,"x_max":0,"o":"m 431 -8 b 107 338 236 -8 107 69 l 107 1083 l 135 1083 l 135 342 b 431 19 135 90 243 19 b 726 342 618 19 726 90 l 726 1083 l 754 1083 l 754 338 b 431 -8 754 69 625 -8 m 431 1183 b 586 1319 529 1183 586 1236 l 611 1319 b 431 1158 611 1222 543 1158 b 250 1319 318 1158 250 1222 l 275 1319 b 431 1183 275 1236 332 1183 "},"Ű":{"ha":861,"x_min":0,"x_max":0,"o":"m 431 -8 b 107 338 236 -8 107 69 l 107 1083 l 135 1083 l 135 342 b 431 19 135 90 243 19 b 726 342 618 19 726 90 l 726 1083 l 754 1083 l 754 338 b 431 -8 754 69 625 -8 m 463 1319 l 376 1167 l 346 1167 l 432 1319 m 601 1319 l 515 1167 l 485 1167 l 571 1319 "},"Ų":{"ha":861,"x_min":0,"x_max":0,"o":"m 592 -261 b 482 -286 567 -274 536 -286 b 356 -160 417 -286 356 -250 b 449 -8 356 -82 396 -37 l 431 -8 b 107 338 236 -8 107 69 l 107 1083 l 135 1083 l 135 342 b 431 19 135 90 243 19 b 726 342 618 19 726 90 l 726 1083 l 754 1083 l 754 338 b 529 0 754 118 664 25 b 381 -160 468 -11 381 -62 b 482 -261 381 -236 429 -261 b 583 -239 529 -261 563 -249 "},"Ẁ":{"ha":1194,"x_min":0,"x_max":0,"o":"m 893 46 l 1113 1083 l 1142 1083 l 910 0 l 879 0 l 597 1038 l 315 0 l 285 0 l 53 1083 l 82 1083 l 301 46 l 583 1083 l 611 1083 m 526 1319 l 613 1167 l 582 1167 l 496 1319 "},"Ẃ":{"ha":1194,"x_min":0,"x_max":0,"o":"m 893 46 l 1113 1083 l 1142 1083 l 910 0 l 879 0 l 597 1038 l 315 0 l 285 0 l 53 1083 l 82 1083 l 301 46 l 583 1083 l 611 1083 m 699 1319 l 613 1167 l 582 1167 l 668 1319 "},"Ŵ":{"ha":1194,"x_min":0,"x_max":0,"o":"m 893 46 l 1113 1083 l 1142 1083 l 910 0 l 879 0 l 597 1038 l 315 0 l 285 0 l 53 1083 l 82 1083 l 301 46 l 583 1083 l 611 1083 m 444 1167 l 583 1319 l 611 1319 l 750 1167 l 717 1167 l 597 1299 l 478 1167 "},"Ẅ":{"ha":1194,"x_min":0,"x_max":0,"o":"m 893 46 l 1113 1083 l 1142 1083 l 910 0 l 879 0 l 597 1038 l 315 0 l 285 0 l 53 1083 l 82 1083 l 301 46 l 583 1083 l 611 1083 m 722 1215 l 667 1215 l 667 1271 l 722 1271 m 528 1215 l 472 1215 l 472 1271 l 528 1271 "},"Ý":{"ha":750,"x_min":0,"x_max":0,"o":"m 685 1083 l 715 1083 l 382 326 l 382 0 l 354 0 l 354 326 l 21 1083 l 51 1083 l 368 360 m 469 1319 l 383 1167 l 353 1167 l 439 1319 "},"Ŷ":{"ha":750,"x_min":0,"x_max":0,"o":"m 685 1083 l 715 1083 l 382 326 l 382 0 l 354 0 l 354 326 l 21 1083 l 51 1083 l 368 360 m 215 1167 l 354 1319 l 382 1319 l 521 1167 l 488 1167 l 368 1299 l 249 1167 "},"Ÿ":{"ha":750,"x_min":0,"x_max":0,"o":"m 685 1083 l 715 1083 l 382 326 l 382 0 l 354 0 l 354 326 l 21 1083 l 51 1083 l 368 360 m 493 1215 l 438 1215 l 438 1271 l 493 1271 m 299 1215 l 243 1215 l 243 1271 l 299 1271 "},"Ĳ":{"ha":625,"x_min":0,"x_max":0,"o":"m 146 0 l 118 0 l 118 1083 l 146 1083 m 490 1083 l 518 1083 l 518 179 b 336 -8 518 29 433 -8 b 247 6 285 -8 254 3 l 247 33 b 331 19 258 28 296 19 b 490 188 425 19 490 50 "},"Ź":{"ha":764,"x_min":0,"x_max":0,"o":"m 660 1057 l 500 1056 l 69 1056 l 69 1083 l 694 1083 l 694 1063 l 90 26 l 250 28 l 708 28 l 708 0 l 56 0 l 56 21 m 483 1319 l 397 1167 l 367 1167 l 453 1319 "},"Ž":{"ha":764,"x_min":0,"x_max":0,"o":"m 660 1057 l 500 1056 l 69 1056 l 69 1083 l 694 1083 l 694 1063 l 90 26 l 250 28 l 708 28 l 708 0 l 56 0 l 56 21 m 535 1319 l 396 1167 l 368 1167 l 229 1319 l 263 1319 l 382 1188 l 501 1319 "},"Ż":{"ha":764,"x_min":0,"x_max":0,"o":"m 660 1057 l 500 1056 l 69 1056 l 69 1083 l 694 1083 l 694 1063 l 90 26 l 250 28 l 708 28 l 708 0 l 56 0 l 56 21 m 410 1215 l 354 1215 l 354 1271 l 410 1271 "},"Ŋ":{"ha":889,"x_min":0,"x_max":0,"o":"m 750 -12 l 138 1043 l 139 833 l 139 0 l 111 0 l 111 1083 l 146 1083 l 751 40 l 750 250 l 750 1083 l 778 1083 l 778 -99 b 596 -286 778 -249 693 -286 b 507 -272 544 -286 514 -275 l 507 -244 b 590 -258 518 -250 556 -258 b 750 -90 685 -258 750 -228 "},"È":{"ha":750,"x_min":0,"x_max":0,"o":"m 681 1083 l 681 1056 l 139 1056 l 139 567 l 611 567 l 611 539 l 139 539 l 139 28 l 681 28 l 681 0 l 111 0 l 111 1083 m 332 1319 l 418 1167 l 388 1167 l 301 1319 "},"É":{"ha":750,"x_min":0,"x_max":0,"o":"m 681 1083 l 681 1056 l 139 1056 l 139 567 l 611 567 l 611 539 l 139 539 l 139 28 l 681 28 l 681 0 l 111 0 l 111 1083 m 504 1319 l 418 1167 l 388 1167 l 474 1319 "},"Ê":{"ha":750,"x_min":0,"x_max":0,"o":"m 681 1083 l 681 1056 l 139 1056 l 139 567 l 611 567 l 611 539 l 139 539 l 139 28 l 681 28 l 681 0 l 111 0 l 111 1083 m 250 1167 l 389 1319 l 417 1319 l 556 1167 l 522 1167 l 403 1299 l 283 1167 "},"Ē":{"ha":750,"x_min":0,"x_max":0,"o":"m 681 1083 l 681 1056 l 139 1056 l 139 567 l 611 567 l 611 539 l 139 539 l 139 28 l 681 28 l 681 0 l 111 0 l 111 1083 m 264 1257 l 542 1257 l 542 1229 l 264 1229 "},"Ĕ":{"ha":750,"x_min":0,"x_max":0,"o":"m 681 1083 l 681 1056 l 139 1056 l 139 567 l 611 567 l 611 539 l 139 539 l 139 28 l 681 28 l 681 0 l 111 0 l 111 1083 m 403 1183 b 558 1319 501 1183 558 1236 l 583 1319 b 403 1158 583 1222 515 1158 b 222 1319 290 1158 222 1222 l 247 1319 b 403 1183 247 1236 304 1183 "},"Ė":{"ha":750,"x_min":0,"x_max":0,"o":"m 681 1083 l 681 1056 l 139 1056 l 139 567 l 611 567 l 611 539 l 139 539 l 139 28 l 681 28 l 681 0 l 111 0 l 111 1083 m 431 1215 l 375 1215 l 375 1271 l 431 1271 "},"Ë":{"ha":750,"x_min":0,"x_max":0,"o":"m 681 1083 l 681 1056 l 139 1056 l 139 567 l 611 567 l 611 539 l 139 539 l 139 28 l 681 28 l 681 0 l 111 0 l 111 1083 m 528 1215 l 472 1215 l 472 1271 l 528 1271 m 333 1215 l 278 1215 l 278 1271 l 333 1271 "},"Ě":{"ha":750,"x_min":0,"x_max":0,"o":"m 681 1083 l 681 1056 l 139 1056 l 139 567 l 611 567 l 611 539 l 139 539 l 139 28 l 681 28 l 681 0 l 111 0 l 111 1083 m 556 1319 l 417 1167 l 389 1167 l 250 1319 l 283 1319 l 403 1188 l 522 1319 "},"Ę":{"ha":750,"x_min":0,"x_max":0,"o":"m 743 -261 b 633 -286 718 -274 688 -286 b 507 -160 568 -286 507 -250 b 617 0 507 -74 557 -29 l 111 0 l 111 1083 l 681 1083 l 681 1056 l 139 1056 l 139 567 l 611 567 l 611 539 l 139 539 l 139 28 l 681 28 l 681 0 b 532 -160 615 -21 532 -62 b 633 -261 532 -236 581 -261 b 735 -239 681 -261 714 -249 "},"Ľ":{"ha":644,"x_min":0,"x_max":0,"o":"m 111 0 l 111 1083 l 139 1083 l 139 28 l 625 28 l 625 0 m 446 1111 l 431 861 l 417 861 l 417 1111 "},"à":{"ha":674,"x_min":0,"x_max":0,"o":"m 72 188 b 299 400 72 354 192 385 l 549 440 l 549 486 b 340 717 549 611 521 717 b 132 486 160 717 132 611 l 104 486 l 104 501 b 340 744 104 625 149 744 b 576 501 532 744 576 625 l 576 167 l 583 0 l 563 0 l 551 117 b 278 -8 514 64 436 -8 b 72 174 160 -8 72 56 m 279 19 b 549 164 454 19 522 115 l 549 414 l 289 372 b 100 189 186 354 100 324 l 100 174 b 279 19 100 93 158 19 m 231 1083 l 356 861 l 325 861 l 200 1083 "},"á":{"ha":674,"x_min":0,"x_max":0,"o":"m 72 188 b 299 400 72 354 192 385 l 549 440 l 549 486 b 340 717 549 611 521 717 b 132 486 160 717 132 611 l 104 486 l 104 501 b 340 744 104 625 149 744 b 576 501 532 744 576 625 l 576 167 l 583 0 l 563 0 l 551 117 b 278 -8 514 64 436 -8 b 72 174 160 -8 72 56 m 279 19 b 549 164 454 19 522 115 l 549 414 l 289 372 b 100 189 186 354 100 324 l 100 174 b 279 19 100 93 158 19 m 481 1083 l 356 861 l 325 861 l 450 1083 "},"â":{"ha":674,"x_min":0,"x_max":0,"o":"m 72 188 b 299 400 72 354 192 385 l 549 440 l 549 486 b 340 717 549 611 521 717 b 132 486 160 717 132 611 l 104 486 l 104 501 b 340 744 104 625 149 744 b 576 501 532 744 576 625 l 576 167 l 583 0 l 563 0 l 551 117 b 278 -8 514 64 436 -8 b 72 174 160 -8 72 56 m 279 19 b 549 164 454 19 522 115 l 549 414 l 289 372 b 100 189 186 354 100 324 l 100 174 b 279 19 100 93 158 19 m 153 861 l 326 1083 l 354 1083 l 528 861 l 493 861 l 340 1058 l 188 861 "},"ä":{"ha":674,"x_min":0,"x_max":0,"o":"m 72 188 b 299 400 72 354 192 385 l 549 440 l 549 486 b 340 717 549 611 521 717 b 132 486 160 717 132 611 l 104 486 l 104 501 b 340 744 104 625 149 744 b 576 501 532 744 576 625 l 576 167 l 583 0 l 563 0 l 551 117 b 278 -8 514 64 436 -8 b 72 174 160 -8 72 56 m 279 19 b 549 164 454 19 522 115 l 549 414 l 289 372 b 100 189 186 354 100 324 l 100 174 b 279 19 100 93 158 19 m 271 944 l 215 944 l 215 1000 l 271 1000 m 465 944 l 410 944 l 410 1000 l 465 1000 "},"ã":{"ha":674,"x_min":0,"x_max":0,"o":"m 72 188 b 299 400 72 354 192 385 l 549 440 l 549 486 b 340 717 549 611 521 717 b 132 486 160 717 132 611 l 104 486 l 104 501 b 340 744 104 625 149 744 b 576 501 532 744 576 625 l 576 167 l 583 0 l 563 0 l 551 117 b 278 -8 514 64 436 -8 b 72 174 160 -8 72 56 m 279 19 b 549 164 454 19 522 115 l 549 414 l 289 372 b 100 189 186 354 100 324 l 100 174 b 279 19 100 93 158 19 m 528 1017 b 444 919 528 942 486 919 b 240 1000 369 919 306 1000 b 178 928 208 1000 178 990 l 153 928 b 236 1025 153 1003 194 1025 b 440 944 311 1025 375 944 b 503 1017 472 944 503 954 "},"ā":{"ha":674,"x_min":0,"x_max":0,"o":"m 72 188 b 299 400 72 354 192 385 l 549 440 l 549 486 b 340 717 549 611 521 717 b 132 486 160 717 132 611 l 104 486 l 104 501 b 340 744 104 625 149 744 b 576 501 532 744 576 625 l 576 167 l 583 0 l 563 0 l 551 117 b 278 -8 514 64 436 -8 b 72 174 160 -8 72 56 m 279 19 b 549 164 454 19 522 115 l 549 414 l 289 372 b 100 189 186 354 100 324 l 100 174 b 279 19 100 93 158 19 m 201 986 l 479 986 l 479 958 l 201 958 "},"ă":{"ha":674,"x_min":0,"x_max":0,"o":"m 72 188 b 299 400 72 354 192 385 l 549 440 l 549 486 b 340 717 549 611 521 717 b 132 486 160 717 132 611 l 104 486 l 104 501 b 340 744 104 625 149 744 b 576 501 532 744 576 625 l 576 167 l 583 0 l 563 0 l 551 117 b 278 -8 514 64 436 -8 b 72 174 160 -8 72 56 m 279 19 b 549 164 454 19 522 115 l 549 414 l 289 372 b 100 189 186 354 100 324 l 100 174 b 279 19 100 93 158 19 m 340 853 b 132 1083 201 853 132 958 l 157 1083 b 340 878 157 972 214 878 b 524 1083 467 878 524 972 l 549 1083 b 340 853 549 958 479 853 "},"ą":{"ha":674,"x_min":0,"x_max":0,"o":"m 646 -261 b 536 -286 621 -274 590 -286 b 410 -160 471 -286 410 -250 b 561 17 410 -54 485 -11 l 551 117 b 278 -8 514 64 436 -8 b 72 174 160 -8 72 56 l 72 188 b 299 400 72 354 192 385 l 549 440 l 549 486 b 340 717 549 611 521 717 b 132 486 160 717 132 611 l 104 486 l 104 501 b 340 744 104 625 149 744 b 576 501 532 744 576 625 l 576 167 l 583 0 b 435 -160 518 -21 435 -62 b 536 -261 435 -236 483 -261 b 638 -239 583 -261 617 -249 m 279 19 b 549 164 454 19 522 115 l 549 414 l 289 372 b 100 189 186 354 100 324 l 100 174 b 279 19 100 93 158 19 "},"ḃ":{"ha":708,"x_min":0,"x_max":0,"o":"m 125 632 b 350 744 161 679 233 744 b 632 382 536 744 632 607 l 632 354 b 350 -8 632 129 536 -8 b 121 110 229 -8 154 61 l 111 0 l 90 0 l 97 167 l 97 1111 l 125 1111 m 125 149 b 350 19 163 92 231 19 b 604 354 519 19 604 149 l 604 382 b 350 717 604 588 519 717 b 125 588 231 717 163 644 m 139 1215 l 83 1215 l 83 1271 l 139 1271 "},"ć":{"ha":701,"x_min":0,"x_max":0,"o":"m 76 382 b 372 744 76 590 165 744 b 625 493 561 744 625 611 l 625 479 l 597 479 b 372 717 597 613 533 717 b 104 382 192 717 104 583 l 104 354 b 372 19 104 153 192 19 b 597 243 535 19 597 115 l 625 243 l 625 229 b 372 -8 625 117 563 -8 b 76 354 165 -8 76 146 l 76 382 m 513 1083 l 388 861 l 357 861 l 482 1083 "},"ĉ":{"ha":701,"x_min":0,"x_max":0,"o":"m 76 382 b 372 744 76 590 165 744 b 625 493 561 744 625 611 l 625 479 l 597 479 b 372 717 597 613 533 717 b 104 382 192 717 104 583 l 104 354 b 372 19 104 153 192 19 b 597 243 535 19 597 115 l 625 243 l 625 229 b 372 -8 625 117 563 -8 b 76 354 165 -8 76 146 l 76 382 m 185 861 l 358 1083 l 386 1083 l 560 861 l 525 861 l 372 1058 l 219 861 "},"č":{"ha":701,"x_min":0,"x_max":0,"o":"m 76 382 b 372 744 76 590 165 744 b 625 493 561 744 625 611 l 625 479 l 597 479 b 372 717 597 613 533 717 b 104 382 192 717 104 583 l 104 354 b 372 19 104 153 192 19 b 597 243 535 19 597 115 l 625 243 l 625 229 b 372 -8 625 117 563 -8 b 76 354 165 -8 76 146 l 76 382 m 219 1083 l 372 886 l 525 1083 l 560 1083 l 386 861 l 358 861 l 185 1083 "},"ċ":{"ha":701,"x_min":0,"x_max":0,"o":"m 76 382 b 372 744 76 590 165 744 b 625 493 561 744 625 611 l 625 479 l 597 479 b 372 717 597 613 533 717 b 104 382 192 717 104 583 l 104 354 b 372 19 104 153 192 19 b 597 243 535 19 597 115 l 625 243 l 625 229 b 372 -8 625 117 563 -8 b 76 354 165 -8 76 146 l 76 382 m 400 944 l 344 944 l 344 1000 l 400 1000 "},"ç":{"ha":701,"x_min":0,"x_max":0,"o":"m 271 -239 b 372 -261 293 -251 339 -261 b 474 -187 425 -261 474 -254 b 372 -114 474 -121 425 -114 b 338 -117 353 -114 338 -117 l 322 -101 l 356 -8 b 76 354 160 0 76 151 l 76 382 b 372 744 76 590 165 744 b 625 493 561 744 625 611 l 625 479 l 597 479 b 372 717 597 613 533 717 b 104 382 192 717 104 583 l 104 354 b 372 19 104 153 192 19 b 597 243 535 19 597 115 l 625 243 l 625 229 b 383 -8 625 118 564 -3 l 354 -90 b 379 -89 361 -89 369 -89 b 499 -187 435 -89 499 -108 b 372 -286 499 -267 438 -286 b 263 -261 335 -286 293 -276 "},"ď":{"ha":708,"x_min":0,"x_max":0,"o":"m 358 744 b 583 632 475 744 547 679 l 583 1111 l 611 1111 l 611 167 l 618 0 l 597 0 l 588 110 b 358 -8 553 61 479 -8 b 76 354 172 -8 76 129 l 76 382 b 358 744 76 607 172 744 m 583 588 b 358 717 546 644 478 717 b 104 382 189 717 104 588 l 104 354 b 358 19 104 149 189 19 b 583 149 478 19 546 92 l 583 588 m 765 1111 l 750 861 l 736 861 l 736 1111 "},"đ":{"ha":708,"x_min":0,"x_max":0,"o":"m 354 938 l 583 938 l 583 1111 l 611 1111 l 611 938 l 757 938 l 757 910 l 611 910 l 611 167 l 618 0 l 597 0 l 588 110 b 358 -8 553 61 479 -8 b 76 354 172 -8 76 129 l 76 382 b 358 744 76 607 172 744 b 583 632 475 744 547 679 l 583 910 l 354 910 m 583 588 b 358 717 546 644 478 717 b 104 382 189 717 104 588 l 104 354 b 358 19 104 149 189 19 b 583 149 478 19 546 92 l 583 588 "},"ḋ":{"ha":708,"x_min":0,"x_max":0,"o":"m 358 744 b 583 632 475 744 547 679 l 583 1111 l 611 1111 l 611 167 l 618 0 l 597 0 l 588 110 b 358 -8 553 61 479 -8 b 76 354 172 -8 76 129 l 76 382 b 358 744 76 607 172 744 m 583 588 b 358 717 546 644 478 717 b 104 382 189 717 104 588 l 104 354 b 358 19 104 149 189 19 b 583 149 478 19 546 92 l 583 588 m 625 1215 l 569 1215 l 569 1271 l 625 1271 "},"è":{"ha":736,"x_min":0,"x_max":0,"o":"m 104 354 b 375 19 104 160 186 19 b 632 236 564 19 632 138 l 660 236 l 660 229 b 375 -8 660 125 579 -8 b 76 354 165 -8 76 151 l 76 382 b 368 744 76 585 163 744 b 660 382 574 744 660 585 l 660 354 m 368 717 b 104 382 189 717 104 578 l 632 382 b 368 717 632 578 547 717 m 258 1083 l 383 861 l 353 861 l 228 1083 "},"é":{"ha":736,"x_min":0,"x_max":0,"o":"m 104 354 b 375 19 104 160 186 19 b 632 236 564 19 632 138 l 660 236 l 660 229 b 375 -8 660 125 579 -8 b 76 354 165 -8 76 151 l 76 382 b 368 744 76 585 163 744 b 660 382 574 744 660 585 l 660 354 m 368 717 b 104 382 189 717 104 578 l 632 382 b 368 717 632 578 547 717 m 508 1083 l 383 861 l 353 861 l 478 1083 "},"ê":{"ha":736,"x_min":0,"x_max":0,"o":"m 104 354 b 375 19 104 160 186 19 b 632 236 564 19 632 138 l 660 236 l 660 229 b 375 -8 660 125 579 -8 b 76 354 165 -8 76 151 l 76 382 b 368 744 76 585 163 744 b 660 382 574 744 660 585 l 660 354 m 368 717 b 104 382 189 717 104 578 l 632 382 b 368 717 632 578 547 717 m 181 861 l 354 1083 l 382 1083 l 556 861 l 521 861 l 368 1058 l 215 861 "},"ë":{"ha":736,"x_min":0,"x_max":0,"o":"m 104 354 b 375 19 104 160 186 19 b 632 236 564 19 632 138 l 660 236 l 660 229 b 375 -8 660 125 579 -8 b 76 354 165 -8 76 151 l 76 382 b 368 744 76 585 163 744 b 660 382 574 744 660 585 l 660 354 m 368 717 b 104 382 189 717 104 578 l 632 382 b 368 717 632 578 547 717 m 299 944 l 243 944 l 243 1000 l 299 1000 m 493 944 l 438 944 l 438 1000 l 493 1000 "},"ě":{"ha":736,"x_min":0,"x_max":0,"o":"m 104 354 b 375 19 104 160 186 19 b 632 236 564 19 632 138 l 660 236 l 660 229 b 375 -8 660 125 579 -8 b 76 354 165 -8 76 151 l 76 382 b 368 744 76 585 163 744 b 660 382 574 744 660 585 l 660 354 m 368 717 b 104 382 189 717 104 578 l 632 382 b 368 717 632 578 547 717 m 215 1083 l 368 886 l 521 1083 l 556 1083 l 382 861 l 354 861 l 181 1083 "},"ē":{"ha":736,"x_min":0,"x_max":0,"o":"m 104 354 b 375 19 104 160 186 19 b 632 236 564 19 632 138 l 660 236 l 660 229 b 375 -8 660 125 579 -8 b 76 354 165 -8 76 151 l 76 382 b 368 744 76 585 163 744 b 660 382 574 744 660 585 l 660 354 m 368 717 b 104 382 189 717 104 578 l 632 382 b 368 717 632 578 547 717 m 229 986 l 507 986 l 507 958 l 229 958 "},"ĕ":{"ha":736,"x_min":0,"x_max":0,"o":"m 104 354 b 375 19 104 160 186 19 b 632 236 564 19 632 138 l 660 236 l 660 229 b 375 -8 660 125 579 -8 b 76 354 165 -8 76 151 l 76 382 b 368 744 76 585 163 744 b 660 382 574 744 660 585 l 660 354 m 368 717 b 104 382 189 717 104 578 l 632 382 b 368 717 632 578 547 717 m 368 853 b 160 1083 229 853 160 958 l 185 1083 b 368 878 185 972 242 878 b 551 1083 494 878 551 972 l 576 1083 b 368 853 576 958 507 853 "},"ė":{"ha":736,"x_min":0,"x_max":0,"o":"m 104 354 b 375 19 104 160 186 19 b 632 236 564 19 632 138 l 660 236 l 660 229 b 375 -8 660 125 579 -8 b 76 354 165 -8 76 151 l 76 382 b 368 744 76 585 163 744 b 660 382 574 744 660 585 l 660 354 m 368 717 b 104 382 189 717 104 578 l 632 382 b 368 717 632 578 547 717 m 396 944 l 340 944 l 340 1000 l 396 1000 "},"ę":{"ha":736,"x_min":0,"x_max":0,"o":"m 521 -261 b 411 -286 496 -274 465 -286 b 285 -160 346 -286 285 -250 b 378 -8 285 -82 325 -37 l 375 -8 b 76 354 165 -8 76 151 l 76 382 b 368 744 76 585 163 744 b 660 382 574 744 660 585 l 660 354 l 104 354 b 375 19 104 160 186 19 b 632 236 564 19 632 138 l 660 236 l 660 229 b 458 0 660 140 601 31 b 310 -160 397 -12 310 -62 b 411 -261 310 -236 358 -261 b 513 -239 458 -261 492 -249 m 368 717 b 104 382 189 717 104 578 l 632 382 b 368 717 632 578 547 717 "},"ḟ":{"ha":472,"x_min":0,"x_max":0,"o":"m 188 736 l 417 736 l 417 708 l 188 708 l 188 0 l 160 0 l 160 708 l 42 708 l 42 736 l 160 736 l 160 932 b 342 1119 160 1082 244 1119 b 431 1106 393 1119 424 1108 l 431 1078 b 347 1092 419 1083 382 1092 b 188 924 253 1092 188 1061 m 306 1215 l 250 1215 l 250 1271 l 306 1271 "},"ĝ":{"ha":708,"x_min":0,"x_max":0,"o":"m 347 -286 b 76 -15 153 -286 76 -174 l 76 0 l 104 0 b 347 -258 104 -160 167 -258 b 583 0 518 -258 583 -160 l 583 160 b 357 47 547 111 474 47 b 76 382 171 47 76 171 l 76 410 b 357 744 76 621 171 744 b 588 626 478 744 553 675 l 597 736 l 618 736 l 611 569 l 611 -15 b 347 -286 611 -174 532 -286 m 583 588 b 358 717 546 644 478 717 b 104 410 189 717 104 601 l 104 382 b 358 75 104 190 189 75 b 583 204 478 75 546 147 m 169 861 l 343 1083 l 371 1083 l 544 861 l 510 861 l 357 1058 l 204 861 "},"ğ":{"ha":708,"x_min":0,"x_max":0,"o":"m 347 -286 b 76 -15 153 -286 76 -174 l 76 0 l 104 0 b 347 -258 104 -160 167 -258 b 583 0 518 -258 583 -160 l 583 160 b 357 47 547 111 474 47 b 76 382 171 47 76 171 l 76 410 b 357 744 76 621 171 744 b 588 626 478 744 553 675 l 597 736 l 618 736 l 611 569 l 611 -15 b 347 -286 611 -174 532 -286 m 583 588 b 358 717 546 644 478 717 b 104 410 189 717 104 601 l 104 382 b 358 75 104 190 189 75 b 583 204 478 75 546 147 m 357 853 b 149 1083 218 853 149 958 l 174 1083 b 357 878 174 972 231 878 b 540 1083 483 878 540 972 l 565 1083 b 357 853 565 958 496 853 "},"ġ":{"ha":708,"x_min":0,"x_max":0,"o":"m 347 -286 b 76 -15 153 -286 76 -174 l 76 0 l 104 0 b 347 -258 104 -160 167 -258 b 583 0 518 -258 583 -160 l 583 160 b 357 47 547 111 474 47 b 76 382 171 47 76 171 l 76 410 b 357 744 76 621 171 744 b 588 626 478 744 553 675 l 597 736 l 618 736 l 611 569 l 611 -15 b 347 -286 611 -174 532 -286 m 583 588 b 358 717 546 644 478 717 b 104 410 189 717 104 601 l 104 382 b 358 75 104 190 189 75 b 583 204 478 75 546 147 m 385 944 l 329 944 l 329 1000 l 385 1000 "},"ĥ":{"ha":681,"x_min":0,"x_max":0,"o":"m 569 0 l 569 521 b 374 717 569 667 500 717 b 125 588 240 717 163 647 l 125 0 l 97 0 l 97 1111 l 125 1111 l 125 628 b 376 744 167 685 246 744 b 597 528 519 744 597 676 l 597 0 m -42 1167 l 97 1319 l 125 1319 l 264 1167 l 231 1167 l 111 1299 l -8 1167 "},"ħ":{"ha":681,"x_min":0,"x_max":0,"o":"m -49 938 l 97 938 l 97 1111 l 125 1111 l 125 938 l 354 938 l 354 910 l 125 910 l 125 628 b 376 744 167 685 246 744 b 597 528 519 744 597 676 l 597 0 l 569 0 l 569 521 b 374 717 569 667 500 717 b 125 588 240 717 163 647 l 125 0 l 97 0 l 97 910 l -49 910 "},"í":{"ha":250,"x_min":0,"x_max":0,"o":"m 111 736 l 139 736 l 139 0 l 111 0 m 265 1083 l 140 861 l 110 861 l 235 1083 "},"ì":{"ha":250,"x_min":0,"x_max":0,"o":"m 111 736 l 139 736 l 139 0 l 111 0 m 15 1083 l 140 861 l 110 861 l -15 1083 "},"î":{"ha":250,"x_min":0,"x_max":0,"o":"m 111 736 l 139 736 l 139 0 l 111 0 m -62 861 l 111 1083 l 139 1083 l 313 861 l 278 861 l 125 1058 l -28 861 "},"ï":{"ha":250,"x_min":0,"x_max":0,"o":"m 111 736 l 139 736 l 139 0 l 111 0 m 250 944 l 194 944 l 194 1000 l 250 1000 m 56 944 l 0 944 l 0 1000 l 56 1000 "},"ĩ":{"ha":250,"x_min":0,"x_max":0,"o":"m 111 736 l 139 736 l 139 0 l 111 0 m 313 1017 b 229 919 313 942 271 919 b 25 1000 154 919 90 1000 b -37 928 -7 1000 -37 990 l -62 928 b 21 1025 -62 1003 -21 1025 b 225 944 96 1025 160 944 b 288 1017 257 944 288 954 "},"ī":{"ha":250,"x_min":0,"x_max":0,"o":"m 111 736 l 139 736 l 139 0 l 111 0 m -14 986 l 264 986 l 264 958 l -14 958 "},"ĭ":{"ha":250,"x_min":0,"x_max":0,"o":"m 111 736 l 139 736 l 139 0 l 111 0 m 125 853 b -83 1083 -14 853 -83 958 l -58 1083 b 125 878 -58 972 -1 878 b 308 1083 251 878 308 972 l 333 1083 b 125 853 333 958 264 853 "},"":{"ha":250,"x_min":0,"x_max":0,"o":"m 111 736 l 139 736 l 139 0 l 111 0 m 153 944 l 97 944 l 97 1000 l 153 1000 "},"į":{"ha":250,"x_min":0,"x_max":0,"o":"m 201 -261 b 92 -286 176 -274 146 -286 b -35 -160 26 -286 -35 -250 b 111 15 -35 -57 36 -12 l 111 736 l 139 736 l 139 0 b -10 -160 74 -21 -10 -62 b 92 -261 -10 -236 39 -261 b 193 -239 139 -261 172 -249 m 153 944 l 97 944 l 97 1000 l 153 1000 "},"ĵ":{"ha":250,"x_min":0,"x_max":0,"o":"m 111 736 l 139 736 l 139 -99 b -43 -286 139 -249 54 -286 b -132 -272 -94 -286 -125 -275 l -132 -244 b -49 -258 -121 -250 -83 -258 b 111 -90 46 -258 111 -228 m -62 861 l 111 1083 l 139 1083 l 313 861 l 278 861 l 125 1058 l -28 861 "},"ķ":{"ha":636,"x_min":0,"x_max":0,"o":"m 132 278 l 553 736 l 590 736 l 332 457 l 590 0 l 558 0 l 314 436 l 132 239 l 132 0 l 104 0 l 104 1111 l 132 1111 m 361 -142 b 257 -286 361 -247 328 -286 l 257 -261 b 333 -153 307 -261 332 -244 l 306 -153 l 306 -97 l 361 -97 "},"ĸ":{"ha":636,"x_min":0,"x_max":0,"o":"m 132 278 l 553 736 l 590 736 l 332 457 l 590 0 l 558 0 l 314 436 l 132 239 l 132 0 l 104 0 l 104 736 l 132 736 "},"ĺ":{"ha":250,"x_min":0,"x_max":0,"o":"m 111 1111 l 139 1111 l 139 0 l 111 0 m 226 1319 l 140 1167 l 110 1167 l 196 1319 "},"ľ":{"ha":250,"x_min":0,"x_max":0,"o":"m 111 1111 l 139 1111 l 139 0 l 111 0 m 293 1111 l 278 861 l 264 861 l 264 1111 "},"ļ":{"ha":250,"x_min":0,"x_max":0,"o":"m 111 1111 l 139 1111 l 139 0 l 111 0 m 153 -142 b 49 -286 153 -247 119 -286 l 49 -261 b 125 -153 99 -261 124 -244 l 97 -153 l 97 -97 l 153 -97 "},"ŀ":{"ha":389,"x_min":0,"x_max":0,"o":"m 111 1111 l 139 1111 l 139 0 l 111 0 m 347 444 l 292 444 l 292 500 l 347 500 "},"ṁ":{"ha":1042,"x_min":0,"x_max":0,"o":"m 931 0 l 931 535 b 763 717 931 667 875 717 b 542 588 650 717 579 647 l 542 0 l 514 0 l 514 535 b 346 717 514 667 458 717 b 125 588 233 717 163 647 l 125 0 l 97 0 l 97 569 l 90 736 l 111 736 l 121 624 b 349 744 160 682 232 744 b 533 617 451 744 513 701 b 765 744 571 676 643 744 b 958 542 894 744 958 676 l 958 0 m 556 944 l 500 944 l 500 1000 l 556 1000 "},"ń":{"ha":681,"x_min":0,"x_max":0,"o":"m 569 0 l 569 521 b 374 717 569 667 500 717 b 125 588 240 717 163 647 l 125 0 l 97 0 l 97 569 l 90 736 l 111 736 l 121 622 b 376 744 163 681 242 744 b 597 528 519 744 597 676 l 597 0 m 488 1083 l 363 861 l 332 861 l 457 1083 "},"ñ":{"ha":681,"x_min":0,"x_max":0,"o":"m 569 0 l 569 521 b 374 717 569 667 500 717 b 125 588 240 717 163 647 l 125 0 l 97 0 l 97 569 l 90 736 l 111 736 l 121 622 b 376 744 163 681 242 744 b 597 528 519 744 597 676 l 597 0 m 535 1017 b 451 919 535 942 493 919 b 247 1000 376 919 313 1000 b 185 928 215 1000 185 990 l 160 928 b 243 1025 160 1003 201 1025 b 447 944 318 1025 382 944 b 510 1017 479 944 510 954 "},"ň":{"ha":681,"x_min":0,"x_max":0,"o":"m 569 0 l 569 521 b 374 717 569 667 500 717 b 125 588 240 717 163 647 l 125 0 l 97 0 l 97 569 l 90 736 l 111 736 l 121 622 b 376 744 163 681 242 744 b 597 528 519 744 597 676 l 597 0 m 194 1083 l 347 886 l 500 1083 l 535 1083 l 361 861 l 333 861 l 160 1083 "},"ņ":{"ha":681,"x_min":0,"x_max":0,"o":"m 569 0 l 569 521 b 374 717 569 667 500 717 b 125 588 240 717 163 647 l 125 0 l 97 0 l 97 569 l 90 736 l 111 736 l 121 622 b 376 744 163 681 242 744 b 597 528 519 744 597 676 l 597 0 m 375 -142 b 271 -286 375 -247 342 -286 l 271 -261 b 347 -153 321 -261 346 -244 l 319 -153 l 319 -97 l 375 -97 "},"ṗ":{"ha":708,"x_min":0,"x_max":0,"o":"m 350 -8 b 125 104 233 -8 161 56 l 125 -278 l 97 -278 l 97 569 l 90 736 l 111 736 l 121 626 b 350 744 154 675 229 744 b 632 382 536 744 632 607 l 632 354 b 350 -8 632 129 536 -8 m 125 149 b 350 19 163 92 231 19 b 604 354 519 19 604 149 l 604 382 b 350 717 604 588 519 717 b 125 588 231 717 163 644 m 378 944 l 322 944 l 322 1000 l 378 1000 "},"ŕ":{"ha":413,"x_min":0,"x_max":0,"o":"m 333 744 b 354 743 346 744 354 743 l 354 717 l 342 717 b 125 585 219 717 153 646 l 125 0 l 97 0 l 97 569 l 90 736 l 111 736 l 121 624 b 333 744 154 679 222 744 m 363 1083 l 238 861 l 207 861 l 332 1083 "},"ř":{"ha":413,"x_min":0,"x_max":0,"o":"m 333 744 b 354 743 346 744 354 743 l 354 717 l 342 717 b 125 585 219 717 153 646 l 125 0 l 97 0 l 97 569 l 90 736 l 111 736 l 121 624 b 333 744 154 679 222 744 m 69 1083 l 222 886 l 375 1083 l 410 1083 l 236 861 l 208 861 l 35 1083 "},"ŗ":{"ha":413,"x_min":0,"x_max":0,"o":"m 333 744 b 354 743 346 744 354 743 l 354 717 l 342 717 b 125 585 219 717 153 646 l 125 0 l 97 0 l 97 569 l 90 736 l 111 736 l 121 624 b 333 744 154 679 222 744 m 139 -142 b 35 -286 139 -247 106 -286 l 35 -261 b 111 -153 85 -261 110 -244 l 83 -153 l 83 -97 l 139 -97 "},"ś":{"ha":667,"x_min":0,"x_max":0,"o":"m 333 19 b 569 194 479 19 569 86 b 319 364 569 322 489 350 b 76 544 125 383 76 446 l 76 553 b 333 744 76 667 172 744 b 590 506 525 744 590 640 l 590 500 l 563 500 b 333 717 563 632 510 717 b 104 549 193 717 104 656 b 347 386 104 450 150 404 b 597 199 533 369 597 322 l 597 190 b 333 -8 597 72 499 -8 b 69 217 125 -8 69 108 l 69 222 l 97 222 b 333 19 97 118 144 19 m 474 1083 l 349 861 l 318 861 l 443 1083 "},"ŝ":{"ha":667,"x_min":0,"x_max":0,"o":"m 333 19 b 569 194 479 19 569 86 b 319 364 569 322 489 350 b 76 544 125 383 76 446 l 76 553 b 333 744 76 667 172 744 b 590 506 525 744 590 640 l 590 500 l 563 500 b 333 717 563 632 510 717 b 104 549 193 717 104 656 b 347 386 104 450 150 404 b 597 199 533 369 597 322 l 597 190 b 333 -8 597 72 499 -8 b 69 217 125 -8 69 108 l 69 222 l 97 222 b 333 19 97 118 144 19 m 146 861 l 319 1083 l 347 1083 l 521 861 l 486 861 l 333 1058 l 181 861 "},"š":{"ha":667,"x_min":0,"x_max":0,"o":"m 333 19 b 569 194 479 19 569 86 b 319 364 569 322 489 350 b 76 544 125 383 76 446 l 76 553 b 333 744 76 667 172 744 b 590 506 525 744 590 640 l 590 500 l 563 500 b 333 717 563 632 510 717 b 104 549 193 717 104 656 b 347 386 104 450 150 404 b 597 199 533 369 597 322 l 597 190 b 333 -8 597 72 499 -8 b 69 217 125 -8 69 108 l 69 222 l 97 222 b 333 19 97 118 144 19 m 181 1083 l 333 886 l 486 1083 l 521 1083 l 347 861 l 319 861 l 146 1083 "},"ș":{"ha":667,"x_min":0,"x_max":0,"o":"m 333 19 b 569 194 479 19 569 86 b 319 364 569 322 489 350 b 76 544 125 383 76 446 l 76 553 b 333 744 76 667 172 744 b 590 506 525 744 590 640 l 590 500 l 563 500 b 333 717 563 632 510 717 b 104 549 193 717 104 656 b 347 386 104 450 150 404 b 597 199 533 369 597 322 l 597 190 b 333 -8 597 72 499 -8 b 69 217 125 -8 69 108 l 69 222 l 97 222 b 333 19 97 118 144 19 m 361 -142 b 257 -286 361 -247 328 -286 l 257 -261 b 333 -153 307 -261 332 -244 l 306 -153 l 306 -97 l 361 -97 "},"ş":{"ha":667,"x_min":0,"x_max":0,"o":"m 232 -239 b 333 -261 254 -251 300 -261 b 435 -187 386 -261 435 -254 b 333 -114 435 -121 386 -114 b 299 -117 314 -114 299 -117 l 283 -101 l 317 -8 b 69 217 122 -1 69 111 l 69 222 l 97 222 b 333 19 97 118 144 19 b 569 194 479 19 569 86 b 319 364 569 322 489 350 b 76 544 125 383 76 446 l 76 553 b 333 744 76 667 172 744 b 590 506 525 744 590 640 l 590 500 l 563 500 b 333 717 563 632 510 717 b 104 549 193 717 104 656 b 347 386 104 450 150 404 b 597 199 533 369 597 322 l 597 190 b 344 -8 597 75 503 -4 l 315 -90 b 340 -89 322 -89 331 -89 b 460 -187 396 -89 460 -108 b 333 -286 460 -267 399 -286 b 224 -261 296 -286 254 -276 "},"ť":{"ha":500,"x_min":0,"x_max":0,"o":"m 444 736 l 444 708 l 188 708 l 188 188 b 347 19 188 50 253 19 b 431 33 382 19 419 28 l 431 6 b 342 -8 424 3 393 -8 b 160 179 244 -8 160 29 l 160 708 l 42 708 l 42 736 l 160 736 l 160 944 l 188 944 l 188 736 m 342 1111 l 326 861 l 313 861 l 313 1111 "},"ţ":{"ha":500,"x_min":0,"x_max":0,"o":"m 444 736 l 444 708 l 188 708 l 188 188 b 347 19 188 50 253 19 b 431 33 382 19 419 28 l 431 6 b 342 -8 424 3 393 -8 b 160 179 244 -8 160 29 l 160 708 l 42 708 l 42 736 l 160 736 l 160 944 l 188 944 l 188 736 m 319 -142 b 215 -286 319 -247 286 -286 l 215 -261 b 292 -153 265 -261 290 -244 l 264 -153 l 264 -97 l 319 -97 "},"ŧ":{"ha":500,"x_min":0,"x_max":0,"o":"m 42 382 l 160 382 l 160 708 l 42 708 l 42 736 l 160 736 l 160 944 l 188 944 l 188 736 l 444 736 l 444 708 l 188 708 l 188 382 l 389 382 l 389 354 l 188 354 l 188 188 b 347 19 188 50 253 19 b 431 33 382 19 419 28 l 431 6 b 342 -8 424 3 393 -8 b 160 179 244 -8 160 29 l 160 354 l 42 354 "},"ṫ":{"ha":500,"x_min":0,"x_max":0,"o":"m 444 736 l 444 708 l 188 708 l 188 188 b 347 19 188 50 253 19 b 431 33 382 19 419 28 l 431 6 b 342 -8 424 3 393 -8 b 160 179 244 -8 160 29 l 160 708 l 42 708 l 42 736 l 160 736 l 160 944 l 188 944 l 188 736 m 201 1049 l 146 1049 l 146 1104 l 201 1104 "},"ù":{"ha":681,"x_min":0,"x_max":0,"o":"m 111 736 l 111 215 b 307 19 111 69 181 19 b 556 149 440 19 518 89 l 556 736 l 583 736 l 583 167 l 590 0 l 569 0 l 558 113 b 304 -8 518 54 439 -8 b 83 208 161 -8 83 60 l 83 736 m 224 1083 l 349 861 l 318 861 l 193 1083 "},"ú":{"ha":681,"x_min":0,"x_max":0,"o":"m 111 736 l 111 215 b 307 19 111 69 181 19 b 556 149 440 19 518 89 l 556 736 l 583 736 l 583 167 l 590 0 l 569 0 l 558 113 b 304 -8 518 54 439 -8 b 83 208 161 -8 83 60 l 83 736 m 474 1083 l 349 861 l 318 861 l 443 1083 "},"û":{"ha":681,"x_min":0,"x_max":0,"o":"m 111 736 l 111 215 b 307 19 111 69 181 19 b 556 149 440 19 518 89 l 556 736 l 583 736 l 583 167 l 590 0 l 569 0 l 558 113 b 304 -8 518 54 439 -8 b 83 208 161 -8 83 60 l 83 736 m 146 861 l 319 1083 l 347 1083 l 521 861 l 486 861 l 333 1058 l 181 861 "},"ü":{"ha":681,"x_min":0,"x_max":0,"o":"m 111 736 l 111 215 b 307 19 111 69 181 19 b 556 149 440 19 518 89 l 556 736 l 583 736 l 583 167 l 590 0 l 569 0 l 558 113 b 304 -8 518 54 439 -8 b 83 208 161 -8 83 60 l 83 736 m 458 944 l 403 944 l 403 1000 l 458 1000 m 264 944 l 208 944 l 208 1000 l 264 1000 "},"ũ":{"ha":681,"x_min":0,"x_max":0,"o":"m 111 736 l 111 215 b 307 19 111 69 181 19 b 556 149 440 19 518 89 l 556 736 l 583 736 l 583 167 l 590 0 l 569 0 l 558 113 b 304 -8 518 54 439 -8 b 83 208 161 -8 83 60 l 83 736 m 521 1017 b 438 919 521 942 479 919 b 233 1000 363 919 299 1000 b 171 928 201 1000 171 990 l 146 928 b 229 1025 146 1003 188 1025 b 433 944 304 1025 368 944 b 496 1017 465 944 496 954 "},"ů":{"ha":681,"x_min":0,"x_max":0,"o":"m 111 736 l 111 215 b 307 19 111 69 181 19 b 556 149 440 19 518 89 l 556 736 l 583 736 l 583 167 l 590 0 l 569 0 l 558 113 b 304 -8 518 54 439 -8 b 83 208 161 -8 83 60 l 83 736 m 214 972 b 333 1092 214 1038 268 1092 b 453 972 399 1092 453 1038 b 333 853 453 907 399 853 b 214 972 268 853 214 907 m 239 972 b 333 878 239 919 281 878 b 428 972 386 878 428 919 b 333 1067 428 1025 386 1067 b 239 972 281 1067 239 1025 "},"ū":{"ha":681,"x_min":0,"x_max":0,"o":"m 111 736 l 111 215 b 307 19 111 69 181 19 b 556 149 440 19 518 89 l 556 736 l 583 736 l 583 167 l 590 0 l 569 0 l 558 113 b 304 -8 518 54 439 -8 b 83 208 161 -8 83 60 l 83 736 m 194 986 l 472 986 l 472 958 l 194 958 "},"ŭ":{"ha":681,"x_min":0,"x_max":0,"o":"m 111 736 l 111 215 b 307 19 111 69 181 19 b 556 149 440 19 518 89 l 556 736 l 583 736 l 583 167 l 590 0 l 569 0 l 558 113 b 304 -8 518 54 439 -8 b 83 208 161 -8 83 60 l 83 736 m 333 853 b 125 1083 194 853 125 958 l 150 1083 b 333 878 150 972 207 878 b 517 1083 460 878 517 972 l 542 1083 b 333 853 542 958 472 853 "},"ű":{"ha":681,"x_min":0,"x_max":0,"o":"m 111 736 l 111 215 b 307 19 111 69 181 19 b 556 149 440 19 518 89 l 556 736 l 583 736 l 583 167 l 590 0 l 569 0 l 558 113 b 304 -8 518 54 439 -8 b 83 208 161 -8 83 60 l 83 736 m 404 1083 l 279 861 l 249 861 l 374 1083 m 543 1083 l 418 861 l 388 861 l 513 1083 "},"ų":{"ha":681,"x_min":0,"x_max":0,"o":"m 653 -261 b 543 -286 628 -274 597 -286 b 417 -160 478 -286 417 -250 b 567 17 417 -54 490 -11 l 558 113 b 304 -8 518 54 439 -8 b 83 208 161 -8 83 60 l 83 736 l 111 736 l 111 215 b 307 19 111 69 181 19 b 556 149 440 19 518 89 l 556 736 l 583 736 l 583 167 l 590 0 b 442 -160 525 -21 442 -62 b 543 -261 442 -236 490 -261 b 644 -239 590 -261 624 -249 "},"ẁ":{"ha":931,"x_min":0,"x_max":0,"o":"m 254 0 l 221 0 l 46 736 l 75 736 l 239 36 l 451 736 l 479 736 l 692 36 l 856 736 l 885 736 l 710 0 l 676 0 l 465 692 m 356 1083 l 481 861 l 450 861 l 325 1083 "},"ẃ":{"ha":931,"x_min":0,"x_max":0,"o":"m 254 0 l 221 0 l 46 736 l 75 736 l 239 36 l 451 736 l 479 736 l 692 36 l 856 736 l 885 736 l 710 0 l 676 0 l 465 692 m 606 1083 l 481 861 l 450 861 l 575 1083 "},"ŵ":{"ha":931,"x_min":0,"x_max":0,"o":"m 254 0 l 221 0 l 46 736 l 75 736 l 239 36 l 451 736 l 479 736 l 692 36 l 856 736 l 885 736 l 710 0 l 676 0 l 465 692 m 278 861 l 451 1083 l 479 1083 l 653 861 l 618 861 l 465 1058 l 313 861 "},"ẅ":{"ha":931,"x_min":0,"x_max":0,"o":"m 254 0 l 221 0 l 46 736 l 75 736 l 239 36 l 451 736 l 479 736 l 692 36 l 856 736 l 885 736 l 710 0 l 676 0 l 465 692 m 590 944 l 535 944 l 535 1000 l 590 1000 m 396 944 l 340 944 l 340 1000 l 396 1000 "},"ý":{"ha":639,"x_min":0,"x_max":0,"o":"m 571 736 l 601 736 l 332 25 l 219 -278 l 193 -278 l 307 25 l 38 736 l 68 736 l 319 61 m 460 1083 l 335 861 l 304 861 l 429 1083 "},"ŷ":{"ha":639,"x_min":0,"x_max":0,"o":"m 571 736 l 601 736 l 332 25 l 219 -278 l 193 -278 l 307 25 l 38 736 l 68 736 l 319 61 m 132 861 l 306 1083 l 333 1083 l 507 861 l 472 861 l 319 1058 l 167 861 "},"ÿ":{"ha":639,"x_min":0,"x_max":0,"o":"m 571 736 l 601 736 l 332 25 l 219 -278 l 193 -278 l 307 25 l 38 736 l 68 736 l 319 61 m 444 944 l 389 944 l 389 1000 l 444 1000 m 250 944 l 194 944 l 194 1000 l 250 1000 "},"ĳ":{"ha":444,"x_min":0,"x_max":0,"o":"m 306 736 l 333 736 l 333 -99 b 151 -286 333 -249 249 -286 b 63 -272 100 -286 69 -275 l 63 -244 b 146 -258 74 -250 111 -258 b 306 -90 240 -258 306 -228 m 111 736 l 139 736 l 139 0 l 111 0 m 153 944 l 97 944 l 97 1000 l 153 1000 m 347 944 l 292 944 l 292 1000 l 347 1000 "},"ź":{"ha":597,"x_min":0,"x_max":0,"o":"m 499 710 l 340 708 l 63 708 l 63 736 l 535 736 l 535 715 l 85 26 l 243 28 l 549 28 l 549 0 l 49 0 l 49 21 m 439 1083 l 314 861 l 283 861 l 408 1083 "},"ž":{"ha":597,"x_min":0,"x_max":0,"o":"m 499 710 l 340 708 l 63 708 l 63 736 l 535 736 l 535 715 l 85 26 l 243 28 l 549 28 l 549 0 l 49 0 l 49 21 m 146 1083 l 299 886 l 451 1083 l 486 1083 l 313 861 l 285 861 l 111 1083 "},"ż":{"ha":597,"x_min":0,"x_max":0,"o":"m 499 710 l 340 708 l 63 708 l 63 736 l 535 736 l 535 715 l 85 26 l 243 28 l 549 28 l 549 0 l 49 0 l 49 21 m 326 944 l 271 944 l 271 1000 l 326 1000 "},"ŋ":{"ha":681,"x_min":0,"x_max":0,"o":"m 569 521 b 374 717 569 667 500 717 b 125 588 240 717 163 647 l 125 0 l 97 0 l 97 569 l 90 736 l 111 736 l 121 622 b 376 744 163 681 242 744 b 597 528 519 744 597 676 l 597 -99 b 415 -286 597 -249 513 -286 b 326 -272 364 -286 333 -275 l 326 -244 b 410 -258 338 -250 375 -258 b 569 -90 504 -258 569 -228 "},"ø":{"ha":731,"x_min":0,"x_max":0,"o":"m 583 642 b 654 382 629 579 654 490 l 654 354 b 365 -8 654 129 551 -8 b 164 74 279 -8 213 21 l 110 0 l 76 0 l 146 94 b 76 354 100 157 76 244 l 76 382 b 365 744 76 607 179 744 b 567 663 450 744 518 715 l 621 736 l 654 736 m 365 19 b 626 354 535 19 626 149 l 626 382 b 565 617 626 479 606 560 l 181 97 b 365 19 225 47 286 19 m 104 354 b 164 118 104 256 125 176 l 549 639 b 365 717 506 689 443 717 b 104 382 196 717 104 588 l 104 354 "},"ỳ":{"ha":639,"x_min":0,"x_max":0,"o":"m 571 736 l 601 736 l 332 25 l 219 -278 l 193 -278 l 307 25 l 38 736 l 68 736 l 319 61 m 210 1083 l 335 861 l 304 861 l 179 1083 "},"ȳ":{"ha":639,"x_min":0,"x_max":0,"o":"m 571 736 l 601 736 l 332 25 l 219 -278 l 193 -278 l 307 25 l 38 736 l 68 736 l 319 61 m 181 986 l 458 986 l 458 958 l 181 958 "},"Þ":{"ha":756,"x_min":0,"x_max":0,"o":"m 139 847 l 379 847 b 686 556 526 847 686 788 l 686 528 b 379 236 686 296 526 236 l 139 236 l 139 0 l 111 0 l 111 1083 l 139 1083 m 378 264 b 657 529 492 264 657 300 l 657 554 b 378 819 657 783 492 819 l 139 819 l 139 264 "},"Ỳ":{"ha":750,"x_min":0,"x_max":0,"o":"m 685 1083 l 715 1083 l 382 326 l 382 0 l 354 0 l 354 326 l 21 1083 l 51 1083 l 368 360 m 328 1431 l 453 1208 l 422 1208 l 297 1431 "},"Ȳ":{"ha":750,"x_min":0,"x_max":0,"o":"m 685 1083 l 715 1083 l 382 326 l 382 0 l 354 0 l 354 326 l 21 1083 l 51 1083 l 368 360 m 229 1257 l 507 1257 l 507 1229 l 229 1229 "},"":{"ha":819,"x_min":0,"x_max":0,"o":"m 424 1097 l 771 0 l 742 0 l 410 1056 l 78 0 l 49 0 l 396 1097 "},"þ":{"ha":708,"x_min":0,"x_max":0,"o":"m 125 149 b 350 19 163 92 231 19 b 604 354 519 19 604 149 l 604 382 b 350 717 604 588 519 717 b 125 588 231 717 163 644 m 97 1111 l 125 1111 l 125 632 b 350 744 161 681 233 744 b 632 382 536 744 632 607 l 632 354 b 350 -8 632 129 536 -8 b 125 104 233 -8 161 56 l 125 -278 l 97 -278 "},"ģ":{"ha":708,"x_min":0,"x_max":0,"o":"m 347 -286 b 76 -15 153 -286 76 -174 l 76 0 l 104 0 b 347 -258 104 -160 167 -258 b 583 0 518 -258 583 -160 l 583 160 b 357 47 547 111 474 47 b 76 382 171 47 76 171 l 76 410 b 357 744 76 621 171 744 b 588 626 478 744 553 675 l 597 736 l 618 736 l 611 569 l 611 -15 b 347 -286 611 -174 532 -286 m 583 588 b 358 717 546 644 478 717 b 104 410 189 717 104 601 l 104 382 b 358 75 104 190 189 75 b 583 204 478 75 546 147 m 329 947 b 433 1092 329 1053 363 1092 l 433 1067 b 357 958 383 1067 358 1050 l 385 958 l 385 903 l 329 903 "},"Đ":{"ha":931,"x_min":0,"x_max":0,"o":"m 188 567 l 188 1083 l 451 1083 b 847 569 681 1083 847 951 l 847 514 b 451 0 847 132 681 0 l 188 0 l 188 539 l 35 539 l 35 567 m 444 28 b 819 514 667 28 819 153 l 819 569 b 444 1056 819 931 667 1056 l 215 1056 l 215 567 l 535 567 l 535 539 l 215 539 l 215 28 "},"Ð":{"ha":931,"x_min":0,"x_max":0,"o":"m 188 567 l 188 1083 l 451 1083 b 847 569 681 1083 847 951 l 847 514 b 451 0 847 132 681 0 l 188 0 l 188 539 l 35 539 l 35 567 m 444 28 b 819 514 667 28 819 153 l 819 569 b 444 1056 819 931 667 1056 l 215 1056 l 215 567 l 535 567 l 535 539 l 215 539 l 215 28 "},"Ł":{"ha":721,"x_min":0,"x_max":0,"o":"m 188 513 l 188 1083 l 215 1083 l 215 529 l 535 714 l 535 681 l 215 496 l 215 28 l 701 28 l 701 0 l 188 0 l 188 479 l 35 392 l 35 425 "},"ð":{"ha":731,"x_min":0,"x_max":0,"o":"m 481 865 b 343 988 438 915 390 956 l 132 864 l 132 897 l 315 1006 b 78 1092 231 1057 143 1082 l 78 1119 b 343 1022 164 1108 254 1079 l 508 1119 l 508 1086 l 369 1003 b 499 885 414 971 457 932 b 654 382 624 739 654 544 l 654 354 b 365 -8 654 129 551 -8 b 76 354 179 -8 76 129 l 76 382 b 365 744 76 607 179 744 b 607 596 481 744 563 690 b 481 865 586 690 547 786 m 365 19 b 626 354 535 19 626 149 l 626 382 b 365 717 626 588 535 717 b 104 382 196 717 104 588 l 104 354 b 365 19 104 149 196 19 "},"ł":{"ha":361,"x_min":0,"x_max":0,"o":"m 333 701 l 194 599 l 194 0 l 167 0 l 167 579 l 42 488 l 42 522 l 167 614 l 167 1111 l 194 1111 l 194 633 l 333 736 "},"ª":{"ha":524,"x_min":0,"x_max":0,"o":"m 58 681 b 231 839 58 804 150 825 l 415 869 l 415 894 b 263 1064 415 993 389 1064 b 110 897 132 1064 110 988 l 82 897 l 82 908 b 263 1092 82 997 114 1092 b 443 901 406 1092 443 1003 l 443 674 l 447 539 l 426 539 l 418 625 b 214 528 388 582 328 528 b 58 668 124 528 58 579 m 215 556 b 415 665 344 556 394 629 l 415 843 l 224 811 b 86 682 147 799 86 772 l 86 668 b 215 556 86 608 128 556 m 69 347 l 447 347 l 447 319 l 69 319 "},"º":{"ha":569,"x_min":0,"x_max":0,"o":"m 285 556 b 478 800 411 556 478 650 l 478 819 b 285 1064 478 969 411 1064 b 92 819 158 1064 92 969 l 92 800 b 285 556 92 650 158 556 m 285 528 b 64 800 139 528 64 638 l 64 819 b 285 1092 64 982 139 1092 b 506 819 431 1092 506 982 l 506 800 b 285 528 506 638 431 528 m 78 347 l 492 347 l 492 319 l 78 319 "},"℗":{"ha":1250,"x_min":0,"x_max":0,"o":"m 75 542 b 625 1092 75 846 321 1092 b 1175 542 929 1092 1175 846 b 625 -8 1175 238 929 -8 b 75 542 321 -8 75 238 m 103 542 b 625 19 103 253 336 19 b 1147 542 914 19 1147 253 b 625 1064 1147 831 914 1064 b 103 542 336 1064 103 831 m 454 215 l 426 215 l 426 868 l 650 868 b 838 690 738 868 838 831 l 838 671 b 650 493 838 531 738 493 l 454 493 m 653 521 b 810 674 717 521 810 547 l 810 688 b 653 840 810 814 717 840 l 454 840 l 454 521 "},"★":{"ha":1222,"x_min":0,"x_max":0,"o":"m 250 -14 l 388 413 l 26 675 l 474 675 l 611 1100 l 749 675 l 1196 675 l 835 413 l 972 -14 l 611 250 "},"☾":{"ha":1333,"x_min":0,"x_max":0,"o":"m 867 1011 b 417 542 618 1011 417 801 b 867 72 417 282 618 72 b 1000 93 913 72 957 79 b 667 -14 906 25 789 -14 b 111 542 360 -14 111 235 b 667 1097 111 849 360 1097 b 1000 990 789 1097 906 1057 b 867 1011 957 1003 913 1011 "},"♻":{"ha":1333,"x_min":0,"x_max":0,"o":"m 1200 367 l 1067 135 b 944 57 1038 92 1018 57 l 865 57 l 865 -11 l 708 178 l 865 365 l 865 297 l 1067 297 b 1199 369 1149 297 1199 369 m 256 169 l 122 403 b 117 546 99 447 79 483 l 156 614 l 97 647 l 339 690 l 421 460 l 364 493 b 264 319 364 493 267 326 b 258 169 222 249 258 169 m 561 1083 l 829 1083 b 957 1018 882 1082 921 1081 l 996 950 l 1056 983 l 971 753 l 731 796 l 788 829 l 688 1003 b 561 1082 646 1075 561 1082 m 371 996 b 418 1039 378 1008 396 1026 b 647 990 500 1088 618 1043 l 486 711 l 278 831 m 432 57 b 371 75 417 57 392 63 b 297 297 286 124 267 246 l 619 297 l 619 57 m 1215 569 b 1229 508 1222 557 1229 533 b 1074 333 1231 413 1132 333 l 913 613 l 1119 732 "},"♼":{"ha":1333,"x_min":0,"x_max":0,"o":"m 333 768 l 494 675 l 619 892 b 442 929 597 932 506 967 b 406 896 425 919 411 906 m 547 963 b 646 901 547 963 614 956 l 724 767 l 679 740 l 865 707 l 931 886 l 885 860 l 854 913 b 756 964 826 961 796 964 l 547 964 m 593 168 l 593 354 l 343 354 b 400 182 319 314 335 219 b 447 168 417 172 436 168 m 318 256 b 322 372 318 256 290 317 l 400 507 l 444 481 l 381 660 l 193 626 l 239 600 l 208 547 b 213 436 179 499 194 471 l 317 256 m 986 692 l 825 599 l 950 382 b 1071 518 996 382 1072 443 b 1060 565 1071 538 1065 556 m 1047 410 b 944 354 1047 410 1008 354 l 789 354 l 789 407 l 667 261 l 789 115 l 789 168 l 850 168 b 944 228 907 168 925 194 l 1049 408 m 89 542 b 639 1092 89 846 335 1092 b 1189 542 943 1092 1189 846 b 639 -8 1189 238 943 -8 b 89 542 335 -8 89 238 "},"♽":{"ha":1333,"x_min":0,"x_max":0,"o":"m 406 896 b 442 929 411 906 425 919 b 619 892 506 967 597 932 l 494 675 l 333 768 m 547 964 l 756 964 b 854 913 796 964 826 961 l 885 860 l 931 886 l 865 707 l 679 740 l 724 767 l 646 901 b 547 963 614 956 547 963 m 447 168 b 400 182 436 168 417 172 b 343 354 335 219 319 314 l 593 354 l 593 168 m 317 256 l 213 436 b 208 547 194 471 179 499 l 239 600 l 193 626 l 381 660 l 444 481 l 400 507 l 322 372 b 318 256 290 317 318 256 m 1060 565 b 1071 518 1065 556 1071 538 b 950 382 1072 443 996 382 l 825 599 l 986 692 m 1049 408 l 944 228 b 850 168 925 194 907 168 l 789 168 l 789 115 l 667 261 l 789 407 l 789 354 l 944 354 b 1047 410 1008 354 1047 410 m 89 542 b 639 1092 89 846 335 1092 b 1189 542 943 1092 1189 846 b 639 -8 1189 238 943 -8 b 89 542 335 -8 89 238 m 117 542 b 639 19 117 253 350 19 b 1161 542 928 19 1161 253 b 639 1064 1161 831 928 1064 b 117 542 350 1064 117 831 "},"⌂":{"ha":1181,"x_min":0,"x_max":0,"o":"m 97 0 l 97 625 l 590 1097 l 1083 625 l 1083 0 "},"♠":{"ha":1250,"x_min":0,"x_max":0,"o":"m 626 1097 b 950 778 672 1028 803 874 b 1178 464 1071 699 1178 608 b 933 222 1178 328 1069 222 b 656 446 796 222 703 331 l 651 444 b 765 0 667 257 696 139 l 485 0 b 599 444 554 139 583 257 l 594 446 b 317 222 547 331 454 222 b 72 464 181 222 72 328 b 300 778 72 608 179 699 b 624 1097 447 874 578 1028 l 626 1097 "},"♣":{"ha":1250,"x_min":0,"x_max":0,"o":"m 485 0 b 599 444 554 139 583 257 l 594 446 b 317 222 547 331 454 222 b 72 464 181 222 72 328 b 314 714 72 608 169 714 b 431 682 361 714 399 699 l 433 685 b 381 847 403 731 381 786 b 625 1097 381 985 485 1097 b 869 847 765 1097 869 985 b 817 685 869 786 847 731 l 819 682 b 936 714 851 699 889 714 b 1178 464 1081 714 1178 608 b 933 222 1178 328 1069 222 b 656 446 796 222 703 331 l 651 444 b 765 0 667 257 696 139 l 485 0 "},"♥":{"ha":1250,"x_min":0,"x_max":0,"o":"m 624 -14 b 300 393 578 56 447 226 b 72 811 204 501 72 667 b 338 1097 72 975 174 1097 b 622 879 510 1097 582 994 l 628 879 b 913 1097 668 994 740 1097 b 1178 811 1076 1097 1178 975 b 950 393 1178 667 1046 501 b 626 -14 803 226 672 56 "},"♦":{"ha":1250,"x_min":0,"x_max":0,"o":"m 1135 542 b 626 -14 938 388 750 182 l 624 -14 b 115 542 500 182 313 388 b 624 1097 313 696 500 901 l 626 1097 b 1135 542 750 901 938 696 "},"°":{"ha":556,"x_min":0,"x_max":0,"o":"m 453 896 b 282 1064 453 1000 376 1064 l 274 1064 b 103 896 179 1064 103 1000 l 103 882 b 274 714 103 778 179 714 l 282 714 b 453 882 376 714 453 778 m 481 886 b 278 686 481 763 393 686 b 75 886 163 686 75 763 l 75 892 b 278 1092 75 1015 163 1092 b 481 892 393 1092 481 1015 "},"☼":{"ha":1333,"x_min":0,"x_max":0,"o":"m 665 -15 l 607 265 b 567 174 607 260 607 211 b 472 65 522 133 472 121 b 489 17 472 36 489 17 b 425 103 446 29 425 65 b 454 174 425 129 435 154 b 511 306 494 214 511 272 l 272 149 l 429 388 b 338 351 425 383 393 351 b 251 363 313 351 275 363 b 169 296 176 363 169 296 b 158 335 163 308 158 319 b 257 431 158 388 201 431 b 390 483 321 431 385 475 l 110 542 l 390 600 b 299 640 385 600 336 600 b 190 735 258 685 246 735 b 142 718 161 735 142 718 b 228 782 154 761 190 782 b 299 753 254 782 279 772 b 431 696 339 713 397 696 l 274 935 l 513 778 b 476 869 508 782 476 814 b 488 956 476 894 488 932 b 421 1038 488 1031 421 1038 b 460 1049 433 1044 444 1049 b 556 950 513 1049 556 1006 b 608 817 556 886 600 822 l 667 1097 l 725 817 b 765 908 725 822 725 871 b 860 1017 810 949 860 961 b 843 1065 860 1046 843 1065 b 907 979 886 1053 907 1017 b 878 908 907 953 897 928 b 821 776 838 868 821 810 l 1060 933 l 903 694 b 994 731 907 699 939 731 b 1081 719 1019 731 1057 719 b 1163 786 1156 719 1163 786 b 1174 747 1169 774 1174 763 b 1075 651 1174 694 1131 651 b 942 599 1011 651 947 607 l 1222 540 l 942 482 b 1033 442 947 482 996 482 b 1142 347 1074 397 1086 347 b 1190 364 1171 347 1190 364 b 1104 300 1178 321 1142 300 b 1033 329 1078 300 1053 310 b 901 386 993 369 935 386 l 1058 147 l 819 304 b 856 213 824 300 856 268 b 844 126 856 188 844 150 b 911 44 844 51 911 44 b 872 33 899 38 888 33 b 776 132 819 33 776 76 b 724 265 776 196 732 260 "},"№":{"ha":1458,"x_min":0,"x_max":0,"o":"m 750 250 l 750 1083 l 778 1083 l 778 0 l 743 0 l 138 1043 l 139 833 l 139 0 l 111 0 l 111 1083 l 146 1083 l 751 40 m 1174 556 b 1367 800 1300 556 1367 650 l 1367 819 b 1174 1064 1367 969 1300 1064 b 981 819 1047 1064 981 969 l 981 800 b 1174 556 981 650 1047 556 m 1174 528 b 953 800 1028 528 953 638 l 953 819 b 1174 1092 953 982 1028 1092 b 1394 819 1319 1092 1394 982 l 1394 800 b 1174 528 1394 638 1319 528 m 967 347 l 1381 347 l 1381 319 l 967 319 "},"₽":{"ha":833,"x_min":0,"x_max":0,"o":"m 35 500 l 188 500 l 188 1083 l 456 1083 b 763 792 603 1083 763 1024 l 763 764 b 456 472 763 532 603 472 l 215 472 l 215 306 l 521 306 l 521 278 l 215 278 l 215 0 l 188 0 l 188 278 l 35 278 l 35 306 l 188 306 l 188 472 l 35 472 m 454 500 b 733 765 568 500 733 536 l 733 790 b 454 1056 733 1019 568 1056 l 215 1056 l 215 500 "},"ẞ":{"ha":972,"x_min":0,"x_max":0,"o":"m 678 1019 b 472 1064 621 1051 550 1064 b 135 742 285 1064 135 993 l 135 0 l 107 0 l 107 746 b 472 1092 107 1014 278 1092 b 706 1035 560 1092 642 1076 l 706 1014 l 457 593 l 606 575 b 917 293 840 546 917 447 l 917 279 b 618 -8 917 92 806 -8 b 319 333 424 -8 319 104 l 319 347 l 347 347 b 614 19 347 104 451 19 l 622 19 b 889 274 794 19 889 113 l 889 288 b 592 549 889 446 813 521 l 425 569 l 425 590 "},"₀":{"ha":417,"x_min":0,"x_max":0,"o":"m 369 156 b 208 -7 369 63 326 -7 b 47 156 90 -7 47 63 l 47 385 b 208 549 47 479 90 549 b 369 385 326 549 369 479 l 369 156 m 340 378 b 210 522 340 465 308 522 l 206 522 b 76 378 107 522 76 465 l 76 163 b 206 19 76 76 107 19 l 210 19 b 340 163 308 19 340 76 l 340 378 "},"₁":{"ha":417,"x_min":0,"x_max":0,"o":"m 51 0 l 51 28 l 201 28 l 201 503 l 60 406 l 44 429 l 215 544 l 229 544 l 229 28 l 378 28 l 378 0 "},"₂":{"ha":417,"x_min":0,"x_max":0,"o":"m 368 28 l 368 0 l 42 0 l 42 17 l 285 272 b 346 396 332 322 346 353 l 346 403 b 210 522 346 475 292 522 l 206 522 b 69 361 114 522 69 475 l 42 361 l 42 378 b 208 549 42 485 92 549 b 375 406 310 549 375 496 l 375 399 b 311 260 375 346 363 314 l 89 26 l 142 28 "},"₃":{"ha":417,"x_min":0,"x_max":0,"o":"m 211 19 b 349 135 283 19 349 56 l 349 146 b 219 263 349 225 292 263 l 139 263 l 139 289 l 217 289 b 346 397 288 289 346 322 l 346 403 b 211 522 346 475 293 522 l 204 522 b 69 361 113 522 69 475 l 42 361 l 42 378 b 208 549 42 485 92 549 b 375 406 310 549 375 496 l 375 396 b 276 275 375 329 336 290 b 378 147 338 260 378 217 l 378 136 b 208 -7 378 44 300 -7 b 38 167 90 -7 38 61 l 38 174 l 65 174 b 204 19 65 68 117 19 "},"₄":{"ha":417,"x_min":0,"x_max":0,"o":"m 264 0 l 264 153 l 24 153 l 24 169 l 264 542 l 292 542 l 292 181 l 392 181 l 392 153 l 292 153 l 292 0 m 64 179 l 132 181 l 264 181 l 264 492 "},"₅":{"ha":417,"x_min":0,"x_max":0,"o":"m 42 235 l 56 542 l 371 542 l 371 514 l 82 514 l 72 282 b 208 340 101 319 150 340 b 378 169 300 340 378 283 l 378 163 b 208 -7 378 50 300 -7 b 38 167 90 -7 38 61 l 38 174 l 65 174 b 204 19 65 68 117 19 l 211 19 b 349 160 283 19 349 61 l 349 174 b 211 314 349 271 283 314 l 204 314 b 65 229 147 314 88 286 "},"₆":{"ha":417,"x_min":0,"x_max":0,"o":"m 357 521 b 142 417 288 521 199 492 b 78 275 107 372 88 322 b 215 340 108 314 156 340 b 382 169 310 340 382 286 l 382 163 b 211 -7 382 46 310 -7 b 42 181 118 -7 42 57 l 42 188 b 118 435 42 274 60 357 b 357 549 178 514 278 549 m 213 313 b 71 225 147 313 96 276 b 69 188 69 213 69 199 l 69 181 b 210 21 69 81 132 21 l 214 21 b 353 161 300 21 353 71 l 353 172 b 217 313 353 261 300 313 l 213 313 "},"₇":{"ha":417,"x_min":0,"x_max":0,"o":"m 44 542 l 378 542 l 378 524 l 165 0 l 135 0 l 344 514 l 72 514 l 72 347 l 44 347 "},"₈":{"ha":417,"x_min":0,"x_max":0,"o":"m 208 -7 b 38 135 115 -7 38 42 l 38 144 b 139 275 38 215 78 258 b 42 399 81 292 42 332 l 42 408 b 208 549 42 499 106 549 b 375 408 310 549 375 499 l 375 399 b 276 275 375 332 336 292 b 378 144 338 258 378 215 l 378 135 b 208 -7 378 42 300 -7 m 196 263 b 67 143 125 263 67 222 l 67 133 b 204 19 67 54 133 19 l 211 19 b 349 133 283 19 349 54 l 349 143 b 219 263 349 222 292 263 l 196 263 m 204 522 b 71 404 124 522 71 478 l 71 400 b 200 289 71 324 128 289 l 217 289 b 346 400 288 289 346 324 l 346 404 b 211 522 346 478 293 522 "},"₉":{"ha":417,"x_min":0,"x_max":0,"o":"m 58 21 b 275 125 128 21 218 49 b 338 267 308 168 328 218 b 201 201 307 226 261 201 b 35 371 107 201 35 254 l 35 378 b 204 549 35 494 107 549 b 375 361 299 549 375 483 l 375 354 b 299 107 375 268 356 183 b 58 -7 239 26 139 -7 m 203 229 b 346 318 268 229 321 265 b 347 354 346 331 347 343 l 347 361 b 207 521 347 461 285 521 l 203 521 b 64 381 117 521 64 469 l 64 369 b 199 229 64 279 117 229 "},"₊":{"ha":417,"x_min":0,"x_max":0,"o":"m 222 444 l 222 285 l 382 285 l 382 257 l 222 257 l 222 97 l 194 97 l 194 257 l 35 257 l 35 285 l 194 285 l 194 444 "},"₋":{"ha":417,"x_min":0,"x_max":0,"o":"m 35 285 l 382 285 l 382 257 l 35 257 "},"₌":{"ha":417,"x_min":0,"x_max":0,"o":"m 35 354 l 382 354 l 382 326 l 35 326 m 35 215 l 382 215 l 382 188 l 35 188 "},"₍":{"ha":208,"x_min":0,"x_max":0,"o":"m 44 278 b 131 542 44 379 82 469 l 161 542 b 72 278 111 471 72 376 l 72 264 b 161 0 72 165 111 71 l 131 0 b 44 264 82 71 44 161 "},"₎":{"ha":208,"x_min":0,"x_max":0,"o":"m 163 264 b 78 0 163 161 126 71 l 47 0 b 135 264 96 71 135 165 l 135 278 b 47 542 135 376 96 471 l 78 542 b 163 278 126 469 163 379 "},"⁰":{"ha":417,"x_min":0,"x_max":0,"o":"m 369 697 b 208 535 369 604 326 535 b 47 697 90 535 47 604 l 47 926 b 208 1090 47 1021 90 1090 b 369 926 326 1090 369 1021 l 369 697 m 340 919 b 210 1064 340 1007 308 1064 l 206 1064 b 76 919 107 1064 76 1007 l 76 704 b 206 561 76 618 107 561 l 210 561 b 340 704 308 561 340 618 l 340 919 "},"¹":{"ha":417,"x_min":0,"x_max":0,"o":"m 51 542 l 51 569 l 201 569 l 201 1044 l 60 947 l 44 971 l 215 1086 l 229 1086 l 229 569 l 378 569 l 378 542 "},"²":{"ha":417,"x_min":0,"x_max":0,"o":"m 368 569 l 368 542 l 42 542 l 42 558 l 285 814 b 346 938 332 864 346 894 l 346 944 b 210 1064 346 1017 292 1064 l 206 1064 b 69 903 114 1064 69 1017 l 42 903 l 42 919 b 208 1090 42 1026 92 1090 b 375 947 310 1090 375 1038 l 375 940 b 311 801 375 888 363 856 l 89 568 l 142 569 "},"³":{"ha":417,"x_min":0,"x_max":0,"o":"m 211 561 b 349 676 283 561 349 597 l 349 688 b 219 804 349 767 292 804 l 139 804 l 139 831 l 217 831 b 346 939 288 831 346 864 l 346 944 b 211 1064 346 1017 293 1064 l 204 1064 b 69 903 113 1064 69 1017 l 42 903 l 42 919 b 208 1090 42 1026 92 1090 b 375 947 310 1090 375 1038 l 375 938 b 276 817 375 871 336 832 b 378 689 338 801 378 758 l 378 678 b 208 535 378 586 300 535 b 38 708 90 535 38 603 l 38 715 l 65 715 b 204 561 65 610 117 561 "},"⁴":{"ha":417,"x_min":0,"x_max":0,"o":"m 264 542 l 264 694 l 24 694 l 24 711 l 264 1083 l 292 1083 l 292 722 l 392 722 l 392 694 l 292 694 l 292 542 m 64 721 l 132 722 l 264 722 l 264 1033 "},"⁵":{"ha":417,"x_min":0,"x_max":0,"o":"m 42 776 l 56 1083 l 371 1083 l 371 1056 l 82 1056 l 72 824 b 208 882 101 861 150 882 b 378 711 300 882 378 825 l 378 704 b 208 535 378 592 300 535 b 38 708 90 535 38 603 l 38 715 l 65 715 b 204 561 65 610 117 561 l 211 561 b 349 701 283 561 349 603 l 349 715 b 211 856 349 813 283 856 l 204 856 b 65 771 147 856 88 828 "},"⁶":{"ha":417,"x_min":0,"x_max":0,"o":"m 357 1063 b 142 958 288 1063 199 1033 b 78 817 107 914 88 864 b 215 882 108 856 156 882 b 382 711 310 882 382 828 l 382 704 b 211 535 382 588 310 535 b 42 722 118 535 42 599 l 42 729 b 118 976 42 815 60 899 b 357 1090 178 1056 278 1090 m 213 854 b 71 767 147 854 96 818 b 69 729 69 754 69 740 l 69 722 b 210 563 69 622 132 563 l 214 563 b 353 703 300 563 353 613 l 353 714 b 217 854 353 803 300 854 l 213 854 "},"⁷":{"ha":417,"x_min":0,"x_max":0,"o":"m 44 1083 l 378 1083 l 378 1065 l 165 542 l 135 542 l 344 1056 l 72 1056 l 72 889 l 44 889 "},"⁸":{"ha":417,"x_min":0,"x_max":0,"o":"m 208 535 b 38 676 115 535 38 583 l 38 686 b 139 817 38 757 78 800 b 42 940 81 833 42 874 l 42 950 b 208 1090 42 1040 106 1090 b 375 950 310 1090 375 1040 l 375 940 b 276 817 375 874 336 833 b 378 686 338 800 378 757 l 378 676 b 208 535 378 583 300 535 m 196 804 b 67 685 125 804 67 764 l 67 675 b 204 561 67 596 133 561 l 211 561 b 349 675 283 561 349 596 l 349 685 b 219 804 349 764 292 804 l 196 804 m 204 1064 b 71 946 124 1064 71 1019 l 71 942 b 200 831 71 865 128 831 l 217 831 b 346 942 288 831 346 865 l 346 946 b 211 1064 346 1019 293 1064 "},"⁹":{"ha":417,"x_min":0,"x_max":0,"o":"m 58 563 b 275 667 128 563 218 590 b 338 808 308 710 328 760 b 201 743 307 768 261 743 b 35 913 107 743 35 796 l 35 919 b 204 1090 35 1036 107 1090 b 375 903 299 1090 375 1025 l 375 896 b 299 649 375 810 356 725 b 58 535 239 568 139 535 m 203 771 b 346 860 268 771 321 807 b 347 896 346 872 347 885 l 347 903 b 207 1063 347 1003 285 1063 l 203 1063 b 64 922 117 1063 64 1011 l 64 911 b 199 771 64 821 117 771 "},"⁺":{"ha":417,"x_min":0,"x_max":0,"o":"m 222 986 l 222 826 l 382 826 l 382 799 l 222 799 l 222 639 l 194 639 l 194 799 l 35 799 l 35 826 l 194 826 l 194 986 "},"⁻":{"ha":417,"x_min":0,"x_max":0,"o":"m 35 826 l 382 826 l 382 799 l 35 799 "},"⁼":{"ha":417,"x_min":0,"x_max":0,"o":"m 35 896 l 382 896 l 382 868 l 35 868 m 35 757 l 382 757 l 382 729 l 35 729 "},"⁽":{"ha":208,"x_min":0,"x_max":0,"o":"m 44 819 b 131 1083 44 921 82 1011 l 161 1083 b 72 819 111 1013 72 918 l 72 806 b 161 542 72 707 111 613 l 131 542 b 44 806 82 613 44 703 "},"⁾":{"ha":208,"x_min":0,"x_max":0,"o":"m 163 806 b 78 542 163 703 126 613 l 47 542 b 135 806 96 613 135 707 l 135 819 b 47 1083 135 918 96 1013 l 78 1083 b 163 819 126 1011 163 921 "},"":{"ha":417,"x_min":0,"x_max":0,"o":"m 369 -122 b 208 -285 369 -215 326 -285 b 47 -122 90 -285 47 -215 l 47 107 b 208 271 47 201 90 271 b 369 107 326 271 369 201 l 369 -122 m 340 100 b 210 244 340 188 308 244 l 206 244 b 76 100 107 244 76 188 l 76 -115 b 206 -258 76 -201 107 -258 l 210 -258 b 340 -115 308 -258 340 -201 l 340 100 "},"":{"ha":417,"x_min":0,"x_max":0,"o":"m 51 -278 l 51 -250 l 201 -250 l 201 225 l 60 128 l 44 151 l 215 267 l 229 267 l 229 -250 l 378 -250 l 378 -278 "},"":{"ha":417,"x_min":0,"x_max":0,"o":"m 368 -250 l 368 -278 l 42 -278 l 42 -261 l 285 -6 b 346 118 332 44 346 75 l 346 125 b 210 244 346 197 292 244 l 206 244 b 69 83 114 244 69 197 l 42 83 l 42 100 b 208 271 42 207 92 271 b 375 128 310 271 375 218 l 375 121 b 311 -18 375 68 363 36 l 89 -251 l 142 -250 "},"":{"ha":417,"x_min":0,"x_max":0,"o":"m 211 -258 b 349 -143 283 -258 349 -222 l 349 -132 b 219 -15 349 -53 292 -15 l 139 -15 l 139 11 l 217 11 b 346 119 288 11 346 44 l 346 125 b 211 244 346 197 293 244 l 204 244 b 69 83 113 244 69 197 l 42 83 l 42 100 b 208 271 42 207 92 271 b 375 128 310 271 375 218 l 375 118 b 276 -1 375 51 336 13 b 378 -131 338 -18 378 -60 l 378 -142 b 208 -285 378 -233 300 -285 b 38 -111 90 -285 38 -217 l 38 -104 l 65 -104 b 204 -258 65 -210 117 -258 "},"":{"ha":417,"x_min":0,"x_max":0,"o":"m 264 -278 l 264 -125 l 24 -125 l 24 -108 l 264 264 l 292 264 l 292 -97 l 392 -97 l 392 -125 l 292 -125 l 292 -278 m 64 -99 l 132 -97 l 264 -97 l 264 214 "},"":{"ha":417,"x_min":0,"x_max":0,"o":"m 42 -43 l 56 264 l 371 264 l 371 236 l 82 236 l 72 4 b 208 63 101 42 150 63 b 378 -108 300 63 378 6 l 378 -115 b 208 -285 378 -228 300 -285 b 38 -111 90 -285 38 -217 l 38 -104 l 65 -104 b 204 -258 65 -210 117 -258 l 211 -258 b 349 -118 283 -258 349 -217 l 349 -104 b 211 36 349 -7 283 36 l 204 36 b 65 -49 147 36 88 8 "},"":{"ha":417,"x_min":0,"x_max":0,"o":"m 357 243 b 142 139 288 243 199 214 b 78 -3 107 94 88 44 b 215 63 108 36 156 63 b 382 -108 310 63 382 8 l 382 -115 b 211 -285 382 -232 310 -285 b 42 -97 118 -285 42 -221 l 42 -90 b 118 157 42 -4 60 79 b 357 271 178 236 278 271 m 213 35 b 71 -51 147 35 96 0 b 69 -90 69 -65 69 -78 l 69 -97 b 210 -257 69 -197 132 -257 l 214 -257 b 353 -117 300 -257 353 -207 l 353 -106 b 217 35 353 -17 300 35 l 213 35 "},"":{"ha":417,"x_min":0,"x_max":0,"o":"m 44 264 l 378 264 l 378 246 l 165 -278 l 135 -278 l 344 236 l 72 236 l 72 69 l 44 69 "},"":{"ha":417,"x_min":0,"x_max":0,"o":"m 208 -285 b 38 -143 115 -285 38 -236 l 38 -133 b 139 -1 38 -61 78 -18 b 42 121 81 14 42 54 l 42 131 b 208 271 42 221 106 271 b 375 131 310 271 375 221 l 375 121 b 276 -1 375 54 336 14 b 378 -133 338 -18 378 -62 l 378 -143 b 208 -285 378 -236 300 -285 m 196 -15 b 67 -135 125 -15 67 -56 l 67 -144 b 204 -258 67 -224 133 -258 l 211 -258 b 349 -144 283 -258 349 -224 l 349 -135 b 219 -15 349 -56 292 -15 l 196 -15 m 204 244 b 71 126 124 244 71 200 l 71 122 b 200 11 71 46 128 11 l 217 11 b 346 122 288 11 346 46 l 346 126 b 211 244 346 200 293 244 "},"":{"ha":417,"x_min":0,"x_max":0,"o":"m 58 -257 b 275 -153 128 -257 218 -229 b 338 -11 308 -108 328 -58 b 201 -76 307 -50 261 -76 b 35 93 107 -76 35 -24 l 35 100 b 204 271 35 217 107 271 b 375 83 299 271 375 206 l 375 76 b 299 -171 375 -10 356 -94 b 58 -285 239 -251 139 -285 m 203 -49 b 346 40 268 -49 321 -11 b 347 76 346 53 347 65 l 347 83 b 207 243 347 183 285 243 l 203 243 b 64 103 117 243 64 192 l 64 92 b 199 -49 64 1 117 -49 "},"":{"ha":417,"x_min":0,"x_max":0,"o":"m 222 167 l 222 7 l 382 7 l 382 -21 l 222 -21 l 222 -181 l 194 -181 l 194 -21 l 35 -21 l 35 7 l 194 7 l 194 167 "},"":{"ha":417,"x_min":0,"x_max":0,"o":"m 35 7 l 382 7 l 382 -21 l 35 -21 "},"":{"ha":417,"x_min":0,"x_max":0,"o":"m 35 76 l 382 76 l 382 49 l 35 49 m 35 -62 l 382 -62 l 382 -90 l 35 -90 "},"":{"ha":208,"x_min":0,"x_max":0,"o":"m 44 0 b 131 264 44 101 82 192 l 161 264 b 72 0 111 193 72 99 l 72 -14 b 161 -278 72 -112 111 -207 l 131 -278 b 44 -14 82 -207 44 -117 "},"":{"ha":208,"x_min":0,"x_max":0,"o":"m 163 -14 b 78 -278 163 -117 126 -207 l 47 -278 b 135 -14 96 -207 135 -112 l 135 0 b 47 264 135 99 96 193 l 78 264 b 163 0 126 192 163 101 "},"":{"ha":417,"x_min":0,"x_max":0,"o":"m 347 738 l 94 542 l 347 346 l 347 311 l 69 528 l 69 556 l 347 772 "},"":{"ha":417,"x_min":0,"x_max":0,"o":"m 69 772 l 347 556 l 347 528 l 69 311 l 69 346 l 322 542 l 69 738 "},"":{"ha":694,"x_min":0,"x_max":0,"o":"m 347 738 l 94 542 l 347 346 l 347 311 l 69 528 l 69 556 l 347 772 m 625 738 l 372 542 l 625 346 l 625 311 l 347 528 l 347 556 l 625 772 "},"":{"ha":694,"x_min":0,"x_max":0,"o":"m 347 772 l 625 556 l 625 528 l 347 311 l 347 346 l 600 542 l 347 738 m 69 772 l 347 556 l 347 528 l 69 311 l 69 346 l 322 542 l 69 738 "},"":{"ha":417,"x_min":0,"x_max":0,"o":"m 236 0 l 181 0 l 181 56 l 236 56 "},"":{"ha":417,"x_min":0,"x_max":0,"o":"m 236 11 b 118 -146 236 -94 189 -146 l 118 -118 b 208 0 168 -118 207 -92 l 181 0 l 181 56 l 236 56 "},"":{"ha":417,"x_min":0,"x_max":0,"o":"m 236 0 l 181 0 l 181 56 l 236 56 m 236 514 l 181 514 l 181 569 l 236 569 "},"":{"ha":417,"x_min":0,"x_max":0,"o":"m 236 514 l 181 514 l 181 569 l 236 569 m 236 11 b 118 -146 236 -94 189 -146 l 118 -118 b 208 0 168 -118 207 -92 l 181 0 l 181 56 l 236 56 "},"⁄":{"ha":278,"x_min":0,"x_max":0,"o":"m -278 0 l 522 1083 l 556 1083 l -244 0 "},"⅟":{"ha":694,"x_min":0,"x_max":0,"o":"m 139 0 l 939 1083 l 972 1083 l 172 0 m 51 542 l 51 569 l 201 569 l 201 1044 l 60 947 l 44 971 l 215 1086 l 229 1086 l 229 569 l 378 569 l 378 542 "},"½":{"ha":1111,"x_min":0,"x_max":0,"o":"m 1063 28 l 1063 0 l 736 0 l 736 17 l 979 272 b 1040 396 1026 322 1040 353 l 1040 403 b 904 522 1040 475 986 522 l 900 522 b 764 361 808 522 764 475 l 736 361 l 736 378 b 903 549 736 485 786 549 b 1069 406 1004 549 1069 496 l 1069 399 b 1006 260 1069 346 1057 314 l 783 26 l 836 28 m 139 0 l 939 1083 l 972 1083 l 172 0 m 51 542 l 51 569 l 201 569 l 201 1044 l 60 947 l 44 971 l 215 1086 l 229 1086 l 229 569 l 378 569 l 378 542 "},"⅓":{"ha":1111,"x_min":0,"x_max":0,"o":"m 906 19 b 1043 135 978 19 1043 56 l 1043 146 b 914 263 1043 225 986 263 l 833 263 l 833 289 l 911 289 b 1040 397 982 289 1040 322 l 1040 403 b 906 522 1040 475 988 522 l 899 522 b 764 361 807 522 764 475 l 736 361 l 736 378 b 903 549 736 485 786 549 b 1069 406 1004 549 1069 496 l 1069 396 b 971 275 1069 329 1031 290 b 1072 147 1032 260 1072 217 l 1072 136 b 903 -7 1072 44 994 -7 b 732 167 785 -7 732 61 l 732 174 l 760 174 b 899 19 760 68 811 19 m 139 0 l 939 1083 l 972 1083 l 172 0 m 51 542 l 51 569 l 201 569 l 201 1044 l 60 947 l 44 971 l 215 1086 l 229 1086 l 229 569 l 378 569 l 378 542 "},"⅔":{"ha":1111,"x_min":0,"x_max":0,"o":"m 906 19 b 1043 135 978 19 1043 56 l 1043 146 b 914 263 1043 225 986 263 l 833 263 l 833 289 l 911 289 b 1040 397 982 289 1040 322 l 1040 403 b 906 522 1040 475 988 522 l 899 522 b 764 361 807 522 764 475 l 736 361 l 736 378 b 903 549 736 485 786 549 b 1069 406 1004 549 1069 496 l 1069 396 b 971 275 1069 329 1031 290 b 1072 147 1032 260 1072 217 l 1072 136 b 903 -7 1072 44 994 -7 b 732 167 785 -7 732 61 l 732 174 l 760 174 b 899 19 760 68 811 19 m 368 569 l 368 542 l 42 542 l 42 558 l 285 814 b 346 938 332 864 346 894 l 346 944 b 210 1064 346 1017 292 1064 l 206 1064 b 69 903 114 1064 69 1017 l 42 903 l 42 919 b 208 1090 42 1026 92 1090 b 375 947 310 1090 375 1038 l 375 940 b 311 801 375 888 363 856 l 89 568 l 142 569 m 139 0 l 939 1083 l 972 1083 l 172 0 "},"¼":{"ha":1111,"x_min":0,"x_max":0,"o":"m 958 0 l 958 153 l 718 153 l 718 169 l 958 542 l 986 542 l 986 181 l 1086 181 l 1086 153 l 986 153 l 986 0 m 139 0 l 939 1083 l 972 1083 l 172 0 m 758 179 l 826 181 l 958 181 l 958 492 m 51 542 l 51 569 l 201 569 l 201 1044 l 60 947 l 44 971 l 215 1086 l 229 1086 l 229 569 l 378 569 l 378 542 "},"¾":{"ha":1111,"x_min":0,"x_max":0,"o":"m 958 0 l 958 153 l 718 153 l 718 169 l 958 542 l 986 542 l 986 181 l 1086 181 l 1086 153 l 986 153 l 986 0 m 211 561 b 349 676 283 561 349 597 l 349 688 b 219 804 349 767 292 804 l 139 804 l 139 831 l 217 831 b 346 939 288 831 346 864 l 346 944 b 211 1064 346 1017 293 1064 l 204 1064 b 69 903 113 1064 69 1017 l 42 903 l 42 919 b 208 1090 42 1026 92 1090 b 375 947 310 1090 375 1038 l 375 938 b 276 817 375 871 336 832 b 378 689 338 801 378 758 l 378 678 b 208 535 378 586 300 535 b 38 708 90 535 38 603 l 38 715 l 65 715 b 204 561 65 610 117 561 m 139 0 l 939 1083 l 972 1083 l 172 0 m 758 179 l 826 181 l 958 181 l 958 492 "},"⅕":{"ha":1111,"x_min":0,"x_max":0,"o":"m 736 235 l 750 542 l 1065 542 l 1065 514 l 776 514 l 767 282 b 903 340 796 319 844 340 b 1072 169 994 340 1072 283 l 1072 163 b 903 -7 1072 50 994 -7 b 732 167 785 -7 732 61 l 732 174 l 760 174 b 899 19 760 68 811 19 l 906 19 b 1043 160 978 19 1043 61 l 1043 174 b 906 314 1043 271 978 314 l 899 314 b 760 229 842 314 782 286 m 139 0 l 939 1083 l 972 1083 l 172 0 m 51 542 l 51 569 l 201 569 l 201 1044 l 60 947 l 44 971 l 215 1086 l 229 1086 l 229 569 l 378 569 l 378 542 "},"⅖":{"ha":1111,"x_min":0,"x_max":0,"o":"m 736 235 l 750 542 l 1065 542 l 1065 514 l 776 514 l 767 282 b 903 340 796 319 844 340 b 1072 169 994 340 1072 283 l 1072 163 b 903 -7 1072 50 994 -7 b 732 167 785 -7 732 61 l 732 174 l 760 174 b 899 19 760 68 811 19 l 906 19 b 1043 160 978 19 1043 61 l 1043 174 b 906 314 1043 271 978 314 l 899 314 b 760 229 842 314 782 286 m 368 569 l 368 542 l 42 542 l 42 558 l 285 814 b 346 938 332 864 346 894 l 346 944 b 210 1064 346 1017 292 1064 l 206 1064 b 69 903 114 1064 69 1017 l 42 903 l 42 919 b 208 1090 42 1026 92 1090 b 375 947 310 1090 375 1038 l 375 940 b 311 801 375 888 363 856 l 89 568 l 142 569 m 139 0 l 939 1083 l 972 1083 l 172 0 "},"⅗":{"ha":1111,"x_min":0,"x_max":0,"o":"m 1065 514 l 776 514 l 767 282 b 903 340 796 319 844 340 b 1072 169 994 340 1072 283 l 1072 163 b 903 -7 1072 50 994 -7 b 732 167 785 -7 732 61 l 732 174 l 760 174 b 899 19 760 68 811 19 l 906 19 b 1043 160 978 19 1043 61 l 1043 174 b 906 314 1043 271 978 314 l 899 314 b 760 229 842 314 782 286 l 736 235 l 750 542 l 1065 542 m 211 561 b 349 676 283 561 349 597 l 349 688 b 219 804 349 767 292 804 l 139 804 l 139 831 l 217 831 b 346 939 288 831 346 864 l 346 944 b 211 1064 346 1017 293 1064 l 204 1064 b 69 903 113 1064 69 1017 l 42 903 l 42 919 b 208 1090 42 1026 92 1090 b 375 947 310 1090 375 1038 l 375 938 b 276 817 375 871 336 832 b 378 689 338 801 378 758 l 378 678 b 208 535 378 586 300 535 b 38 708 90 535 38 603 l 38 715 l 65 715 b 204 561 65 610 117 561 m 139 0 l 939 1083 l 972 1083 l 172 0 "},"⅘":{"ha":1111,"x_min":0,"x_max":0,"o":"m 264 542 l 264 694 l 24 694 l 24 711 l 264 1083 l 292 1083 l 292 722 l 392 722 l 392 694 l 292 694 l 292 542 m 736 235 l 750 542 l 1065 542 l 1065 514 l 776 514 l 767 282 b 903 340 796 319 844 340 b 1072 169 994 340 1072 283 l 1072 163 b 903 -7 1072 50 994 -7 b 732 167 785 -7 732 61 l 732 174 l 760 174 b 899 19 760 68 811 19 l 906 19 b 1043 160 978 19 1043 61 l 1043 174 b 906 314 1043 271 978 314 l 899 314 b 760 229 842 314 782 286 m 139 0 l 939 1083 l 972 1083 l 172 0 m 64 721 l 132 722 l 264 722 l 264 1033 "},"⅙":{"ha":1111,"x_min":0,"x_max":0,"o":"m 1051 521 b 836 417 982 521 893 492 b 772 275 801 372 782 322 b 910 340 803 314 850 340 b 1076 169 1004 340 1076 286 l 1076 163 b 906 -7 1076 46 1004 -7 b 736 181 813 -7 736 57 l 736 188 b 813 435 736 274 754 357 b 1051 549 872 514 972 549 m 907 313 b 765 225 842 313 790 276 b 764 188 764 213 764 199 l 764 181 b 904 21 764 81 826 21 l 908 21 b 1047 161 994 21 1047 71 l 1047 172 b 911 313 1047 261 994 313 l 907 313 m 139 0 l 939 1083 l 972 1083 l 172 0 m 51 542 l 51 569 l 201 569 l 201 1044 l 60 947 l 44 971 l 215 1086 l 229 1086 l 229 569 l 378 569 l 378 542 "},"⅚":{"ha":1111,"x_min":0,"x_max":0,"o":"m 1051 521 b 836 417 982 521 893 492 b 772 275 801 372 782 322 b 910 340 803 314 850 340 b 1076 169 1004 340 1076 286 l 1076 163 b 906 -7 1076 46 1004 -7 b 736 181 813 -7 736 57 l 736 188 b 813 435 736 274 754 357 b 1051 549 872 514 972 549 m 907 313 b 765 225 842 313 790 276 b 764 188 764 213 764 199 l 764 181 b 904 21 764 81 826 21 l 908 21 b 1047 161 994 21 1047 71 l 1047 172 b 911 313 1047 261 994 313 l 907 313 m 42 776 l 56 1083 l 371 1083 l 371 1056 l 82 1056 l 72 824 b 208 882 101 861 150 882 b 378 711 300 882 378 825 l 378 704 b 208 535 378 592 300 535 b 38 708 90 535 38 603 l 38 715 l 65 715 b 204 561 65 610 117 561 l 211 561 b 349 701 283 561 349 603 l 349 715 b 211 856 349 813 283 856 l 204 856 b 65 771 147 856 88 828 m 139 0 l 939 1083 l 972 1083 l 172 0 "},"⅛":{"ha":1111,"x_min":0,"x_max":0,"o":"m 903 -7 b 732 135 810 -7 732 42 l 732 144 b 833 275 732 215 772 258 b 736 399 775 292 736 332 l 736 408 b 903 549 736 499 800 549 b 1069 408 1004 549 1069 499 l 1069 399 b 971 275 1069 332 1031 292 b 1072 144 1032 258 1072 215 l 1072 135 b 903 -7 1072 42 994 -7 m 890 263 b 761 143 819 263 761 222 l 761 133 b 899 19 761 54 828 19 l 906 19 b 1043 133 978 19 1043 54 l 1043 143 b 914 263 1043 222 986 263 l 890 263 m 899 522 b 765 404 818 522 765 478 l 765 400 b 894 289 765 324 822 289 l 911 289 b 1040 400 982 289 1040 324 l 1040 404 b 906 522 1040 478 988 522 m 139 0 l 939 1083 l 972 1083 l 172 0 m 51 542 l 51 569 l 201 569 l 201 1044 l 60 947 l 44 971 l 215 1086 l 229 1086 l 229 569 l 378 569 l 378 542 "},"⅜":{"ha":1111,"x_min":0,"x_max":0,"o":"m 903 -7 b 732 135 810 -7 732 42 l 732 144 b 833 275 732 215 772 258 b 736 399 775 292 736 332 l 736 408 b 903 549 736 499 800 549 b 1069 408 1004 549 1069 499 l 1069 399 b 971 275 1069 332 1031 292 b 1072 144 1032 258 1072 215 l 1072 135 b 903 -7 1072 42 994 -7 m 890 263 b 761 143 819 263 761 222 l 761 133 b 899 19 761 54 828 19 l 906 19 b 1043 133 978 19 1043 54 l 1043 143 b 914 263 1043 222 986 263 l 890 263 m 899 522 b 765 404 818 522 765 478 l 765 400 b 894 289 765 324 822 289 l 911 289 b 1040 400 982 289 1040 324 l 1040 404 b 906 522 1040 478 988 522 m 211 561 b 349 676 283 561 349 597 l 349 688 b 219 804 349 767 292 804 l 139 804 l 139 831 l 217 831 b 346 939 288 831 346 864 l 346 944 b 211 1064 346 1017 293 1064 l 204 1064 b 69 903 113 1064 69 1017 l 42 903 l 42 919 b 208 1090 42 1026 92 1090 b 375 947 310 1090 375 1038 l 375 938 b 276 817 375 871 336 832 b 378 689 338 801 378 758 l 378 678 b 208 535 378 586 300 535 b 38 708 90 535 38 603 l 38 715 l 65 715 b 204 561 65 610 117 561 m 139 0 l 939 1083 l 972 1083 l 172 0 "},"⅝":{"ha":1111,"x_min":0,"x_max":0,"o":"m 903 -7 b 732 135 810 -7 732 42 l 732 144 b 833 275 732 215 772 258 b 736 399 775 292 736 332 l 736 408 b 903 549 736 499 800 549 b 1069 408 1004 549 1069 499 l 1069 399 b 971 275 1069 332 1031 292 b 1072 144 1032 258 1072 215 l 1072 135 b 903 -7 1072 42 994 -7 m 890 263 b 761 143 819 263 761 222 l 761 133 b 899 19 761 54 828 19 l 906 19 b 1043 133 978 19 1043 54 l 1043 143 b 914 263 1043 222 986 263 l 890 263 m 899 522 b 765 404 818 522 765 478 l 765 400 b 894 289 765 324 822 289 l 911 289 b 1040 400 982 289 1040 324 l 1040 404 b 906 522 1040 478 988 522 m 42 776 l 56 1083 l 371 1083 l 371 1056 l 82 1056 l 72 824 b 208 882 101 861 150 882 b 378 711 300 882 378 825 l 378 704 b 208 535 378 592 300 535 b 38 708 90 535 38 603 l 38 715 l 65 715 b 204 561 65 610 117 561 l 211 561 b 349 701 283 561 349 603 l 349 715 b 211 856 349 813 283 856 l 204 856 b 65 771 147 856 88 828 m 139 0 l 939 1083 l 972 1083 l 172 0 "},"⅞":{"ha":1111,"x_min":0,"x_max":0,"o":"m 903 -7 b 732 135 810 -7 732 42 l 732 144 b 833 275 732 215 772 258 b 736 399 775 292 736 332 l 736 408 b 903 549 736 499 800 549 b 1069 408 1004 549 1069 499 l 1069 399 b 971 275 1069 332 1031 292 b 1072 144 1032 258 1072 215 l 1072 135 b 903 -7 1072 42 994 -7 m 890 263 b 761 143 819 263 761 222 l 761 133 b 899 19 761 54 828 19 l 906 19 b 1043 133 978 19 1043 54 l 1043 143 b 914 263 1043 222 986 263 l 890 263 m 899 522 b 765 404 818 522 765 478 l 765 400 b 894 289 765 324 822 289 l 911 289 b 1040 400 982 289 1040 324 l 1040 404 b 906 522 1040 478 988 522 m 139 0 l 939 1083 l 972 1083 l 172 0 m 44 1083 l 378 1083 l 378 1065 l 165 542 l 135 542 l 344 1056 l 72 1056 l 72 889 l 44 889 "},"":{"ha":1528,"x_min":0,"x_max":0,"o":"m 1468 521 b 1253 417 1399 521 1310 492 b 1189 275 1218 372 1199 322 b 1326 340 1219 314 1267 340 b 1493 169 1421 340 1493 286 l 1493 163 b 1322 -7 1493 46 1421 -7 b 1153 181 1229 -7 1153 57 l 1153 188 b 1229 435 1153 274 1171 357 b 1468 549 1289 514 1389 549 m 1324 313 b 1182 225 1258 313 1207 276 b 1181 188 1181 213 1181 199 l 1181 181 b 1321 21 1181 81 1243 21 l 1325 21 b 1464 161 1411 21 1464 71 l 1464 172 b 1328 313 1464 261 1411 313 l 1324 313 m 139 0 l 939 1083 l 972 1083 l 172 0 m 746 0 l 746 28 l 896 28 l 896 503 l 754 406 l 739 429 l 910 544 l 924 544 l 924 28 l 1072 28 l 1072 0 m 51 542 l 51 569 l 201 569 l 201 1044 l 60 947 l 44 971 l 215 1086 l 229 1086 l 229 569 l 378 569 l 378 542 "},"":{"ha":1528,"x_min":0,"x_max":0,"o":"m 1468 521 b 1253 417 1399 521 1310 492 b 1189 275 1218 372 1199 322 b 1326 340 1219 314 1267 340 b 1493 169 1421 340 1493 286 l 1493 163 b 1322 -7 1493 46 1421 -7 b 1153 181 1229 -7 1153 57 l 1153 188 b 1229 435 1153 274 1171 357 b 1468 549 1289 514 1389 549 m 1324 313 b 1182 225 1258 313 1207 276 b 1181 188 1181 213 1181 199 l 1181 181 b 1321 21 1181 81 1243 21 l 1325 21 b 1464 161 1411 21 1464 71 l 1464 172 b 1328 313 1464 261 1411 313 l 1324 313 m 211 561 b 349 676 283 561 349 597 l 349 688 b 219 804 349 767 292 804 l 139 804 l 139 831 l 217 831 b 346 939 288 831 346 864 l 346 944 b 211 1064 346 1017 293 1064 l 204 1064 b 69 903 113 1064 69 1017 l 42 903 l 42 919 b 208 1090 42 1026 92 1090 b 375 947 310 1090 375 1038 l 375 938 b 276 817 375 871 336 832 b 378 689 338 801 378 758 l 378 678 b 208 535 378 586 300 535 b 38 708 90 535 38 603 l 38 715 l 65 715 b 204 561 65 610 117 561 m 139 0 l 939 1083 l 972 1083 l 172 0 m 746 0 l 746 28 l 896 28 l 896 503 l 754 406 l 739 429 l 910 544 l 924 544 l 924 28 l 1072 28 l 1072 0 "},"":{"ha":1528,"x_min":0,"x_max":0,"o":"m 1468 521 b 1253 417 1399 521 1310 492 b 1189 275 1218 372 1199 322 b 1326 340 1219 314 1267 340 b 1493 169 1421 340 1493 286 l 1493 163 b 1322 -7 1493 46 1421 -7 b 1153 181 1229 -7 1153 57 l 1153 188 b 1229 435 1153 274 1171 357 b 1468 549 1289 514 1389 549 m 1324 313 b 1182 225 1258 313 1207 276 b 1181 188 1181 213 1181 199 l 1181 181 b 1321 21 1181 81 1243 21 l 1325 21 b 1464 161 1411 21 1464 71 l 1464 172 b 1328 313 1464 261 1411 313 l 1324 313 m 42 776 l 56 1083 l 371 1083 l 371 1056 l 82 1056 l 72 824 b 208 882 101 861 150 882 b 378 711 300 882 378 825 l 378 704 b 208 535 378 592 300 535 b 38 708 90 535 38 603 l 38 715 l 65 715 b 204 561 65 610 117 561 l 211 561 b 349 701 283 561 349 603 l 349 715 b 211 856 349 813 283 856 l 204 856 b 65 771 147 856 88 828 m 139 0 l 939 1083 l 972 1083 l 172 0 m 746 0 l 746 28 l 896 28 l 896 503 l 754 406 l 739 429 l 910 544 l 924 544 l 924 28 l 1072 28 l 1072 0 "},"":{"ha":1528,"x_min":0,"x_max":0,"o":"m 1468 521 b 1253 417 1399 521 1310 492 b 1189 275 1218 372 1199 322 b 1326 340 1219 314 1267 340 b 1493 169 1421 340 1493 286 l 1493 163 b 1322 -7 1493 46 1421 -7 b 1153 181 1229 -7 1153 57 l 1153 188 b 1229 435 1153 274 1171 357 b 1468 549 1289 514 1389 549 m 1324 313 b 1182 225 1258 313 1207 276 b 1181 188 1181 213 1181 199 l 1181 181 b 1321 21 1181 81 1243 21 l 1325 21 b 1464 161 1411 21 1464 71 l 1464 172 b 1328 313 1464 261 1411 313 l 1324 313 m 139 0 l 939 1083 l 972 1083 l 172 0 m 44 1083 l 378 1083 l 378 1065 l 165 542 l 135 542 l 344 1056 l 72 1056 l 72 889 l 44 889 m 746 0 l 746 28 l 896 28 l 896 503 l 754 406 l 739 429 l 910 544 l 924 544 l 924 28 l 1072 28 l 1072 0 "},"":{"ha":1528,"x_min":0,"x_max":0,"o":"m 58 563 b 275 667 128 563 218 590 b 338 808 308 710 328 760 b 201 743 307 768 261 743 b 35 913 107 743 35 796 l 35 919 b 204 1090 35 1036 107 1090 b 375 903 299 1090 375 1025 l 375 896 b 299 649 375 810 356 725 b 58 535 239 568 139 535 m 1468 521 b 1253 417 1399 521 1310 492 b 1189 275 1218 372 1199 322 b 1326 340 1219 314 1267 340 b 1493 169 1421 340 1493 286 l 1493 163 b 1322 -7 1493 46 1421 -7 b 1153 181 1229 -7 1153 57 l 1153 188 b 1229 435 1153 274 1171 357 b 1468 549 1289 514 1389 549 m 1324 313 b 1182 225 1258 313 1207 276 b 1181 188 1181 213 1181 199 l 1181 181 b 1321 21 1181 81 1243 21 l 1325 21 b 1464 161 1411 21 1464 71 l 1464 172 b 1328 313 1464 261 1411 313 l 1324 313 m 203 771 b 346 860 268 771 321 807 b 347 896 346 872 347 885 l 347 903 b 207 1063 347 1003 285 1063 l 203 1063 b 64 922 117 1063 64 1011 l 64 911 b 199 771 64 821 117 771 m 139 0 l 939 1083 l 972 1083 l 172 0 m 746 0 l 746 28 l 896 28 l 896 503 l 754 406 l 739 429 l 910 544 l 924 544 l 924 28 l 1072 28 l 1072 0 "},"":{"ha":1944,"x_min":0,"x_max":0,"o":"m 1885 521 b 1669 417 1815 521 1726 492 b 1606 275 1635 372 1615 322 b 1743 340 1636 314 1683 340 b 1910 169 1838 340 1910 286 l 1910 163 b 1739 -7 1910 46 1838 -7 b 1569 181 1646 -7 1569 57 l 1569 188 b 1646 435 1569 274 1588 357 b 1885 549 1706 514 1806 549 m 1740 313 b 1599 225 1675 313 1624 276 b 1597 188 1597 213 1597 199 l 1597 181 b 1738 21 1597 81 1660 21 l 1742 21 b 1881 161 1828 21 1881 71 l 1881 172 b 1744 313 1881 261 1828 313 l 1740 313 m 556 0 l 1356 1083 l 1389 1083 l 589 0 m 51 542 l 51 569 l 201 569 l 201 1044 l 60 947 l 44 971 l 215 1086 l 229 1086 l 229 569 l 378 569 l 378 542 m 468 542 l 468 569 l 618 569 l 618 1044 l 476 947 l 461 971 l 632 1086 l 646 1086 l 646 569 l 794 569 l 794 542 m 1163 0 l 1163 28 l 1313 28 l 1313 503 l 1171 406 l 1156 429 l 1326 544 l 1340 544 l 1340 28 l 1489 28 l 1489 0 "},"":{"ha":1944,"x_min":0,"x_max":0,"o":"m 1885 521 b 1669 417 1815 521 1726 492 b 1606 275 1635 372 1615 322 b 1743 340 1636 314 1683 340 b 1910 169 1838 340 1910 286 l 1910 163 b 1739 -7 1910 46 1838 -7 b 1569 181 1646 -7 1569 57 l 1569 188 b 1646 435 1569 274 1588 357 b 1885 549 1706 514 1806 549 m 1740 313 b 1599 225 1675 313 1624 276 b 1597 188 1597 213 1597 199 l 1597 181 b 1738 21 1597 81 1660 21 l 1742 21 b 1881 161 1828 21 1881 71 l 1881 172 b 1744 313 1881 261 1828 313 l 1740 313 m 628 561 b 765 676 700 561 765 597 l 765 688 b 636 804 765 767 708 804 l 556 804 l 556 831 l 633 831 b 763 939 704 831 763 864 l 763 944 b 628 1064 763 1017 710 1064 l 621 1064 b 486 903 529 1064 486 1017 l 458 903 l 458 919 b 625 1090 458 1026 508 1090 b 792 947 726 1090 792 1038 l 792 938 b 693 817 792 871 753 832 b 794 689 754 801 794 758 l 794 678 b 625 535 794 586 717 535 b 454 708 507 535 454 603 l 454 715 l 482 715 b 621 561 482 610 533 561 m 556 0 l 1356 1083 l 1389 1083 l 589 0 m 51 542 l 51 569 l 201 569 l 201 1044 l 60 947 l 44 971 l 215 1086 l 229 1086 l 229 569 l 378 569 l 378 542 m 1163 0 l 1163 28 l 1313 28 l 1313 503 l 1171 406 l 1156 429 l 1326 544 l 1340 544 l 1340 28 l 1489 28 l 1489 0 "},"":{"ha":1944,"x_min":0,"x_max":0,"o":"m 1885 521 b 1669 417 1815 521 1726 492 b 1606 275 1635 372 1615 322 b 1743 340 1636 314 1683 340 b 1910 169 1838 340 1910 286 l 1910 163 b 1739 -7 1910 46 1838 -7 b 1569 181 1646 -7 1569 57 l 1569 188 b 1646 435 1569 274 1588 357 b 1885 549 1706 514 1806 549 m 1740 313 b 1599 225 1675 313 1624 276 b 1597 188 1597 213 1597 199 l 1597 181 b 1738 21 1597 81 1660 21 l 1742 21 b 1881 161 1828 21 1881 71 l 1881 172 b 1744 313 1881 261 1828 313 l 1740 313 m 458 776 l 472 1083 l 788 1083 l 788 1056 l 499 1056 l 489 824 b 625 882 518 861 567 882 b 794 711 717 882 794 825 l 794 704 b 625 535 794 592 717 535 b 454 708 507 535 454 603 l 454 715 l 482 715 b 621 561 482 610 533 561 l 628 561 b 765 701 700 561 765 603 l 765 715 b 628 856 765 813 700 856 l 621 856 b 482 771 564 856 504 828 m 556 0 l 1356 1083 l 1389 1083 l 589 0 m 51 542 l 51 569 l 201 569 l 201 1044 l 60 947 l 44 971 l 215 1086 l 229 1086 l 229 569 l 378 569 l 378 542 m 1163 0 l 1163 28 l 1313 28 l 1313 503 l 1171 406 l 1156 429 l 1326 544 l 1340 544 l 1340 28 l 1489 28 l 1489 0 "},"":{"ha":1292,"x_min":0,"x_max":0,"o":"m 685 -119 b 1142 18 853 -119 993 -89 l 1158 -4 b 681 -147 1004 -119 843 -147 b 49 514 313 -147 49 111 l 49 569 b 674 1231 49 972 306 1231 b 1243 674 979 1231 1243 1035 l 1243 632 b 875 222 1243 299 1090 222 l 868 222 l 858 332 b 628 214 824 283 743 214 b 347 535 444 214 347 347 l 347 563 b 628 883 347 750 444 883 b 858 765 743 883 824 814 l 868 875 l 889 875 l 882 708 l 882 389 l 888 250 b 1215 632 1074 251 1215 310 l 1215 674 b 678 1203 1215 1028 958 1203 l 669 1203 b 76 569 326 1203 76 965 l 76 514 b 676 -119 76 118 333 -119 m 854 726 b 629 856 817 783 743 856 b 375 563 465 856 375 736 l 375 535 b 629 242 375 361 465 242 b 854 371 743 242 817 314 l 854 726 "},"":{"ha":722,"x_min":0,"x_max":0,"o":"m 188 736 l 417 736 l 417 708 l 188 708 l 188 0 l 160 0 l 160 708 l 42 708 l 42 736 l 160 736 l 160 932 b 342 1119 160 1082 244 1119 b 431 1106 393 1119 424 1108 l 431 1078 b 347 1092 419 1083 382 1092 b 188 924 253 1092 188 1061 m 583 736 l 611 736 l 611 0 l 583 0 m 625 944 l 569 944 l 569 1000 l 625 1000 "},"":{"ha":722,"x_min":0,"x_max":0,"o":"m 188 736 l 417 736 l 417 708 l 188 708 l 188 0 l 160 0 l 160 708 l 42 708 l 42 736 l 160 736 l 160 932 b 342 1119 160 1082 244 1119 b 431 1106 393 1119 424 1108 l 431 1078 b 347 1092 419 1083 382 1092 b 188 924 253 1092 188 1061 m 583 1111 l 611 1111 l 611 0 l 583 0 "}}}
